<?xml version="1.0" encoding="utf-8" standalone="no"?>
<!DOCTYPE svg PUBLIC "-//W3C//DTD SVG 1.1//EN"
  "http://www.w3.org/Graphics/SVG/1.1/DTD/svg11.dtd">
<svg height="325.986375pt" version="1.1" viewBox="0 0 891.129062 325.986375" width="891.129062pt" xmlns="http://www.w3.org/2000/svg" xmlns:xlink="http://www.w3.org/1999/xlink">
 <metadata>
  <rdf:RDF xmlns:cc="http://creativecommons.org/ns#" xmlns:dc="http://purl.org/dc/elements/1.1/" xmlns:rdf="http://www.w3.org/1999/02/22-rdf-syntax-ns#">
   <cc:Work>
    <dc:type rdf:resource="http://purl.org/dc/dcmitype/StillImage"/>
    <dc:date>2022-08-11T17:13:40.913477</dc:date>
    <dc:format>image/svg+xml</dc:format>
    <dc:creator>
     <cc:Agent>
      <dc:title>Matplotlib v3.4.1, https://matplotlib.org/</dc:title>
     </cc:Agent>
    </dc:creator>
   </cc:Work>
  </rdf:RDF>
 </metadata>
 <defs>
  <style type="text/css">*{stroke-linecap:butt;stroke-linejoin:round;}</style>
 </defs>
 <g id="figure_1">
  <g id="patch_1">
   <path d="M 0 325.986375 
L 891.129063 325.986375 
L 891.129063 0 
L 0 0 
z
" style="fill:#ffffff;"/>
  </g>
  <g id="axes_1">
   <g id="patch_2">
    <path d="M 53.328125 288.430125 
L 767.568125 288.430125 
L 767.568125 22.318125 
L 53.328125 22.318125 
z
" style="fill:#ffffff;"/>
   </g>
   <g id="PolyCollection_1">
    <defs>
     <path d="M 85.79358 -79.645951 
L 85.79358 -49.65225 
L 185.326487 -69.575074 
L 243.549506 -82.711001 
L 284.859395 -101.741676 
L 316.901835 -107.450331 
L 343.082414 -109.639653 
L 365.217778 -111.172178 
L 384.392303 -115.331888 
L 401.305433 -116.426549 
L 416.434742 -116.415602 
L 430.120868 -116.426549 
L 442.615322 -117.740141 
L 454.109105 -120.367327 
L 464.750686 -119.053734 
L 474.657761 -119.491598 
L 483.925211 -122.77558 
L 492.630642 -123.870241 
L 500.83834 -125.621698 
L 508.602157 -125.621698 
L 515.96765 -124.308105 
L 522.973705 -124.0837 
L 529.653776 -126.497426 
L 536.036855 -124.089173 
L 542.14823 -124.308105 
L 548.01009 -123.870241 
L 553.642013 -124.308105 
L 559.061359 -124.089173 
L 564.283594 -124.308105 
L 569.322554 -124.527037 
L 574.190669 -124.521564 
L 578.899144 -125.183834 
L 583.458119 -125.397293 
L 587.876794 -125.183834 
L 592.16355 -125.183834 
L 596.326033 -125.183834 
L 600.371248 -126.054089 
L 604.305621 -126.935291 
L 608.135065 -125.402766 
L 611.865031 -125.84063 
L 615.500558 -124.964902 
L 619.046309 -126.48648 
L 622.506613 -126.929817 
L 625.885489 -126.278494 
L 629.186684 -126.929817 
L 632.413688 -126.935291 
L 635.569763 -126.278494 
L 638.65796 -126.278494 
L 641.681137 -126.716359 
L 644.641977 -126.278494 
L 647.542997 -126.278494 
L 650.386568 -126.716359 
L 653.174921 -126.935291 
L 655.910158 -127.811019 
L 658.594267 -128.467816 
L 661.229123 -128.467816 
L 663.816502 -128.467816 
L 666.358084 -128.467816 
L 668.855462 -127.811019 
L 671.310148 -128.467816 
L 673.723577 -128.467816 
L 676.097112 -128.467816 
L 678.432052 -128.467816 
L 680.729631 -127.811019 
L 682.991027 -128.467816 
L 685.21736 -128.681274 
L 687.409702 -128.686748 
L 689.569076 -128.467816 
L 691.696457 -128.686748 
L 693.792781 -128.686748 
L 695.858941 -128.467816 
L 697.895793 -128.467816 
L 699.904156 -128.467816 
L 701.884817 -128.686748 
L 703.838529 -128.686748 
L 705.766016 -128.686748 
L 707.667973 -128.686748 
L 709.545067 -128.686748 
L 711.397939 -128.686748 
L 713.227208 -128.686748 
L 715.033466 -128.686748 
L 716.817286 -128.686748 
L 718.579217 -128.029951 
L 720.319792 -128.029951 
L 722.03952 -128.686748 
L 723.738897 -129.124612 
L 725.418397 -130.438205 
L 727.078481 -128.90568 
L 728.719591 -130.438205 
L 730.342158 -129.124612 
L 731.946595 -130.438205 
L 733.533304 -130.438205 
L 735.10267 -129.343544 
L 735.10267 -291.57225 
L 735.10267 -291.57225 
L 733.533304 -291.57225 
L 731.946595 -291.57225 
L 730.342158 -291.57225 
L 728.719591 -291.57225 
L 727.078481 -291.134386 
L 725.418397 -289.601861 
L 723.738897 -285.44215 
L 722.03952 -285.44215 
L 720.319792 -285.44215 
L 718.579217 -285.44215 
L 716.817286 -285.44215 
L 715.033466 -285.44215 
L 713.227208 -285.44215 
L 711.397939 -285.485937 
L 709.545067 -285.44215 
L 707.667973 -285.44215 
L 705.766016 -287.193607 
L 703.838529 -285.44215 
L 701.884817 -285.44215 
L 699.904156 -285.44215 
L 697.895793 -285.44215 
L 695.858941 -285.44215 
L 693.792781 -285.44215 
L 691.696457 -285.44215 
L 689.569076 -285.44215 
L 687.409702 -285.44215 
L 685.21736 -285.44215 
L 682.991027 -285.44215 
L 680.729631 -285.44215 
L 678.432052 -285.44215 
L 676.097112 -285.44215 
L 673.723577 -287.193607 
L 671.310148 -285.004286 
L 668.855462 -285.004286 
L 666.358084 -286.974675 
L 663.816502 -285.004286 
L 661.229123 -285.004286 
L 658.594267 -286.974675 
L 655.910158 -285.004286 
L 653.174921 -285.004286 
L 650.386568 -285.004286 
L 647.542997 -285.004286 
L 644.641977 -285.004286 
L 641.681137 -285.004286 
L 638.65796 -285.004286 
L 635.569763 -285.004286 
L 632.413688 -285.004286 
L 629.186684 -284.128558 
L 625.885489 -284.183291 
L 622.506613 -278.436322 
L 619.046309 -260.483888 
L 615.500558 -260.483888 
L 611.865031 -260.483888 
L 608.135065 -132.638473 
L 604.305621 -133.284322 
L 600.371248 -133.06539 
L 596.326033 -133.06539 
L 592.16355 -133.06539 
L 587.876794 -132.846458 
L 583.458119 -132.846458 
L 578.899144 -132.414067 
L 574.190669 -132.627526 
L 569.322554 -132.189662 
L 564.283594 -132.189662 
L 559.061359 -131.762744 
L 553.642013 -132.189662 
L 548.01009 -132.408594 
L 542.14823 -132.189662 
L 536.036855 -128.686748 
L 529.653776 -131.97073 
L 522.973705 -131.97073 
L 515.96765 -128.686748 
L 508.602157 -128.248883 
L 500.83834 -128.029951 
L 492.630642 -128.248883 
L 483.925211 -127.811019 
L 474.657761 -127.811019 
L 464.750686 -127.811019 
L 454.109105 -127.811019 
L 442.615322 -127.811019 
L 430.120868 -127.811019 
L 416.434742 -127.811019 
L 401.305433 -126.497426 
L 384.392303 -125.621698 
L 365.217778 -125.84063 
L 343.082414 -123.651309 
L 316.901835 -122.118784 
L 284.859395 -117.302277 
L 243.549506 -111.610042 
L 185.326487 -95.846929 
L 85.79358 -79.645951 
z
" id="me299883041" style="stroke:#1f77b4;stroke-opacity:0.2;"/>
    </defs>
    <g clip-path="url(#p32295228ad)">
     <use style="fill:#1f77b4;fill-opacity:0.2;stroke:#1f77b4;stroke-opacity:0.2;" x="0" xlink:href="#me299883041" y="325.986375"/>
    </g>
   </g>
   <g id="PolyCollection_2">
    <defs>
     <path d="M 85.79358 -71.764395 
L 85.79358 -58.628467 
L 185.326487 -66.947888 
L 243.549506 -81.835273 
L 284.859395 -91.90615 
L 316.901835 -95.627997 
L 343.082414 -109.201788 
L 365.217778 -111.172178 
L 384.392303 -114.675092 
L 401.305433 -116.645481 
L 416.434742 -116.645481 
L 430.120868 -118.61587 
L 442.615322 -119.929463 
L 454.109105 -119.491598 
L 464.750686 -120.367327 
L 474.657761 -120.367327 
L 483.925211 -122.556648 
L 492.630642 -121.899852 
L 500.83834 -123.432377 
L 508.602157 -124.527037 
L 515.96765 -125.599805 
L 522.973705 -124.745969 
L 529.653776 -124.964902 
L 536.036855 -124.964902 
L 542.14823 -126.043142 
L 548.01009 -124.964902 
L 553.642013 -125.391819 
L 559.061359 -125.621698 
L 564.283594 -125.621698 
L 569.322554 -125.621698 
L 574.190669 -125.621698 
L 578.899144 -125.621698 
L 583.458119 -125.605278 
L 587.876794 -125.621698 
L 592.16355 -125.621698 
L 596.326033 -128.615595 
L 600.371248 -125.621698 
L 604.305621 -125.621698 
L 608.135065 -128.686748 
L 611.865031 -125.621698 
L 615.500558 -125.84063 
L 619.046309 -126.278494 
L 622.506613 -126.710885 
L 625.885489 -126.278494 
L 629.186684 -128.653908 
L 632.413688 -126.935291 
L 635.569763 -127.154223 
L 638.65796 -127.154223 
L 641.681137 -127.154223 
L 644.641977 -127.154223 
L 647.542997 -127.154223 
L 650.386568 -127.154223 
L 653.174921 -127.154223 
L 655.910158 -127.154223 
L 658.594267 -128.462342 
L 661.229123 -128.237937 
L 663.816502 -128.248883 
L 666.358084 -127.811019 
L 668.855462 -128.664855 
L 671.310148 -127.811019 
L 673.723577 -127.811019 
L 676.097112 -128.664855 
L 678.432052 -127.811019 
L 680.729631 -127.811019 
L 682.991027 -128.686748 
L 685.21736 -128.686748 
L 687.409702 -127.811019 
L 689.569076 -128.686748 
L 691.696457 -128.686748 
L 693.792781 -128.029951 
L 695.858941 -128.686748 
L 697.895793 -128.029951 
L 699.904156 -128.686748 
L 701.884817 -128.670328 
L 703.838529 -128.686748 
L 705.766016 -128.670328 
L 707.667973 -128.029951 
L 709.545067 -128.686748 
L 711.397939 -128.029951 
L 713.227208 -128.029951 
L 715.033466 -128.686748 
L 716.817286 -128.248883 
L 718.579217 -128.248883 
L 720.319792 -128.675801 
L 722.03952 -128.248883 
L 723.738897 -128.248883 
L 725.418397 -128.686748 
L 727.078481 -128.675801 
L 728.719591 -128.675801 
L 730.342158 -128.248883 
L 731.946595 -128.248883 
L 733.533304 -128.248883 
L 735.10267 -128.248883 
L 735.10267 -276.247001 
L 735.10267 -276.247001 
L 733.533304 -276.247001 
L 731.946595 -274.495544 
L 730.342158 -274.495544 
L 728.719591 -274.495544 
L 727.078481 -274.495544 
L 725.418397 -274.495544 
L 723.738897 -281.063508 
L 722.03952 -274.495544 
L 720.319792 -274.659743 
L 718.579217 -274.495544 
L 716.817286 -281.063508 
L 715.033466 -274.495544 
L 713.227208 -274.495544 
L 711.397939 -274.495544 
L 709.545067 -274.495544 
L 707.667973 -274.495544 
L 705.766016 -274.495544 
L 703.838529 -274.495544 
L 701.884817 -274.495544 
L 699.904156 -274.495544 
L 697.895793 -274.495544 
L 695.858941 -274.495544 
L 693.792781 -274.216406 
L 691.696457 -273.619816 
L 689.569076 -273.619816 
L 687.409702 -273.619816 
L 685.21736 -273.619816 
L 682.991027 -273.619816 
L 680.729631 -273.619816 
L 678.432052 -273.619816 
L 676.097112 -273.619816 
L 673.723577 -273.619816 
L 671.310148 -273.619816 
L 668.855462 -278.436322 
L 666.358084 -269.679037 
L 663.816502 -140.011012 
L 661.229123 -207.283381 
L 658.594267 -206.626585 
L 655.910158 -207.283381 
L 653.174921 -207.064449 
L 650.386568 -207.064449 
L 647.542997 -207.069922 
L 644.641977 -207.064449 
L 641.681137 -206.845517 
L 638.65796 -135.692576 
L 635.569763 -135.692576 
L 632.413688 -135.692576 
L 629.186684 -135.692576 
L 625.885489 -135.692576 
L 622.506613 -135.254712 
L 619.046309 -136.787236 
L 615.500558 -135.254712 
L 611.865031 -135.254712 
L 608.135065 -135.254712 
L 604.305621 -133.06539 
L 600.371248 -132.627526 
L 596.326033 -130.876069 
L 592.16355 -132.200608 
L 587.876794 -132.200608 
L 583.458119 -130.00034 
L 578.899144 -130.219273 
L 574.190669 -130.219273 
L 569.322554 -130.00034 
L 564.283594 -130.00034 
L 559.061359 -130.00034 
L 553.642013 -129.562476 
L 548.01009 -130.219273 
L 542.14823 -129.562476 
L 536.036855 -129.562476 
L 529.653776 -129.562476 
L 522.973705 -129.562476 
L 515.96765 -129.343544 
L 508.602157 -129.124612 
L 500.83834 -128.248883 
L 492.630642 -127.811019 
L 483.925211 -127.592087 
L 474.657761 -127.373155 
L 464.750686 -127.154223 
L 454.109105 -126.935291 
L 442.615322 -126.059562 
L 430.120868 -126.059562 
L 416.434742 -126.059562 
L 401.305433 -124.527037 
L 384.392303 -124.094646 
L 365.217778 -123.213445 
L 343.082414 -121.461988 
L 316.901835 -118.178006 
L 284.859395 -113.361499 
L 243.549506 -108.763924 
L 185.326487 -98.474114 
L 85.79358 -71.764395 
z
" id="m9164791942" style="stroke:#98df8a;stroke-opacity:0.2;"/>
    </defs>
    <g clip-path="url(#p32295228ad)">
     <use style="fill:#98df8a;fill-opacity:0.2;stroke:#98df8a;stroke-opacity:0.2;" x="0" xlink:href="#m9164791942" y="325.986375"/>
    </g>
   </g>
   <g id="matplotlib.axis_1">
    <g id="xtick_1">
     <g id="line2d_1">
      <defs>
       <path d="M 0 0 
L 0 3.5 
" id="m958b308fc5" style="stroke:#000000;stroke-width:0.8;"/>
      </defs>
      <g>
       <use style="stroke:#000000;stroke-width:0.8;" x="85.79358" xlink:href="#m958b308fc5" y="288.430125"/>
      </g>
     </g>
     <g id="text_1">
      <!-- 14m -->
      <g transform="translate(74.560767 303.028562)scale(0.1 -0.1)">
       <defs>
        <path d="M 794 531 
L 1825 531 
L 1825 4091 
L 703 3866 
L 703 4441 
L 1819 4666 
L 2450 4666 
L 2450 531 
L 3481 531 
L 3481 0 
L 794 0 
L 794 531 
z
" id="DejaVuSans-31" transform="scale(0.015625)"/>
        <path d="M 2419 4116 
L 825 1625 
L 2419 1625 
L 2419 4116 
z
M 2253 4666 
L 3047 4666 
L 3047 1625 
L 3713 1625 
L 3713 1100 
L 3047 1100 
L 3047 0 
L 2419 0 
L 2419 1100 
L 313 1100 
L 313 1709 
L 2253 4666 
z
" id="DejaVuSans-34" transform="scale(0.015625)"/>
        <path d="M 3328 2828 
Q 3544 3216 3844 3400 
Q 4144 3584 4550 3584 
Q 5097 3584 5394 3201 
Q 5691 2819 5691 2113 
L 5691 0 
L 5113 0 
L 5113 2094 
Q 5113 2597 4934 2840 
Q 4756 3084 4391 3084 
Q 3944 3084 3684 2787 
Q 3425 2491 3425 1978 
L 3425 0 
L 2847 0 
L 2847 2094 
Q 2847 2600 2669 2842 
Q 2491 3084 2119 3084 
Q 1678 3084 1418 2786 
Q 1159 2488 1159 1978 
L 1159 0 
L 581 0 
L 581 3500 
L 1159 3500 
L 1159 2956 
Q 1356 3278 1631 3431 
Q 1906 3584 2284 3584 
Q 2666 3584 2933 3390 
Q 3200 3197 3328 2828 
z
" id="DejaVuSans-6d" transform="scale(0.015625)"/>
       </defs>
       <use xlink:href="#DejaVuSans-31"/>
       <use x="63.623047" xlink:href="#DejaVuSans-34"/>
       <use x="127.246094" xlink:href="#DejaVuSans-6d"/>
      </g>
     </g>
    </g>
    <g id="xtick_2">
     <g id="line2d_2">
      <g>
       <use style="stroke:#000000;stroke-width:0.8;" x="144.821836" xlink:href="#m958b308fc5" y="288.430125"/>
      </g>
     </g>
     <g id="text_2">
      <!-- 22m -->
      <g transform="translate(133.589024 303.028562)scale(0.1 -0.1)">
       <defs>
        <path d="M 1228 531 
L 3431 531 
L 3431 0 
L 469 0 
L 469 531 
Q 828 903 1448 1529 
Q 2069 2156 2228 2338 
Q 2531 2678 2651 2914 
Q 2772 3150 2772 3378 
Q 2772 3750 2511 3984 
Q 2250 4219 1831 4219 
Q 1534 4219 1204 4116 
Q 875 4013 500 3803 
L 500 4441 
Q 881 4594 1212 4672 
Q 1544 4750 1819 4750 
Q 2544 4750 2975 4387 
Q 3406 4025 3406 3419 
Q 3406 3131 3298 2873 
Q 3191 2616 2906 2266 
Q 2828 2175 2409 1742 
Q 1991 1309 1228 531 
z
" id="DejaVuSans-32" transform="scale(0.015625)"/>
       </defs>
       <use xlink:href="#DejaVuSans-32"/>
       <use x="63.623047" xlink:href="#DejaVuSans-32"/>
       <use x="127.246094" xlink:href="#DejaVuSans-6d"/>
      </g>
     </g>
    </g>
    <g id="xtick_3">
     <g id="line2d_3">
      <g>
       <use style="stroke:#000000;stroke-width:0.8;" x="203.850093" xlink:href="#m958b308fc5" y="288.430125"/>
      </g>
     </g>
     <g id="text_3">
      <!-- 34m -->
      <g transform="translate(192.617281 303.028562)scale(0.1 -0.1)">
       <defs>
        <path d="M 2597 2516 
Q 3050 2419 3304 2112 
Q 3559 1806 3559 1356 
Q 3559 666 3084 287 
Q 2609 -91 1734 -91 
Q 1441 -91 1130 -33 
Q 819 25 488 141 
L 488 750 
Q 750 597 1062 519 
Q 1375 441 1716 441 
Q 2309 441 2620 675 
Q 2931 909 2931 1356 
Q 2931 1769 2642 2001 
Q 2353 2234 1838 2234 
L 1294 2234 
L 1294 2753 
L 1863 2753 
Q 2328 2753 2575 2939 
Q 2822 3125 2822 3475 
Q 2822 3834 2567 4026 
Q 2313 4219 1838 4219 
Q 1578 4219 1281 4162 
Q 984 4106 628 3988 
L 628 4550 
Q 988 4650 1302 4700 
Q 1616 4750 1894 4750 
Q 2613 4750 3031 4423 
Q 3450 4097 3450 3541 
Q 3450 3153 3228 2886 
Q 3006 2619 2597 2516 
z
" id="DejaVuSans-33" transform="scale(0.015625)"/>
       </defs>
       <use xlink:href="#DejaVuSans-33"/>
       <use x="63.623047" xlink:href="#DejaVuSans-34"/>
       <use x="127.246094" xlink:href="#DejaVuSans-6d"/>
      </g>
     </g>
    </g>
    <g id="xtick_4">
     <g id="line2d_4">
      <g>
       <use style="stroke:#000000;stroke-width:0.8;" x="262.87835" xlink:href="#m958b308fc5" y="288.430125"/>
      </g>
     </g>
     <g id="text_4">
      <!-- 51m -->
      <g transform="translate(251.645538 303.028562)scale(0.1 -0.1)">
       <defs>
        <path d="M 691 4666 
L 3169 4666 
L 3169 4134 
L 1269 4134 
L 1269 2991 
Q 1406 3038 1543 3061 
Q 1681 3084 1819 3084 
Q 2600 3084 3056 2656 
Q 3513 2228 3513 1497 
Q 3513 744 3044 326 
Q 2575 -91 1722 -91 
Q 1428 -91 1123 -41 
Q 819 9 494 109 
L 494 744 
Q 775 591 1075 516 
Q 1375 441 1709 441 
Q 2250 441 2565 725 
Q 2881 1009 2881 1497 
Q 2881 1984 2565 2268 
Q 2250 2553 1709 2553 
Q 1456 2553 1204 2497 
Q 953 2441 691 2322 
L 691 4666 
z
" id="DejaVuSans-35" transform="scale(0.015625)"/>
       </defs>
       <use xlink:href="#DejaVuSans-35"/>
       <use x="63.623047" xlink:href="#DejaVuSans-31"/>
       <use x="127.246094" xlink:href="#DejaVuSans-6d"/>
      </g>
     </g>
    </g>
    <g id="xtick_5">
     <g id="line2d_5">
      <g>
       <use style="stroke:#000000;stroke-width:0.8;" x="321.906607" xlink:href="#m958b308fc5" y="288.430125"/>
      </g>
     </g>
     <g id="text_5">
      <!-- 1h:17m -->
      <g transform="translate(302.639419 303.028562)scale(0.1 -0.1)">
       <defs>
        <path d="M 3513 2113 
L 3513 0 
L 2938 0 
L 2938 2094 
Q 2938 2591 2744 2837 
Q 2550 3084 2163 3084 
Q 1697 3084 1428 2787 
Q 1159 2491 1159 1978 
L 1159 0 
L 581 0 
L 581 4863 
L 1159 4863 
L 1159 2956 
Q 1366 3272 1645 3428 
Q 1925 3584 2291 3584 
Q 2894 3584 3203 3211 
Q 3513 2838 3513 2113 
z
" id="DejaVuSans-68" transform="scale(0.015625)"/>
        <path d="M 750 794 
L 1409 794 
L 1409 0 
L 750 0 
L 750 794 
z
M 750 3309 
L 1409 3309 
L 1409 2516 
L 750 2516 
L 750 3309 
z
" id="DejaVuSans-3a" transform="scale(0.015625)"/>
        <path d="M 525 4666 
L 3525 4666 
L 3525 4397 
L 1831 0 
L 1172 0 
L 2766 4134 
L 525 4134 
L 525 4666 
z
" id="DejaVuSans-37" transform="scale(0.015625)"/>
       </defs>
       <use xlink:href="#DejaVuSans-31"/>
       <use x="63.623047" xlink:href="#DejaVuSans-68"/>
       <use x="127.001953" xlink:href="#DejaVuSans-3a"/>
       <use x="160.693359" xlink:href="#DejaVuSans-31"/>
       <use x="224.316406" xlink:href="#DejaVuSans-37"/>
       <use x="287.939453" xlink:href="#DejaVuSans-6d"/>
      </g>
     </g>
    </g>
    <g id="xtick_6">
     <g id="line2d_6">
      <g>
       <use style="stroke:#000000;stroke-width:0.8;" x="380.934864" xlink:href="#m958b308fc5" y="288.430125"/>
      </g>
     </g>
     <g id="text_6">
      <!-- 1h:57m -->
      <g transform="translate(361.667676 303.028562)scale(0.1 -0.1)">
       <use xlink:href="#DejaVuSans-31"/>
       <use x="63.623047" xlink:href="#DejaVuSans-68"/>
       <use x="127.001953" xlink:href="#DejaVuSans-3a"/>
       <use x="160.693359" xlink:href="#DejaVuSans-35"/>
       <use x="224.316406" xlink:href="#DejaVuSans-37"/>
       <use x="287.939453" xlink:href="#DejaVuSans-6d"/>
      </g>
     </g>
    </g>
    <g id="xtick_7">
     <g id="line2d_7">
      <g>
       <use style="stroke:#000000;stroke-width:0.8;" x="439.963121" xlink:href="#m958b308fc5" y="288.430125"/>
      </g>
     </g>
     <g id="text_7">
      <!-- 2h:56m -->
      <g transform="translate(420.695933 303.028562)scale(0.1 -0.1)">
       <defs>
        <path d="M 2113 2584 
Q 1688 2584 1439 2293 
Q 1191 2003 1191 1497 
Q 1191 994 1439 701 
Q 1688 409 2113 409 
Q 2538 409 2786 701 
Q 3034 994 3034 1497 
Q 3034 2003 2786 2293 
Q 2538 2584 2113 2584 
z
M 3366 4563 
L 3366 3988 
Q 3128 4100 2886 4159 
Q 2644 4219 2406 4219 
Q 1781 4219 1451 3797 
Q 1122 3375 1075 2522 
Q 1259 2794 1537 2939 
Q 1816 3084 2150 3084 
Q 2853 3084 3261 2657 
Q 3669 2231 3669 1497 
Q 3669 778 3244 343 
Q 2819 -91 2113 -91 
Q 1303 -91 875 529 
Q 447 1150 447 2328 
Q 447 3434 972 4092 
Q 1497 4750 2381 4750 
Q 2619 4750 2861 4703 
Q 3103 4656 3366 4563 
z
" id="DejaVuSans-36" transform="scale(0.015625)"/>
       </defs>
       <use xlink:href="#DejaVuSans-32"/>
       <use x="63.623047" xlink:href="#DejaVuSans-68"/>
       <use x="127.001953" xlink:href="#DejaVuSans-3a"/>
       <use x="160.693359" xlink:href="#DejaVuSans-35"/>
       <use x="224.316406" xlink:href="#DejaVuSans-36"/>
       <use x="287.939453" xlink:href="#DejaVuSans-6d"/>
      </g>
     </g>
    </g>
    <g id="xtick_8">
     <g id="line2d_8">
      <g>
       <use style="stroke:#000000;stroke-width:0.8;" x="498.991377" xlink:href="#m958b308fc5" y="288.430125"/>
      </g>
     </g>
     <g id="text_8">
      <!-- 4h:26m -->
      <g transform="translate(479.72419 303.028562)scale(0.1 -0.1)">
       <use xlink:href="#DejaVuSans-34"/>
       <use x="63.623047" xlink:href="#DejaVuSans-68"/>
       <use x="127.001953" xlink:href="#DejaVuSans-3a"/>
       <use x="160.693359" xlink:href="#DejaVuSans-32"/>
       <use x="224.316406" xlink:href="#DejaVuSans-36"/>
       <use x="287.939453" xlink:href="#DejaVuSans-6d"/>
      </g>
     </g>
    </g>
    <g id="xtick_9">
     <g id="line2d_9">
      <g>
       <use style="stroke:#000000;stroke-width:0.8;" x="558.019634" xlink:href="#m958b308fc5" y="288.430125"/>
      </g>
     </g>
     <g id="text_9">
      <!-- 6h:42m -->
      <g transform="translate(538.752447 303.028562)scale(0.1 -0.1)">
       <use xlink:href="#DejaVuSans-36"/>
       <use x="63.623047" xlink:href="#DejaVuSans-68"/>
       <use x="127.001953" xlink:href="#DejaVuSans-3a"/>
       <use x="160.693359" xlink:href="#DejaVuSans-34"/>
       <use x="224.316406" xlink:href="#DejaVuSans-32"/>
       <use x="287.939453" xlink:href="#DejaVuSans-6d"/>
      </g>
     </g>
    </g>
    <g id="xtick_10">
     <g id="line2d_10">
      <g>
       <use style="stroke:#000000;stroke-width:0.8;" x="617.047891" xlink:href="#m958b308fc5" y="288.430125"/>
      </g>
     </g>
     <g id="text_10">
      <!-- 10h:6m -->
      <g transform="translate(597.780704 303.028562)scale(0.1 -0.1)">
       <defs>
        <path d="M 2034 4250 
Q 1547 4250 1301 3770 
Q 1056 3291 1056 2328 
Q 1056 1369 1301 889 
Q 1547 409 2034 409 
Q 2525 409 2770 889 
Q 3016 1369 3016 2328 
Q 3016 3291 2770 3770 
Q 2525 4250 2034 4250 
z
M 2034 4750 
Q 2819 4750 3233 4129 
Q 3647 3509 3647 2328 
Q 3647 1150 3233 529 
Q 2819 -91 2034 -91 
Q 1250 -91 836 529 
Q 422 1150 422 2328 
Q 422 3509 836 4129 
Q 1250 4750 2034 4750 
z
" id="DejaVuSans-30" transform="scale(0.015625)"/>
       </defs>
       <use xlink:href="#DejaVuSans-31"/>
       <use x="63.623047" xlink:href="#DejaVuSans-30"/>
       <use x="127.246094" xlink:href="#DejaVuSans-68"/>
       <use x="190.625" xlink:href="#DejaVuSans-3a"/>
       <use x="224.316406" xlink:href="#DejaVuSans-36"/>
       <use x="287.939453" xlink:href="#DejaVuSans-6d"/>
      </g>
     </g>
    </g>
    <g id="xtick_11">
     <g id="line2d_11">
      <g>
       <use style="stroke:#000000;stroke-width:0.8;" x="676.076148" xlink:href="#m958b308fc5" y="288.430125"/>
      </g>
     </g>
     <g id="text_11">
      <!-- 15h:14m -->
      <g transform="translate(653.62771 303.028562)scale(0.1 -0.1)">
       <use xlink:href="#DejaVuSans-31"/>
       <use x="63.623047" xlink:href="#DejaVuSans-35"/>
       <use x="127.246094" xlink:href="#DejaVuSans-68"/>
       <use x="190.625" xlink:href="#DejaVuSans-3a"/>
       <use x="224.316406" xlink:href="#DejaVuSans-31"/>
       <use x="287.939453" xlink:href="#DejaVuSans-34"/>
       <use x="351.5625" xlink:href="#DejaVuSans-6d"/>
      </g>
     </g>
    </g>
    <g id="xtick_12">
     <g id="line2d_12">
      <g>
       <use style="stroke:#000000;stroke-width:0.8;" x="735.104405" xlink:href="#m958b308fc5" y="288.430125"/>
      </g>
     </g>
     <g id="text_12">
      <!-- 23h -->
      <g transform="translate(725.573155 303.028562)scale(0.1 -0.1)">
       <use xlink:href="#DejaVuSans-32"/>
       <use x="63.623047" xlink:href="#DejaVuSans-33"/>
       <use x="127.246094" xlink:href="#DejaVuSans-68"/>
      </g>
     </g>
    </g>
    <g id="xtick_13">
     <g id="line2d_13">
      <defs>
       <path d="M 0 0 
L 0 2 
" id="m71882d8e89" style="stroke:#000000;stroke-width:0.6;"/>
      </defs>
      <g>
       <use style="stroke:#000000;stroke-width:0.6;" x="68.88045" xlink:href="#m71882d8e89" y="288.430125"/>
      </g>
     </g>
    </g>
    <g id="xtick_14">
     <g id="line2d_14">
      <g>
       <use style="stroke:#000000;stroke-width:0.6;" x="200.455797" xlink:href="#m71882d8e89" y="288.430125"/>
      </g>
     </g>
    </g>
    <g id="xtick_15">
     <g id="line2d_15">
      <g>
       <use style="stroke:#000000;stroke-width:0.6;" x="258.678816" xlink:href="#m71882d8e89" y="288.430125"/>
      </g>
     </g>
    </g>
    <g id="xtick_16">
     <g id="line2d_16">
      <g>
       <use style="stroke:#000000;stroke-width:0.6;" x="299.988705" xlink:href="#m71882d8e89" y="288.430125"/>
      </g>
     </g>
    </g>
    <g id="xtick_17">
     <g id="line2d_17">
      <g>
       <use style="stroke:#000000;stroke-width:0.6;" x="332.031144" xlink:href="#m71882d8e89" y="288.430125"/>
      </g>
     </g>
    </g>
    <g id="xtick_18">
     <g id="line2d_18">
      <g>
       <use style="stroke:#000000;stroke-width:0.6;" x="358.211724" xlink:href="#m71882d8e89" y="288.430125"/>
      </g>
     </g>
    </g>
    <g id="xtick_19">
     <g id="line2d_19">
      <g>
       <use style="stroke:#000000;stroke-width:0.6;" x="380.347088" xlink:href="#m71882d8e89" y="288.430125"/>
      </g>
     </g>
    </g>
    <g id="xtick_20">
     <g id="line2d_20">
      <g>
       <use style="stroke:#000000;stroke-width:0.6;" x="399.521613" xlink:href="#m71882d8e89" y="288.430125"/>
      </g>
     </g>
    </g>
    <g id="xtick_21">
     <g id="line2d_21">
      <g>
       <use style="stroke:#000000;stroke-width:0.6;" x="416.434742" xlink:href="#m71882d8e89" y="288.430125"/>
      </g>
     </g>
    </g>
    <g id="xtick_22">
     <g id="line2d_22">
      <g>
       <use style="stroke:#000000;stroke-width:0.6;" x="531.09696" xlink:href="#m71882d8e89" y="288.430125"/>
      </g>
     </g>
    </g>
    <g id="xtick_23">
     <g id="line2d_23">
      <g>
       <use style="stroke:#000000;stroke-width:0.6;" x="589.319979" xlink:href="#m71882d8e89" y="288.430125"/>
      </g>
     </g>
    </g>
    <g id="xtick_24">
     <g id="line2d_24">
      <g>
       <use style="stroke:#000000;stroke-width:0.6;" x="630.629868" xlink:href="#m71882d8e89" y="288.430125"/>
      </g>
     </g>
    </g>
    <g id="xtick_25">
     <g id="line2d_25">
      <g>
       <use style="stroke:#000000;stroke-width:0.6;" x="662.672307" xlink:href="#m71882d8e89" y="288.430125"/>
      </g>
     </g>
    </g>
    <g id="xtick_26">
     <g id="line2d_26">
      <g>
       <use style="stroke:#000000;stroke-width:0.6;" x="688.852887" xlink:href="#m71882d8e89" y="288.430125"/>
      </g>
     </g>
    </g>
    <g id="xtick_27">
     <g id="line2d_27">
      <g>
       <use style="stroke:#000000;stroke-width:0.6;" x="710.988251" xlink:href="#m71882d8e89" y="288.430125"/>
      </g>
     </g>
    </g>
    <g id="xtick_28">
     <g id="line2d_28">
      <g>
       <use style="stroke:#000000;stroke-width:0.6;" x="730.162776" xlink:href="#m71882d8e89" y="288.430125"/>
      </g>
     </g>
    </g>
    <g id="xtick_29">
     <g id="line2d_29">
      <g>
       <use style="stroke:#000000;stroke-width:0.6;" x="747.075905" xlink:href="#m71882d8e89" y="288.430125"/>
      </g>
     </g>
    </g>
    <g id="text_13">
     <!-- Time (hour:minute) -->
     <g transform="translate(362.041094 316.706687)scale(0.1 -0.1)">
      <defs>
       <path d="M -19 4666 
L 3928 4666 
L 3928 4134 
L 2272 4134 
L 2272 0 
L 1638 0 
L 1638 4134 
L -19 4134 
L -19 4666 
z
" id="DejaVuSans-54" transform="scale(0.015625)"/>
       <path d="M 603 3500 
L 1178 3500 
L 1178 0 
L 603 0 
L 603 3500 
z
M 603 4863 
L 1178 4863 
L 1178 4134 
L 603 4134 
L 603 4863 
z
" id="DejaVuSans-69" transform="scale(0.015625)"/>
       <path d="M 3597 1894 
L 3597 1613 
L 953 1613 
Q 991 1019 1311 708 
Q 1631 397 2203 397 
Q 2534 397 2845 478 
Q 3156 559 3463 722 
L 3463 178 
Q 3153 47 2828 -22 
Q 2503 -91 2169 -91 
Q 1331 -91 842 396 
Q 353 884 353 1716 
Q 353 2575 817 3079 
Q 1281 3584 2069 3584 
Q 2775 3584 3186 3129 
Q 3597 2675 3597 1894 
z
M 3022 2063 
Q 3016 2534 2758 2815 
Q 2500 3097 2075 3097 
Q 1594 3097 1305 2825 
Q 1016 2553 972 2059 
L 3022 2063 
z
" id="DejaVuSans-65" transform="scale(0.015625)"/>
       <path id="DejaVuSans-20" transform="scale(0.015625)"/>
       <path d="M 1984 4856 
Q 1566 4138 1362 3434 
Q 1159 2731 1159 2009 
Q 1159 1288 1364 580 
Q 1569 -128 1984 -844 
L 1484 -844 
Q 1016 -109 783 600 
Q 550 1309 550 2009 
Q 550 2706 781 3412 
Q 1013 4119 1484 4856 
L 1984 4856 
z
" id="DejaVuSans-28" transform="scale(0.015625)"/>
       <path d="M 1959 3097 
Q 1497 3097 1228 2736 
Q 959 2375 959 1747 
Q 959 1119 1226 758 
Q 1494 397 1959 397 
Q 2419 397 2687 759 
Q 2956 1122 2956 1747 
Q 2956 2369 2687 2733 
Q 2419 3097 1959 3097 
z
M 1959 3584 
Q 2709 3584 3137 3096 
Q 3566 2609 3566 1747 
Q 3566 888 3137 398 
Q 2709 -91 1959 -91 
Q 1206 -91 779 398 
Q 353 888 353 1747 
Q 353 2609 779 3096 
Q 1206 3584 1959 3584 
z
" id="DejaVuSans-6f" transform="scale(0.015625)"/>
       <path d="M 544 1381 
L 544 3500 
L 1119 3500 
L 1119 1403 
Q 1119 906 1312 657 
Q 1506 409 1894 409 
Q 2359 409 2629 706 
Q 2900 1003 2900 1516 
L 2900 3500 
L 3475 3500 
L 3475 0 
L 2900 0 
L 2900 538 
Q 2691 219 2414 64 
Q 2138 -91 1772 -91 
Q 1169 -91 856 284 
Q 544 659 544 1381 
z
M 1991 3584 
L 1991 3584 
z
" id="DejaVuSans-75" transform="scale(0.015625)"/>
       <path d="M 2631 2963 
Q 2534 3019 2420 3045 
Q 2306 3072 2169 3072 
Q 1681 3072 1420 2755 
Q 1159 2438 1159 1844 
L 1159 0 
L 581 0 
L 581 3500 
L 1159 3500 
L 1159 2956 
Q 1341 3275 1631 3429 
Q 1922 3584 2338 3584 
Q 2397 3584 2469 3576 
Q 2541 3569 2628 3553 
L 2631 2963 
z
" id="DejaVuSans-72" transform="scale(0.015625)"/>
       <path d="M 3513 2113 
L 3513 0 
L 2938 0 
L 2938 2094 
Q 2938 2591 2744 2837 
Q 2550 3084 2163 3084 
Q 1697 3084 1428 2787 
Q 1159 2491 1159 1978 
L 1159 0 
L 581 0 
L 581 3500 
L 1159 3500 
L 1159 2956 
Q 1366 3272 1645 3428 
Q 1925 3584 2291 3584 
Q 2894 3584 3203 3211 
Q 3513 2838 3513 2113 
z
" id="DejaVuSans-6e" transform="scale(0.015625)"/>
       <path d="M 1172 4494 
L 1172 3500 
L 2356 3500 
L 2356 3053 
L 1172 3053 
L 1172 1153 
Q 1172 725 1289 603 
Q 1406 481 1766 481 
L 2356 481 
L 2356 0 
L 1766 0 
Q 1100 0 847 248 
Q 594 497 594 1153 
L 594 3053 
L 172 3053 
L 172 3500 
L 594 3500 
L 594 4494 
L 1172 4494 
z
" id="DejaVuSans-74" transform="scale(0.015625)"/>
       <path d="M 513 4856 
L 1013 4856 
Q 1481 4119 1714 3412 
Q 1947 2706 1947 2009 
Q 1947 1309 1714 600 
Q 1481 -109 1013 -844 
L 513 -844 
Q 928 -128 1133 580 
Q 1338 1288 1338 2009 
Q 1338 2731 1133 3434 
Q 928 4138 513 4856 
z
" id="DejaVuSans-29" transform="scale(0.015625)"/>
      </defs>
      <use xlink:href="#DejaVuSans-54"/>
      <use x="57.958984" xlink:href="#DejaVuSans-69"/>
      <use x="85.742188" xlink:href="#DejaVuSans-6d"/>
      <use x="183.154297" xlink:href="#DejaVuSans-65"/>
      <use x="244.677734" xlink:href="#DejaVuSans-20"/>
      <use x="276.464844" xlink:href="#DejaVuSans-28"/>
      <use x="315.478516" xlink:href="#DejaVuSans-68"/>
      <use x="378.857422" xlink:href="#DejaVuSans-6f"/>
      <use x="440.039062" xlink:href="#DejaVuSans-75"/>
      <use x="503.417969" xlink:href="#DejaVuSans-72"/>
      <use x="542.78125" xlink:href="#DejaVuSans-3a"/>
      <use x="576.472656" xlink:href="#DejaVuSans-6d"/>
      <use x="673.884766" xlink:href="#DejaVuSans-69"/>
      <use x="701.667969" xlink:href="#DejaVuSans-6e"/>
      <use x="765.046875" xlink:href="#DejaVuSans-75"/>
      <use x="828.425781" xlink:href="#DejaVuSans-74"/>
      <use x="867.634766" xlink:href="#DejaVuSans-65"/>
      <use x="929.158203" xlink:href="#DejaVuSans-29"/>
     </g>
    </g>
   </g>
   <g id="matplotlib.axis_2">
    <g id="ytick_1">
     <g id="line2d_30">
      <defs>
       <path d="M 0 0 
L -3.5 0 
" id="m995d56b951" style="stroke:#000000;stroke-width:0.8;"/>
      </defs>
      <g>
       <use style="stroke:#000000;stroke-width:0.8;" x="53.328125" xlink:href="#m995d56b951" y="246.340424"/>
      </g>
     </g>
     <g id="text_14">
      <!-- 2100 -->
      <g transform="translate(20.878125 250.139642)scale(0.1 -0.1)">
       <use xlink:href="#DejaVuSans-32"/>
       <use x="63.623047" xlink:href="#DejaVuSans-31"/>
       <use x="127.246094" xlink:href="#DejaVuSans-30"/>
       <use x="190.869141" xlink:href="#DejaVuSans-30"/>
      </g>
     </g>
    </g>
    <g id="ytick_2">
     <g id="line2d_31">
      <g>
       <use style="stroke:#000000;stroke-width:0.8;" x="53.328125" xlink:href="#m995d56b951" y="202.553998"/>
      </g>
     </g>
     <g id="text_15">
      <!-- 2200 -->
      <g transform="translate(20.878125 206.353217)scale(0.1 -0.1)">
       <use xlink:href="#DejaVuSans-32"/>
       <use x="63.623047" xlink:href="#DejaVuSans-32"/>
       <use x="127.246094" xlink:href="#DejaVuSans-30"/>
       <use x="190.869141" xlink:href="#DejaVuSans-30"/>
      </g>
     </g>
    </g>
    <g id="ytick_3">
     <g id="line2d_32">
      <g>
       <use style="stroke:#000000;stroke-width:0.8;" x="53.328125" xlink:href="#m995d56b951" y="158.767573"/>
      </g>
     </g>
     <g id="text_16">
      <!-- 2300 -->
      <g transform="translate(20.878125 162.566792)scale(0.1 -0.1)">
       <use xlink:href="#DejaVuSans-32"/>
       <use x="63.623047" xlink:href="#DejaVuSans-33"/>
       <use x="127.246094" xlink:href="#DejaVuSans-30"/>
       <use x="190.869141" xlink:href="#DejaVuSans-30"/>
      </g>
     </g>
    </g>
    <g id="ytick_4">
     <g id="line2d_33">
      <g>
       <use style="stroke:#000000;stroke-width:0.8;" x="53.328125" xlink:href="#m995d56b951" y="114.981148"/>
      </g>
     </g>
     <g id="text_17">
      <!-- 2400 -->
      <g transform="translate(20.878125 118.780366)scale(0.1 -0.1)">
       <use xlink:href="#DejaVuSans-32"/>
       <use x="63.623047" xlink:href="#DejaVuSans-34"/>
       <use x="127.246094" xlink:href="#DejaVuSans-30"/>
       <use x="190.869141" xlink:href="#DejaVuSans-30"/>
      </g>
     </g>
    </g>
    <g id="ytick_5">
     <g id="line2d_34">
      <g>
       <use style="stroke:#000000;stroke-width:0.8;" x="53.328125" xlink:href="#m995d56b951" y="71.194722"/>
      </g>
     </g>
     <g id="text_18">
      <!-- 2500 -->
      <g transform="translate(20.878125 74.993941)scale(0.1 -0.1)">
       <use xlink:href="#DejaVuSans-32"/>
       <use x="63.623047" xlink:href="#DejaVuSans-35"/>
       <use x="127.246094" xlink:href="#DejaVuSans-30"/>
       <use x="190.869141" xlink:href="#DejaVuSans-30"/>
      </g>
     </g>
    </g>
    <g id="ytick_6">
     <g id="line2d_35">
      <g>
       <use style="stroke:#000000;stroke-width:0.8;" x="53.328125" xlink:href="#m995d56b951" y="27.408297"/>
      </g>
     </g>
     <g id="text_19">
      <!-- 2600 -->
      <g transform="translate(20.878125 31.207516)scale(0.1 -0.1)">
       <use xlink:href="#DejaVuSans-32"/>
       <use x="63.623047" xlink:href="#DejaVuSans-36"/>
       <use x="127.246094" xlink:href="#DejaVuSans-30"/>
       <use x="190.869141" xlink:href="#DejaVuSans-30"/>
      </g>
     </g>
    </g>
    <g id="text_20">
     <!-- Code branch coverage -->
     <g transform="translate(14.798438 211.949125)rotate(-90)scale(0.1 -0.1)">
      <defs>
       <path d="M 4122 4306 
L 4122 3641 
Q 3803 3938 3442 4084 
Q 3081 4231 2675 4231 
Q 1875 4231 1450 3742 
Q 1025 3253 1025 2328 
Q 1025 1406 1450 917 
Q 1875 428 2675 428 
Q 3081 428 3442 575 
Q 3803 722 4122 1019 
L 4122 359 
Q 3791 134 3420 21 
Q 3050 -91 2638 -91 
Q 1578 -91 968 557 
Q 359 1206 359 2328 
Q 359 3453 968 4101 
Q 1578 4750 2638 4750 
Q 3056 4750 3426 4639 
Q 3797 4528 4122 4306 
z
" id="DejaVuSans-43" transform="scale(0.015625)"/>
       <path d="M 2906 2969 
L 2906 4863 
L 3481 4863 
L 3481 0 
L 2906 0 
L 2906 525 
Q 2725 213 2448 61 
Q 2172 -91 1784 -91 
Q 1150 -91 751 415 
Q 353 922 353 1747 
Q 353 2572 751 3078 
Q 1150 3584 1784 3584 
Q 2172 3584 2448 3432 
Q 2725 3281 2906 2969 
z
M 947 1747 
Q 947 1113 1208 752 
Q 1469 391 1925 391 
Q 2381 391 2643 752 
Q 2906 1113 2906 1747 
Q 2906 2381 2643 2742 
Q 2381 3103 1925 3103 
Q 1469 3103 1208 2742 
Q 947 2381 947 1747 
z
" id="DejaVuSans-64" transform="scale(0.015625)"/>
       <path d="M 3116 1747 
Q 3116 2381 2855 2742 
Q 2594 3103 2138 3103 
Q 1681 3103 1420 2742 
Q 1159 2381 1159 1747 
Q 1159 1113 1420 752 
Q 1681 391 2138 391 
Q 2594 391 2855 752 
Q 3116 1113 3116 1747 
z
M 1159 2969 
Q 1341 3281 1617 3432 
Q 1894 3584 2278 3584 
Q 2916 3584 3314 3078 
Q 3713 2572 3713 1747 
Q 3713 922 3314 415 
Q 2916 -91 2278 -91 
Q 1894 -91 1617 61 
Q 1341 213 1159 525 
L 1159 0 
L 581 0 
L 581 4863 
L 1159 4863 
L 1159 2969 
z
" id="DejaVuSans-62" transform="scale(0.015625)"/>
       <path d="M 2194 1759 
Q 1497 1759 1228 1600 
Q 959 1441 959 1056 
Q 959 750 1161 570 
Q 1363 391 1709 391 
Q 2188 391 2477 730 
Q 2766 1069 2766 1631 
L 2766 1759 
L 2194 1759 
z
M 3341 1997 
L 3341 0 
L 2766 0 
L 2766 531 
Q 2569 213 2275 61 
Q 1981 -91 1556 -91 
Q 1019 -91 701 211 
Q 384 513 384 1019 
Q 384 1609 779 1909 
Q 1175 2209 1959 2209 
L 2766 2209 
L 2766 2266 
Q 2766 2663 2505 2880 
Q 2244 3097 1772 3097 
Q 1472 3097 1187 3025 
Q 903 2953 641 2809 
L 641 3341 
Q 956 3463 1253 3523 
Q 1550 3584 1831 3584 
Q 2591 3584 2966 3190 
Q 3341 2797 3341 1997 
z
" id="DejaVuSans-61" transform="scale(0.015625)"/>
       <path d="M 3122 3366 
L 3122 2828 
Q 2878 2963 2633 3030 
Q 2388 3097 2138 3097 
Q 1578 3097 1268 2742 
Q 959 2388 959 1747 
Q 959 1106 1268 751 
Q 1578 397 2138 397 
Q 2388 397 2633 464 
Q 2878 531 3122 666 
L 3122 134 
Q 2881 22 2623 -34 
Q 2366 -91 2075 -91 
Q 1284 -91 818 406 
Q 353 903 353 1747 
Q 353 2603 823 3093 
Q 1294 3584 2113 3584 
Q 2378 3584 2631 3529 
Q 2884 3475 3122 3366 
z
" id="DejaVuSans-63" transform="scale(0.015625)"/>
       <path d="M 191 3500 
L 800 3500 
L 1894 563 
L 2988 3500 
L 3597 3500 
L 2284 0 
L 1503 0 
L 191 3500 
z
" id="DejaVuSans-76" transform="scale(0.015625)"/>
       <path d="M 2906 1791 
Q 2906 2416 2648 2759 
Q 2391 3103 1925 3103 
Q 1463 3103 1205 2759 
Q 947 2416 947 1791 
Q 947 1169 1205 825 
Q 1463 481 1925 481 
Q 2391 481 2648 825 
Q 2906 1169 2906 1791 
z
M 3481 434 
Q 3481 -459 3084 -895 
Q 2688 -1331 1869 -1331 
Q 1566 -1331 1297 -1286 
Q 1028 -1241 775 -1147 
L 775 -588 
Q 1028 -725 1275 -790 
Q 1522 -856 1778 -856 
Q 2344 -856 2625 -561 
Q 2906 -266 2906 331 
L 2906 616 
Q 2728 306 2450 153 
Q 2172 0 1784 0 
Q 1141 0 747 490 
Q 353 981 353 1791 
Q 353 2603 747 3093 
Q 1141 3584 1784 3584 
Q 2172 3584 2450 3431 
Q 2728 3278 2906 2969 
L 2906 3500 
L 3481 3500 
L 3481 434 
z
" id="DejaVuSans-67" transform="scale(0.015625)"/>
      </defs>
      <use xlink:href="#DejaVuSans-43"/>
      <use x="69.824219" xlink:href="#DejaVuSans-6f"/>
      <use x="131.005859" xlink:href="#DejaVuSans-64"/>
      <use x="194.482422" xlink:href="#DejaVuSans-65"/>
      <use x="256.005859" xlink:href="#DejaVuSans-20"/>
      <use x="287.792969" xlink:href="#DejaVuSans-62"/>
      <use x="351.269531" xlink:href="#DejaVuSans-72"/>
      <use x="392.382812" xlink:href="#DejaVuSans-61"/>
      <use x="453.662109" xlink:href="#DejaVuSans-6e"/>
      <use x="517.041016" xlink:href="#DejaVuSans-63"/>
      <use x="572.021484" xlink:href="#DejaVuSans-68"/>
      <use x="635.400391" xlink:href="#DejaVuSans-20"/>
      <use x="667.1875" xlink:href="#DejaVuSans-63"/>
      <use x="722.167969" xlink:href="#DejaVuSans-6f"/>
      <use x="783.349609" xlink:href="#DejaVuSans-76"/>
      <use x="842.529297" xlink:href="#DejaVuSans-65"/>
      <use x="904.052734" xlink:href="#DejaVuSans-72"/>
      <use x="945.166016" xlink:href="#DejaVuSans-61"/>
      <use x="1006.445312" xlink:href="#DejaVuSans-67"/>
      <use x="1069.921875" xlink:href="#DejaVuSans-65"/>
     </g>
    </g>
   </g>
   <g id="line2d_36">
    <path clip-path="url(#p32295228ad)" d="M 85.79358 266.044315 
L 185.326487 245.464695 
L 243.549506 229.263718 
L 284.859395 212.405944 
L 316.901835 212.405944 
L 343.082414 209.559826 
L 365.217778 208.684098 
L 384.392303 206.275844 
L 401.305433 203.867591 
L 416.434742 203.210795 
L 430.120868 202.553998 
L 442.615322 201.021473 
L 454.109105 200.802541 
L 464.750686 200.802541 
L 474.657761 200.145745 
L 483.925211 199.488949 
L 492.630642 198.61322 
L 500.83834 198.61322 
L 508.602157 198.61322 
L 515.96765 198.61322 
L 522.973705 198.61322 
L 529.653776 198.61322 
L 536.036855 198.61322 
L 542.14823 198.61322 
L 548.01009 198.61322 
L 553.642013 198.61322 
L 559.061359 198.61322 
L 564.283594 198.61322 
L 569.322554 198.394288 
L 574.190669 198.394288 
L 578.899144 198.175356 
L 583.458119 197.956424 
L 587.876794 197.518559 
L 592.16355 197.299627 
L 596.326033 197.299627 
L 600.371248 197.299627 
L 604.305621 197.299627 
L 608.135065 197.299627 
L 611.865031 196.423899 
L 615.500558 196.423899 
L 619.046309 196.423899 
L 622.506613 195.767102 
L 625.885489 195.767102 
L 629.186684 195.767102 
L 632.413688 195.767102 
L 635.569763 195.767102 
L 638.65796 195.54817 
L 641.681137 195.54817 
L 644.641977 195.54817 
L 647.542997 195.54817 
L 650.386568 195.54817 
L 653.174921 195.54817 
L 655.910158 195.54817 
L 658.594267 195.54817 
L 661.229123 195.54817 
L 663.816502 195.54817 
L 666.358084 195.54817 
L 668.855462 195.54817 
L 671.310148 195.54817 
L 673.723577 195.54817 
L 676.097112 195.54817 
L 678.432052 195.54817 
L 680.729631 195.54817 
L 682.991027 195.54817 
L 685.21736 195.329238 
L 687.409702 195.329238 
L 689.569076 195.329238 
L 691.696457 195.329238 
L 693.792781 195.329238 
L 695.858941 195.329238 
L 697.895793 195.329238 
L 699.904156 195.329238 
L 701.884817 195.110306 
L 703.838529 195.110306 
L 705.766016 195.110306 
L 707.667973 195.110306 
L 709.545067 195.110306 
L 711.397939 195.110306 
L 713.227208 195.110306 
L 715.033466 195.110306 
L 716.817286 195.110306 
L 718.579217 193.796713 
L 720.319792 193.358849 
L 722.03952 193.358849 
L 723.738897 192.264188 
L 725.418397 192.264188 
L 727.078481 192.264188 
L 728.719591 187.666614 
L 730.342158 187.666614 
L 731.946595 187.666614 
L 733.533304 187.666614 
L 735.10267 187.666614 
" style="fill:none;stroke:#1f77b4;stroke-linecap:square;stroke-width:1.5;"/>
    <defs>
     <path d="M 0 3 
C 0.795609 3 1.55874 2.683901 2.12132 2.12132 
C 2.683901 1.55874 3 0.795609 3 0 
C 3 -0.795609 2.683901 -1.55874 2.12132 -2.12132 
C 1.55874 -2.683901 0.795609 -3 0 -3 
C -0.795609 -3 -1.55874 -2.683901 -2.12132 -2.12132 
C -2.683901 -1.55874 -3 -0.795609 -3 0 
C -3 0.795609 -2.683901 1.55874 -2.12132 2.12132 
C -1.55874 2.683901 -0.795609 3 0 3 
z
" id="me6d5863e72" style="stroke:#ffffff;stroke-width:0.75;"/>
    </defs>
    <g clip-path="url(#p32295228ad)">
     <use style="fill:#1f77b4;stroke:#ffffff;stroke-width:0.75;" x="85.79358" xlink:href="#me6d5863e72" y="266.044315"/>
     <use style="fill:#1f77b4;stroke:#ffffff;stroke-width:0.75;" x="185.326487" xlink:href="#me6d5863e72" y="245.464695"/>
     <use style="fill:#1f77b4;stroke:#ffffff;stroke-width:0.75;" x="243.549506" xlink:href="#me6d5863e72" y="229.263718"/>
     <use style="fill:#1f77b4;stroke:#ffffff;stroke-width:0.75;" x="284.859395" xlink:href="#me6d5863e72" y="212.405944"/>
     <use style="fill:#1f77b4;stroke:#ffffff;stroke-width:0.75;" x="316.901835" xlink:href="#me6d5863e72" y="212.405944"/>
     <use style="fill:#1f77b4;stroke:#ffffff;stroke-width:0.75;" x="343.082414" xlink:href="#me6d5863e72" y="209.559826"/>
     <use style="fill:#1f77b4;stroke:#ffffff;stroke-width:0.75;" x="365.217778" xlink:href="#me6d5863e72" y="208.684098"/>
     <use style="fill:#1f77b4;stroke:#ffffff;stroke-width:0.75;" x="384.392303" xlink:href="#me6d5863e72" y="206.275844"/>
     <use style="fill:#1f77b4;stroke:#ffffff;stroke-width:0.75;" x="401.305433" xlink:href="#me6d5863e72" y="203.867591"/>
     <use style="fill:#1f77b4;stroke:#ffffff;stroke-width:0.75;" x="416.434742" xlink:href="#me6d5863e72" y="203.210795"/>
     <use style="fill:#1f77b4;stroke:#ffffff;stroke-width:0.75;" x="430.120868" xlink:href="#me6d5863e72" y="202.553998"/>
     <use style="fill:#1f77b4;stroke:#ffffff;stroke-width:0.75;" x="442.615322" xlink:href="#me6d5863e72" y="201.021473"/>
     <use style="fill:#1f77b4;stroke:#ffffff;stroke-width:0.75;" x="454.109105" xlink:href="#me6d5863e72" y="200.802541"/>
     <use style="fill:#1f77b4;stroke:#ffffff;stroke-width:0.75;" x="464.750686" xlink:href="#me6d5863e72" y="200.802541"/>
     <use style="fill:#1f77b4;stroke:#ffffff;stroke-width:0.75;" x="474.657761" xlink:href="#me6d5863e72" y="200.145745"/>
     <use style="fill:#1f77b4;stroke:#ffffff;stroke-width:0.75;" x="483.925211" xlink:href="#me6d5863e72" y="199.488949"/>
     <use style="fill:#1f77b4;stroke:#ffffff;stroke-width:0.75;" x="492.630642" xlink:href="#me6d5863e72" y="198.61322"/>
     <use style="fill:#1f77b4;stroke:#ffffff;stroke-width:0.75;" x="500.83834" xlink:href="#me6d5863e72" y="198.61322"/>
     <use style="fill:#1f77b4;stroke:#ffffff;stroke-width:0.75;" x="508.602157" xlink:href="#me6d5863e72" y="198.61322"/>
     <use style="fill:#1f77b4;stroke:#ffffff;stroke-width:0.75;" x="515.96765" xlink:href="#me6d5863e72" y="198.61322"/>
     <use style="fill:#1f77b4;stroke:#ffffff;stroke-width:0.75;" x="522.973705" xlink:href="#me6d5863e72" y="198.61322"/>
     <use style="fill:#1f77b4;stroke:#ffffff;stroke-width:0.75;" x="529.653776" xlink:href="#me6d5863e72" y="198.61322"/>
     <use style="fill:#1f77b4;stroke:#ffffff;stroke-width:0.75;" x="536.036855" xlink:href="#me6d5863e72" y="198.61322"/>
     <use style="fill:#1f77b4;stroke:#ffffff;stroke-width:0.75;" x="542.14823" xlink:href="#me6d5863e72" y="198.61322"/>
     <use style="fill:#1f77b4;stroke:#ffffff;stroke-width:0.75;" x="548.01009" xlink:href="#me6d5863e72" y="198.61322"/>
     <use style="fill:#1f77b4;stroke:#ffffff;stroke-width:0.75;" x="553.642013" xlink:href="#me6d5863e72" y="198.61322"/>
     <use style="fill:#1f77b4;stroke:#ffffff;stroke-width:0.75;" x="559.061359" xlink:href="#me6d5863e72" y="198.61322"/>
     <use style="fill:#1f77b4;stroke:#ffffff;stroke-width:0.75;" x="564.283594" xlink:href="#me6d5863e72" y="198.61322"/>
     <use style="fill:#1f77b4;stroke:#ffffff;stroke-width:0.75;" x="569.322554" xlink:href="#me6d5863e72" y="198.394288"/>
     <use style="fill:#1f77b4;stroke:#ffffff;stroke-width:0.75;" x="574.190669" xlink:href="#me6d5863e72" y="198.394288"/>
     <use style="fill:#1f77b4;stroke:#ffffff;stroke-width:0.75;" x="578.899144" xlink:href="#me6d5863e72" y="198.175356"/>
     <use style="fill:#1f77b4;stroke:#ffffff;stroke-width:0.75;" x="583.458119" xlink:href="#me6d5863e72" y="197.956424"/>
     <use style="fill:#1f77b4;stroke:#ffffff;stroke-width:0.75;" x="587.876794" xlink:href="#me6d5863e72" y="197.518559"/>
     <use style="fill:#1f77b4;stroke:#ffffff;stroke-width:0.75;" x="592.16355" xlink:href="#me6d5863e72" y="197.299627"/>
     <use style="fill:#1f77b4;stroke:#ffffff;stroke-width:0.75;" x="596.326033" xlink:href="#me6d5863e72" y="197.299627"/>
     <use style="fill:#1f77b4;stroke:#ffffff;stroke-width:0.75;" x="600.371248" xlink:href="#me6d5863e72" y="197.299627"/>
     <use style="fill:#1f77b4;stroke:#ffffff;stroke-width:0.75;" x="604.305621" xlink:href="#me6d5863e72" y="197.299627"/>
     <use style="fill:#1f77b4;stroke:#ffffff;stroke-width:0.75;" x="608.135065" xlink:href="#me6d5863e72" y="197.299627"/>
     <use style="fill:#1f77b4;stroke:#ffffff;stroke-width:0.75;" x="611.865031" xlink:href="#me6d5863e72" y="196.423899"/>
     <use style="fill:#1f77b4;stroke:#ffffff;stroke-width:0.75;" x="615.500558" xlink:href="#me6d5863e72" y="196.423899"/>
     <use style="fill:#1f77b4;stroke:#ffffff;stroke-width:0.75;" x="619.046309" xlink:href="#me6d5863e72" y="196.423899"/>
     <use style="fill:#1f77b4;stroke:#ffffff;stroke-width:0.75;" x="622.506613" xlink:href="#me6d5863e72" y="195.767102"/>
     <use style="fill:#1f77b4;stroke:#ffffff;stroke-width:0.75;" x="625.885489" xlink:href="#me6d5863e72" y="195.767102"/>
     <use style="fill:#1f77b4;stroke:#ffffff;stroke-width:0.75;" x="629.186684" xlink:href="#me6d5863e72" y="195.767102"/>
     <use style="fill:#1f77b4;stroke:#ffffff;stroke-width:0.75;" x="632.413688" xlink:href="#me6d5863e72" y="195.767102"/>
     <use style="fill:#1f77b4;stroke:#ffffff;stroke-width:0.75;" x="635.569763" xlink:href="#me6d5863e72" y="195.767102"/>
     <use style="fill:#1f77b4;stroke:#ffffff;stroke-width:0.75;" x="638.65796" xlink:href="#me6d5863e72" y="195.54817"/>
     <use style="fill:#1f77b4;stroke:#ffffff;stroke-width:0.75;" x="641.681137" xlink:href="#me6d5863e72" y="195.54817"/>
     <use style="fill:#1f77b4;stroke:#ffffff;stroke-width:0.75;" x="644.641977" xlink:href="#me6d5863e72" y="195.54817"/>
     <use style="fill:#1f77b4;stroke:#ffffff;stroke-width:0.75;" x="647.542997" xlink:href="#me6d5863e72" y="195.54817"/>
     <use style="fill:#1f77b4;stroke:#ffffff;stroke-width:0.75;" x="650.386568" xlink:href="#me6d5863e72" y="195.54817"/>
     <use style="fill:#1f77b4;stroke:#ffffff;stroke-width:0.75;" x="653.174921" xlink:href="#me6d5863e72" y="195.54817"/>
     <use style="fill:#1f77b4;stroke:#ffffff;stroke-width:0.75;" x="655.910158" xlink:href="#me6d5863e72" y="195.54817"/>
     <use style="fill:#1f77b4;stroke:#ffffff;stroke-width:0.75;" x="658.594267" xlink:href="#me6d5863e72" y="195.54817"/>
     <use style="fill:#1f77b4;stroke:#ffffff;stroke-width:0.75;" x="661.229123" xlink:href="#me6d5863e72" y="195.54817"/>
     <use style="fill:#1f77b4;stroke:#ffffff;stroke-width:0.75;" x="663.816502" xlink:href="#me6d5863e72" y="195.54817"/>
     <use style="fill:#1f77b4;stroke:#ffffff;stroke-width:0.75;" x="666.358084" xlink:href="#me6d5863e72" y="195.54817"/>
     <use style="fill:#1f77b4;stroke:#ffffff;stroke-width:0.75;" x="668.855462" xlink:href="#me6d5863e72" y="195.54817"/>
     <use style="fill:#1f77b4;stroke:#ffffff;stroke-width:0.75;" x="671.310148" xlink:href="#me6d5863e72" y="195.54817"/>
     <use style="fill:#1f77b4;stroke:#ffffff;stroke-width:0.75;" x="673.723577" xlink:href="#me6d5863e72" y="195.54817"/>
     <use style="fill:#1f77b4;stroke:#ffffff;stroke-width:0.75;" x="676.097112" xlink:href="#me6d5863e72" y="195.54817"/>
     <use style="fill:#1f77b4;stroke:#ffffff;stroke-width:0.75;" x="678.432052" xlink:href="#me6d5863e72" y="195.54817"/>
     <use style="fill:#1f77b4;stroke:#ffffff;stroke-width:0.75;" x="680.729631" xlink:href="#me6d5863e72" y="195.54817"/>
     <use style="fill:#1f77b4;stroke:#ffffff;stroke-width:0.75;" x="682.991027" xlink:href="#me6d5863e72" y="195.54817"/>
     <use style="fill:#1f77b4;stroke:#ffffff;stroke-width:0.75;" x="685.21736" xlink:href="#me6d5863e72" y="195.329238"/>
     <use style="fill:#1f77b4;stroke:#ffffff;stroke-width:0.75;" x="687.409702" xlink:href="#me6d5863e72" y="195.329238"/>
     <use style="fill:#1f77b4;stroke:#ffffff;stroke-width:0.75;" x="689.569076" xlink:href="#me6d5863e72" y="195.329238"/>
     <use style="fill:#1f77b4;stroke:#ffffff;stroke-width:0.75;" x="691.696457" xlink:href="#me6d5863e72" y="195.329238"/>
     <use style="fill:#1f77b4;stroke:#ffffff;stroke-width:0.75;" x="693.792781" xlink:href="#me6d5863e72" y="195.329238"/>
     <use style="fill:#1f77b4;stroke:#ffffff;stroke-width:0.75;" x="695.858941" xlink:href="#me6d5863e72" y="195.329238"/>
     <use style="fill:#1f77b4;stroke:#ffffff;stroke-width:0.75;" x="697.895793" xlink:href="#me6d5863e72" y="195.329238"/>
     <use style="fill:#1f77b4;stroke:#ffffff;stroke-width:0.75;" x="699.904156" xlink:href="#me6d5863e72" y="195.329238"/>
     <use style="fill:#1f77b4;stroke:#ffffff;stroke-width:0.75;" x="701.884817" xlink:href="#me6d5863e72" y="195.110306"/>
     <use style="fill:#1f77b4;stroke:#ffffff;stroke-width:0.75;" x="703.838529" xlink:href="#me6d5863e72" y="195.110306"/>
     <use style="fill:#1f77b4;stroke:#ffffff;stroke-width:0.75;" x="705.766016" xlink:href="#me6d5863e72" y="195.110306"/>
     <use style="fill:#1f77b4;stroke:#ffffff;stroke-width:0.75;" x="707.667973" xlink:href="#me6d5863e72" y="195.110306"/>
     <use style="fill:#1f77b4;stroke:#ffffff;stroke-width:0.75;" x="709.545067" xlink:href="#me6d5863e72" y="195.110306"/>
     <use style="fill:#1f77b4;stroke:#ffffff;stroke-width:0.75;" x="711.397939" xlink:href="#me6d5863e72" y="195.110306"/>
     <use style="fill:#1f77b4;stroke:#ffffff;stroke-width:0.75;" x="713.227208" xlink:href="#me6d5863e72" y="195.110306"/>
     <use style="fill:#1f77b4;stroke:#ffffff;stroke-width:0.75;" x="715.033466" xlink:href="#me6d5863e72" y="195.110306"/>
     <use style="fill:#1f77b4;stroke:#ffffff;stroke-width:0.75;" x="716.817286" xlink:href="#me6d5863e72" y="195.110306"/>
     <use style="fill:#1f77b4;stroke:#ffffff;stroke-width:0.75;" x="718.579217" xlink:href="#me6d5863e72" y="193.796713"/>
     <use style="fill:#1f77b4;stroke:#ffffff;stroke-width:0.75;" x="720.319792" xlink:href="#me6d5863e72" y="193.358849"/>
     <use style="fill:#1f77b4;stroke:#ffffff;stroke-width:0.75;" x="722.03952" xlink:href="#me6d5863e72" y="193.358849"/>
     <use style="fill:#1f77b4;stroke:#ffffff;stroke-width:0.75;" x="723.738897" xlink:href="#me6d5863e72" y="192.264188"/>
     <use style="fill:#1f77b4;stroke:#ffffff;stroke-width:0.75;" x="725.418397" xlink:href="#me6d5863e72" y="192.264188"/>
     <use style="fill:#1f77b4;stroke:#ffffff;stroke-width:0.75;" x="727.078481" xlink:href="#me6d5863e72" y="192.264188"/>
     <use style="fill:#1f77b4;stroke:#ffffff;stroke-width:0.75;" x="728.719591" xlink:href="#me6d5863e72" y="187.666614"/>
     <use style="fill:#1f77b4;stroke:#ffffff;stroke-width:0.75;" x="730.342158" xlink:href="#me6d5863e72" y="187.666614"/>
     <use style="fill:#1f77b4;stroke:#ffffff;stroke-width:0.75;" x="731.946595" xlink:href="#me6d5863e72" y="187.666614"/>
     <use style="fill:#1f77b4;stroke:#ffffff;stroke-width:0.75;" x="733.533304" xlink:href="#me6d5863e72" y="187.666614"/>
     <use style="fill:#1f77b4;stroke:#ffffff;stroke-width:0.75;" x="735.10267" xlink:href="#me6d5863e72" y="187.666614"/>
    </g>
   </g>
   <g id="line2d_37">
    <path clip-path="url(#p32295228ad)" d="M 85.79358 257.724894 
L 185.326487 247.872949 
L 243.549506 226.855464 
L 284.859395 220.068568 
L 316.901835 210.216623 
L 343.082414 209.559826 
L 365.217778 207.808369 
L 384.392303 204.962252 
L 401.305433 204.962252 
L 416.434742 204.962252 
L 430.120868 204.962252 
L 442.615322 203.429727 
L 454.109105 202.335066 
L 464.750686 201.240406 
L 474.657761 200.583609 
L 483.925211 200.364677 
L 492.630642 200.145745 
L 500.83834 199.926813 
L 508.602157 199.270016 
L 515.96765 198.832152 
L 522.973705 198.61322 
L 529.653776 198.394288 
L 536.036855 198.175356 
L 542.14823 198.175356 
L 548.01009 197.956424 
L 553.642013 197.737492 
L 559.061359 197.080695 
L 564.283594 197.080695 
L 569.322554 197.080695 
L 574.190669 197.080695 
L 578.899144 197.080695 
L 583.458119 197.080695 
L 587.876794 197.080695 
L 592.16355 197.080695 
L 596.326033 197.080695 
L 600.371248 197.080695 
L 604.305621 196.861763 
L 608.135065 196.861763 
L 611.865031 196.861763 
L 615.500558 196.861763 
L 619.046309 196.642831 
L 622.506613 196.642831 
L 625.885489 196.423899 
L 629.186684 196.423899 
L 632.413688 196.423899 
L 635.569763 196.423899 
L 638.65796 196.423899 
L 641.681137 196.204967 
L 644.641977 196.204967 
L 647.542997 196.204967 
L 650.386568 196.204967 
L 653.174921 196.204967 
L 655.910158 196.204967 
L 658.594267 196.204967 
L 661.229123 196.204967 
L 663.816502 195.54817 
L 666.358084 195.54817 
L 668.855462 192.48312 
L 671.310148 192.48312 
L 673.723577 192.48312 
L 676.097112 192.48312 
L 678.432052 192.48312 
L 680.729631 192.48312 
L 682.991027 192.48312 
L 685.21736 192.48312 
L 687.409702 192.48312 
L 689.569076 192.48312 
L 691.696457 192.48312 
L 693.792781 192.48312 
L 695.858941 192.48312 
L 697.895793 192.48312 
L 699.904156 189.637003 
L 701.884817 189.637003 
L 703.838529 189.637003 
L 705.766016 189.637003 
L 707.667973 188.761274 
L 709.545067 188.761274 
L 711.397939 188.761274 
L 713.227208 188.761274 
L 715.033466 188.761274 
L 716.817286 188.761274 
L 718.579217 188.761274 
L 720.319792 188.761274 
L 722.03952 188.761274 
L 723.738897 188.761274 
L 725.418397 188.761274 
L 727.078481 188.761274 
L 728.719591 188.761274 
L 730.342158 188.761274 
L 731.946595 188.761274 
L 733.533304 188.761274 
L 735.10267 188.761274 
" style="fill:none;stroke:#98df8a;stroke-linecap:square;stroke-width:1.5;"/>
    <defs>
     <path d="M -0 3 
L 3 -3 
L -3 -3 
z
" id="me4ad0eb005" style="stroke:#ffffff;stroke-linejoin:miter;stroke-width:0.75;"/>
    </defs>
    <g clip-path="url(#p32295228ad)">
     <use style="fill:#98df8a;stroke:#ffffff;stroke-linejoin:miter;stroke-width:0.75;" x="85.79358" xlink:href="#me4ad0eb005" y="257.724894"/>
     <use style="fill:#98df8a;stroke:#ffffff;stroke-linejoin:miter;stroke-width:0.75;" x="185.326487" xlink:href="#me4ad0eb005" y="247.872949"/>
     <use style="fill:#98df8a;stroke:#ffffff;stroke-linejoin:miter;stroke-width:0.75;" x="243.549506" xlink:href="#me4ad0eb005" y="226.855464"/>
     <use style="fill:#98df8a;stroke:#ffffff;stroke-linejoin:miter;stroke-width:0.75;" x="284.859395" xlink:href="#me4ad0eb005" y="220.068568"/>
     <use style="fill:#98df8a;stroke:#ffffff;stroke-linejoin:miter;stroke-width:0.75;" x="316.901835" xlink:href="#me4ad0eb005" y="210.216623"/>
     <use style="fill:#98df8a;stroke:#ffffff;stroke-linejoin:miter;stroke-width:0.75;" x="343.082414" xlink:href="#me4ad0eb005" y="209.559826"/>
     <use style="fill:#98df8a;stroke:#ffffff;stroke-linejoin:miter;stroke-width:0.75;" x="365.217778" xlink:href="#me4ad0eb005" y="207.808369"/>
     <use style="fill:#98df8a;stroke:#ffffff;stroke-linejoin:miter;stroke-width:0.75;" x="384.392303" xlink:href="#me4ad0eb005" y="204.962252"/>
     <use style="fill:#98df8a;stroke:#ffffff;stroke-linejoin:miter;stroke-width:0.75;" x="401.305433" xlink:href="#me4ad0eb005" y="204.962252"/>
     <use style="fill:#98df8a;stroke:#ffffff;stroke-linejoin:miter;stroke-width:0.75;" x="416.434742" xlink:href="#me4ad0eb005" y="204.962252"/>
     <use style="fill:#98df8a;stroke:#ffffff;stroke-linejoin:miter;stroke-width:0.75;" x="430.120868" xlink:href="#me4ad0eb005" y="204.962252"/>
     <use style="fill:#98df8a;stroke:#ffffff;stroke-linejoin:miter;stroke-width:0.75;" x="442.615322" xlink:href="#me4ad0eb005" y="203.429727"/>
     <use style="fill:#98df8a;stroke:#ffffff;stroke-linejoin:miter;stroke-width:0.75;" x="454.109105" xlink:href="#me4ad0eb005" y="202.335066"/>
     <use style="fill:#98df8a;stroke:#ffffff;stroke-linejoin:miter;stroke-width:0.75;" x="464.750686" xlink:href="#me4ad0eb005" y="201.240406"/>
     <use style="fill:#98df8a;stroke:#ffffff;stroke-linejoin:miter;stroke-width:0.75;" x="474.657761" xlink:href="#me4ad0eb005" y="200.583609"/>
     <use style="fill:#98df8a;stroke:#ffffff;stroke-linejoin:miter;stroke-width:0.75;" x="483.925211" xlink:href="#me4ad0eb005" y="200.364677"/>
     <use style="fill:#98df8a;stroke:#ffffff;stroke-linejoin:miter;stroke-width:0.75;" x="492.630642" xlink:href="#me4ad0eb005" y="200.145745"/>
     <use style="fill:#98df8a;stroke:#ffffff;stroke-linejoin:miter;stroke-width:0.75;" x="500.83834" xlink:href="#me4ad0eb005" y="199.926813"/>
     <use style="fill:#98df8a;stroke:#ffffff;stroke-linejoin:miter;stroke-width:0.75;" x="508.602157" xlink:href="#me4ad0eb005" y="199.270016"/>
     <use style="fill:#98df8a;stroke:#ffffff;stroke-linejoin:miter;stroke-width:0.75;" x="515.96765" xlink:href="#me4ad0eb005" y="198.832152"/>
     <use style="fill:#98df8a;stroke:#ffffff;stroke-linejoin:miter;stroke-width:0.75;" x="522.973705" xlink:href="#me4ad0eb005" y="198.61322"/>
     <use style="fill:#98df8a;stroke:#ffffff;stroke-linejoin:miter;stroke-width:0.75;" x="529.653776" xlink:href="#me4ad0eb005" y="198.394288"/>
     <use style="fill:#98df8a;stroke:#ffffff;stroke-linejoin:miter;stroke-width:0.75;" x="536.036855" xlink:href="#me4ad0eb005" y="198.175356"/>
     <use style="fill:#98df8a;stroke:#ffffff;stroke-linejoin:miter;stroke-width:0.75;" x="542.14823" xlink:href="#me4ad0eb005" y="198.175356"/>
     <use style="fill:#98df8a;stroke:#ffffff;stroke-linejoin:miter;stroke-width:0.75;" x="548.01009" xlink:href="#me4ad0eb005" y="197.956424"/>
     <use style="fill:#98df8a;stroke:#ffffff;stroke-linejoin:miter;stroke-width:0.75;" x="553.642013" xlink:href="#me4ad0eb005" y="197.737492"/>
     <use style="fill:#98df8a;stroke:#ffffff;stroke-linejoin:miter;stroke-width:0.75;" x="559.061359" xlink:href="#me4ad0eb005" y="197.080695"/>
     <use style="fill:#98df8a;stroke:#ffffff;stroke-linejoin:miter;stroke-width:0.75;" x="564.283594" xlink:href="#me4ad0eb005" y="197.080695"/>
     <use style="fill:#98df8a;stroke:#ffffff;stroke-linejoin:miter;stroke-width:0.75;" x="569.322554" xlink:href="#me4ad0eb005" y="197.080695"/>
     <use style="fill:#98df8a;stroke:#ffffff;stroke-linejoin:miter;stroke-width:0.75;" x="574.190669" xlink:href="#me4ad0eb005" y="197.080695"/>
     <use style="fill:#98df8a;stroke:#ffffff;stroke-linejoin:miter;stroke-width:0.75;" x="578.899144" xlink:href="#me4ad0eb005" y="197.080695"/>
     <use style="fill:#98df8a;stroke:#ffffff;stroke-linejoin:miter;stroke-width:0.75;" x="583.458119" xlink:href="#me4ad0eb005" y="197.080695"/>
     <use style="fill:#98df8a;stroke:#ffffff;stroke-linejoin:miter;stroke-width:0.75;" x="587.876794" xlink:href="#me4ad0eb005" y="197.080695"/>
     <use style="fill:#98df8a;stroke:#ffffff;stroke-linejoin:miter;stroke-width:0.75;" x="592.16355" xlink:href="#me4ad0eb005" y="197.080695"/>
     <use style="fill:#98df8a;stroke:#ffffff;stroke-linejoin:miter;stroke-width:0.75;" x="596.326033" xlink:href="#me4ad0eb005" y="197.080695"/>
     <use style="fill:#98df8a;stroke:#ffffff;stroke-linejoin:miter;stroke-width:0.75;" x="600.371248" xlink:href="#me4ad0eb005" y="197.080695"/>
     <use style="fill:#98df8a;stroke:#ffffff;stroke-linejoin:miter;stroke-width:0.75;" x="604.305621" xlink:href="#me4ad0eb005" y="196.861763"/>
     <use style="fill:#98df8a;stroke:#ffffff;stroke-linejoin:miter;stroke-width:0.75;" x="608.135065" xlink:href="#me4ad0eb005" y="196.861763"/>
     <use style="fill:#98df8a;stroke:#ffffff;stroke-linejoin:miter;stroke-width:0.75;" x="611.865031" xlink:href="#me4ad0eb005" y="196.861763"/>
     <use style="fill:#98df8a;stroke:#ffffff;stroke-linejoin:miter;stroke-width:0.75;" x="615.500558" xlink:href="#me4ad0eb005" y="196.861763"/>
     <use style="fill:#98df8a;stroke:#ffffff;stroke-linejoin:miter;stroke-width:0.75;" x="619.046309" xlink:href="#me4ad0eb005" y="196.642831"/>
     <use style="fill:#98df8a;stroke:#ffffff;stroke-linejoin:miter;stroke-width:0.75;" x="622.506613" xlink:href="#me4ad0eb005" y="196.642831"/>
     <use style="fill:#98df8a;stroke:#ffffff;stroke-linejoin:miter;stroke-width:0.75;" x="625.885489" xlink:href="#me4ad0eb005" y="196.423899"/>
     <use style="fill:#98df8a;stroke:#ffffff;stroke-linejoin:miter;stroke-width:0.75;" x="629.186684" xlink:href="#me4ad0eb005" y="196.423899"/>
     <use style="fill:#98df8a;stroke:#ffffff;stroke-linejoin:miter;stroke-width:0.75;" x="632.413688" xlink:href="#me4ad0eb005" y="196.423899"/>
     <use style="fill:#98df8a;stroke:#ffffff;stroke-linejoin:miter;stroke-width:0.75;" x="635.569763" xlink:href="#me4ad0eb005" y="196.423899"/>
     <use style="fill:#98df8a;stroke:#ffffff;stroke-linejoin:miter;stroke-width:0.75;" x="638.65796" xlink:href="#me4ad0eb005" y="196.423899"/>
     <use style="fill:#98df8a;stroke:#ffffff;stroke-linejoin:miter;stroke-width:0.75;" x="641.681137" xlink:href="#me4ad0eb005" y="196.204967"/>
     <use style="fill:#98df8a;stroke:#ffffff;stroke-linejoin:miter;stroke-width:0.75;" x="644.641977" xlink:href="#me4ad0eb005" y="196.204967"/>
     <use style="fill:#98df8a;stroke:#ffffff;stroke-linejoin:miter;stroke-width:0.75;" x="647.542997" xlink:href="#me4ad0eb005" y="196.204967"/>
     <use style="fill:#98df8a;stroke:#ffffff;stroke-linejoin:miter;stroke-width:0.75;" x="650.386568" xlink:href="#me4ad0eb005" y="196.204967"/>
     <use style="fill:#98df8a;stroke:#ffffff;stroke-linejoin:miter;stroke-width:0.75;" x="653.174921" xlink:href="#me4ad0eb005" y="196.204967"/>
     <use style="fill:#98df8a;stroke:#ffffff;stroke-linejoin:miter;stroke-width:0.75;" x="655.910158" xlink:href="#me4ad0eb005" y="196.204967"/>
     <use style="fill:#98df8a;stroke:#ffffff;stroke-linejoin:miter;stroke-width:0.75;" x="658.594267" xlink:href="#me4ad0eb005" y="196.204967"/>
     <use style="fill:#98df8a;stroke:#ffffff;stroke-linejoin:miter;stroke-width:0.75;" x="661.229123" xlink:href="#me4ad0eb005" y="196.204967"/>
     <use style="fill:#98df8a;stroke:#ffffff;stroke-linejoin:miter;stroke-width:0.75;" x="663.816502" xlink:href="#me4ad0eb005" y="195.54817"/>
     <use style="fill:#98df8a;stroke:#ffffff;stroke-linejoin:miter;stroke-width:0.75;" x="666.358084" xlink:href="#me4ad0eb005" y="195.54817"/>
     <use style="fill:#98df8a;stroke:#ffffff;stroke-linejoin:miter;stroke-width:0.75;" x="668.855462" xlink:href="#me4ad0eb005" y="192.48312"/>
     <use style="fill:#98df8a;stroke:#ffffff;stroke-linejoin:miter;stroke-width:0.75;" x="671.310148" xlink:href="#me4ad0eb005" y="192.48312"/>
     <use style="fill:#98df8a;stroke:#ffffff;stroke-linejoin:miter;stroke-width:0.75;" x="673.723577" xlink:href="#me4ad0eb005" y="192.48312"/>
     <use style="fill:#98df8a;stroke:#ffffff;stroke-linejoin:miter;stroke-width:0.75;" x="676.097112" xlink:href="#me4ad0eb005" y="192.48312"/>
     <use style="fill:#98df8a;stroke:#ffffff;stroke-linejoin:miter;stroke-width:0.75;" x="678.432052" xlink:href="#me4ad0eb005" y="192.48312"/>
     <use style="fill:#98df8a;stroke:#ffffff;stroke-linejoin:miter;stroke-width:0.75;" x="680.729631" xlink:href="#me4ad0eb005" y="192.48312"/>
     <use style="fill:#98df8a;stroke:#ffffff;stroke-linejoin:miter;stroke-width:0.75;" x="682.991027" xlink:href="#me4ad0eb005" y="192.48312"/>
     <use style="fill:#98df8a;stroke:#ffffff;stroke-linejoin:miter;stroke-width:0.75;" x="685.21736" xlink:href="#me4ad0eb005" y="192.48312"/>
     <use style="fill:#98df8a;stroke:#ffffff;stroke-linejoin:miter;stroke-width:0.75;" x="687.409702" xlink:href="#me4ad0eb005" y="192.48312"/>
     <use style="fill:#98df8a;stroke:#ffffff;stroke-linejoin:miter;stroke-width:0.75;" x="689.569076" xlink:href="#me4ad0eb005" y="192.48312"/>
     <use style="fill:#98df8a;stroke:#ffffff;stroke-linejoin:miter;stroke-width:0.75;" x="691.696457" xlink:href="#me4ad0eb005" y="192.48312"/>
     <use style="fill:#98df8a;stroke:#ffffff;stroke-linejoin:miter;stroke-width:0.75;" x="693.792781" xlink:href="#me4ad0eb005" y="192.48312"/>
     <use style="fill:#98df8a;stroke:#ffffff;stroke-linejoin:miter;stroke-width:0.75;" x="695.858941" xlink:href="#me4ad0eb005" y="192.48312"/>
     <use style="fill:#98df8a;stroke:#ffffff;stroke-linejoin:miter;stroke-width:0.75;" x="697.895793" xlink:href="#me4ad0eb005" y="192.48312"/>
     <use style="fill:#98df8a;stroke:#ffffff;stroke-linejoin:miter;stroke-width:0.75;" x="699.904156" xlink:href="#me4ad0eb005" y="189.637003"/>
     <use style="fill:#98df8a;stroke:#ffffff;stroke-linejoin:miter;stroke-width:0.75;" x="701.884817" xlink:href="#me4ad0eb005" y="189.637003"/>
     <use style="fill:#98df8a;stroke:#ffffff;stroke-linejoin:miter;stroke-width:0.75;" x="703.838529" xlink:href="#me4ad0eb005" y="189.637003"/>
     <use style="fill:#98df8a;stroke:#ffffff;stroke-linejoin:miter;stroke-width:0.75;" x="705.766016" xlink:href="#me4ad0eb005" y="189.637003"/>
     <use style="fill:#98df8a;stroke:#ffffff;stroke-linejoin:miter;stroke-width:0.75;" x="707.667973" xlink:href="#me4ad0eb005" y="188.761274"/>
     <use style="fill:#98df8a;stroke:#ffffff;stroke-linejoin:miter;stroke-width:0.75;" x="709.545067" xlink:href="#me4ad0eb005" y="188.761274"/>
     <use style="fill:#98df8a;stroke:#ffffff;stroke-linejoin:miter;stroke-width:0.75;" x="711.397939" xlink:href="#me4ad0eb005" y="188.761274"/>
     <use style="fill:#98df8a;stroke:#ffffff;stroke-linejoin:miter;stroke-width:0.75;" x="713.227208" xlink:href="#me4ad0eb005" y="188.761274"/>
     <use style="fill:#98df8a;stroke:#ffffff;stroke-linejoin:miter;stroke-width:0.75;" x="715.033466" xlink:href="#me4ad0eb005" y="188.761274"/>
     <use style="fill:#98df8a;stroke:#ffffff;stroke-linejoin:miter;stroke-width:0.75;" x="716.817286" xlink:href="#me4ad0eb005" y="188.761274"/>
     <use style="fill:#98df8a;stroke:#ffffff;stroke-linejoin:miter;stroke-width:0.75;" x="718.579217" xlink:href="#me4ad0eb005" y="188.761274"/>
     <use style="fill:#98df8a;stroke:#ffffff;stroke-linejoin:miter;stroke-width:0.75;" x="720.319792" xlink:href="#me4ad0eb005" y="188.761274"/>
     <use style="fill:#98df8a;stroke:#ffffff;stroke-linejoin:miter;stroke-width:0.75;" x="722.03952" xlink:href="#me4ad0eb005" y="188.761274"/>
     <use style="fill:#98df8a;stroke:#ffffff;stroke-linejoin:miter;stroke-width:0.75;" x="723.738897" xlink:href="#me4ad0eb005" y="188.761274"/>
     <use style="fill:#98df8a;stroke:#ffffff;stroke-linejoin:miter;stroke-width:0.75;" x="725.418397" xlink:href="#me4ad0eb005" y="188.761274"/>
     <use style="fill:#98df8a;stroke:#ffffff;stroke-linejoin:miter;stroke-width:0.75;" x="727.078481" xlink:href="#me4ad0eb005" y="188.761274"/>
     <use style="fill:#98df8a;stroke:#ffffff;stroke-linejoin:miter;stroke-width:0.75;" x="728.719591" xlink:href="#me4ad0eb005" y="188.761274"/>
     <use style="fill:#98df8a;stroke:#ffffff;stroke-linejoin:miter;stroke-width:0.75;" x="730.342158" xlink:href="#me4ad0eb005" y="188.761274"/>
     <use style="fill:#98df8a;stroke:#ffffff;stroke-linejoin:miter;stroke-width:0.75;" x="731.946595" xlink:href="#me4ad0eb005" y="188.761274"/>
     <use style="fill:#98df8a;stroke:#ffffff;stroke-linejoin:miter;stroke-width:0.75;" x="733.533304" xlink:href="#me4ad0eb005" y="188.761274"/>
     <use style="fill:#98df8a;stroke:#ffffff;stroke-linejoin:miter;stroke-width:0.75;" x="735.10267" xlink:href="#me4ad0eb005" y="188.761274"/>
    </g>
   </g>
   <g id="line2d_38"/>
   <g id="line2d_39"/>
   <g id="line2d_40">
    <path clip-path="url(#p32295228ad)" d="M 735.10267 288.430125 
L 735.10267 22.318125 
" style="fill:none;stroke:#ff0000;stroke-linecap:square;stroke-width:1.5;"/>
   </g>
   <g id="patch_3">
    <path d="M 53.328125 246.340424 
L 53.328125 27.408297 
" style="fill:none;stroke:#000000;stroke-linecap:square;stroke-linejoin:miter;stroke-width:0.8;"/>
   </g>
   <g id="patch_4">
    <path d="M 85.79358 288.430125 
L 735.104405 288.430125 
" style="fill:none;stroke:#000000;stroke-linecap:square;stroke-linejoin:miter;stroke-width:0.8;"/>
   </g>
   <g id="text_21">
    <!-- openthread-2019-12-23 (23h, 10 trials/fuzzer) -->
    <g transform="translate(272.045938 16.318125)scale(0.12 -0.12)">
     <defs>
      <path d="M 1159 525 
L 1159 -1331 
L 581 -1331 
L 581 3500 
L 1159 3500 
L 1159 2969 
Q 1341 3281 1617 3432 
Q 1894 3584 2278 3584 
Q 2916 3584 3314 3078 
Q 3713 2572 3713 1747 
Q 3713 922 3314 415 
Q 2916 -91 2278 -91 
Q 1894 -91 1617 61 
Q 1341 213 1159 525 
z
M 3116 1747 
Q 3116 2381 2855 2742 
Q 2594 3103 2138 3103 
Q 1681 3103 1420 2742 
Q 1159 2381 1159 1747 
Q 1159 1113 1420 752 
Q 1681 391 2138 391 
Q 2594 391 2855 752 
Q 3116 1113 3116 1747 
z
" id="DejaVuSans-70" transform="scale(0.015625)"/>
      <path d="M 313 2009 
L 1997 2009 
L 1997 1497 
L 313 1497 
L 313 2009 
z
" id="DejaVuSans-2d" transform="scale(0.015625)"/>
      <path d="M 703 97 
L 703 672 
Q 941 559 1184 500 
Q 1428 441 1663 441 
Q 2288 441 2617 861 
Q 2947 1281 2994 2138 
Q 2813 1869 2534 1725 
Q 2256 1581 1919 1581 
Q 1219 1581 811 2004 
Q 403 2428 403 3163 
Q 403 3881 828 4315 
Q 1253 4750 1959 4750 
Q 2769 4750 3195 4129 
Q 3622 3509 3622 2328 
Q 3622 1225 3098 567 
Q 2575 -91 1691 -91 
Q 1453 -91 1209 -44 
Q 966 3 703 97 
z
M 1959 2075 
Q 2384 2075 2632 2365 
Q 2881 2656 2881 3163 
Q 2881 3666 2632 3958 
Q 2384 4250 1959 4250 
Q 1534 4250 1286 3958 
Q 1038 3666 1038 3163 
Q 1038 2656 1286 2365 
Q 1534 2075 1959 2075 
z
" id="DejaVuSans-39" transform="scale(0.015625)"/>
      <path d="M 750 794 
L 1409 794 
L 1409 256 
L 897 -744 
L 494 -744 
L 750 256 
L 750 794 
z
" id="DejaVuSans-2c" transform="scale(0.015625)"/>
      <path d="M 603 4863 
L 1178 4863 
L 1178 0 
L 603 0 
L 603 4863 
z
" id="DejaVuSans-6c" transform="scale(0.015625)"/>
      <path d="M 2834 3397 
L 2834 2853 
Q 2591 2978 2328 3040 
Q 2066 3103 1784 3103 
Q 1356 3103 1142 2972 
Q 928 2841 928 2578 
Q 928 2378 1081 2264 
Q 1234 2150 1697 2047 
L 1894 2003 
Q 2506 1872 2764 1633 
Q 3022 1394 3022 966 
Q 3022 478 2636 193 
Q 2250 -91 1575 -91 
Q 1294 -91 989 -36 
Q 684 19 347 128 
L 347 722 
Q 666 556 975 473 
Q 1284 391 1588 391 
Q 1994 391 2212 530 
Q 2431 669 2431 922 
Q 2431 1156 2273 1281 
Q 2116 1406 1581 1522 
L 1381 1569 
Q 847 1681 609 1914 
Q 372 2147 372 2553 
Q 372 3047 722 3315 
Q 1072 3584 1716 3584 
Q 2034 3584 2315 3537 
Q 2597 3491 2834 3397 
z
" id="DejaVuSans-73" transform="scale(0.015625)"/>
      <path d="M 1625 4666 
L 2156 4666 
L 531 -594 
L 0 -594 
L 1625 4666 
z
" id="DejaVuSans-2f" transform="scale(0.015625)"/>
      <path d="M 2375 4863 
L 2375 4384 
L 1825 4384 
Q 1516 4384 1395 4259 
Q 1275 4134 1275 3809 
L 1275 3500 
L 2222 3500 
L 2222 3053 
L 1275 3053 
L 1275 0 
L 697 0 
L 697 3053 
L 147 3053 
L 147 3500 
L 697 3500 
L 697 3744 
Q 697 4328 969 4595 
Q 1241 4863 1831 4863 
L 2375 4863 
z
" id="DejaVuSans-66" transform="scale(0.015625)"/>
      <path d="M 353 3500 
L 3084 3500 
L 3084 2975 
L 922 459 
L 3084 459 
L 3084 0 
L 275 0 
L 275 525 
L 2438 3041 
L 353 3041 
L 353 3500 
z
" id="DejaVuSans-7a" transform="scale(0.015625)"/>
     </defs>
     <use xlink:href="#DejaVuSans-6f"/>
     <use x="61.181641" xlink:href="#DejaVuSans-70"/>
     <use x="124.658203" xlink:href="#DejaVuSans-65"/>
     <use x="186.181641" xlink:href="#DejaVuSans-6e"/>
     <use x="249.560547" xlink:href="#DejaVuSans-74"/>
     <use x="288.769531" xlink:href="#DejaVuSans-68"/>
     <use x="352.148438" xlink:href="#DejaVuSans-72"/>
     <use x="391.011719" xlink:href="#DejaVuSans-65"/>
     <use x="452.535156" xlink:href="#DejaVuSans-61"/>
     <use x="513.814453" xlink:href="#DejaVuSans-64"/>
     <use x="577.291016" xlink:href="#DejaVuSans-2d"/>
     <use x="613.375" xlink:href="#DejaVuSans-32"/>
     <use x="676.998047" xlink:href="#DejaVuSans-30"/>
     <use x="740.621094" xlink:href="#DejaVuSans-31"/>
     <use x="804.244141" xlink:href="#DejaVuSans-39"/>
     <use x="867.867188" xlink:href="#DejaVuSans-2d"/>
     <use x="903.951172" xlink:href="#DejaVuSans-31"/>
     <use x="967.574219" xlink:href="#DejaVuSans-32"/>
     <use x="1031.197266" xlink:href="#DejaVuSans-2d"/>
     <use x="1067.28125" xlink:href="#DejaVuSans-32"/>
     <use x="1130.904297" xlink:href="#DejaVuSans-33"/>
     <use x="1194.527344" xlink:href="#DejaVuSans-20"/>
     <use x="1226.314453" xlink:href="#DejaVuSans-28"/>
     <use x="1265.328125" xlink:href="#DejaVuSans-32"/>
     <use x="1328.951172" xlink:href="#DejaVuSans-33"/>
     <use x="1392.574219" xlink:href="#DejaVuSans-68"/>
     <use x="1455.953125" xlink:href="#DejaVuSans-2c"/>
     <use x="1487.740234" xlink:href="#DejaVuSans-20"/>
     <use x="1519.527344" xlink:href="#DejaVuSans-31"/>
     <use x="1583.150391" xlink:href="#DejaVuSans-30"/>
     <use x="1646.773438" xlink:href="#DejaVuSans-20"/>
     <use x="1678.560547" xlink:href="#DejaVuSans-74"/>
     <use x="1717.769531" xlink:href="#DejaVuSans-72"/>
     <use x="1758.882812" xlink:href="#DejaVuSans-69"/>
     <use x="1786.666016" xlink:href="#DejaVuSans-61"/>
     <use x="1847.945312" xlink:href="#DejaVuSans-6c"/>
     <use x="1875.728516" xlink:href="#DejaVuSans-73"/>
     <use x="1927.828125" xlink:href="#DejaVuSans-2f"/>
     <use x="1961.519531" xlink:href="#DejaVuSans-66"/>
     <use x="1996.724609" xlink:href="#DejaVuSans-75"/>
     <use x="2060.103516" xlink:href="#DejaVuSans-7a"/>
     <use x="2112.59375" xlink:href="#DejaVuSans-7a"/>
     <use x="2165.083984" xlink:href="#DejaVuSans-65"/>
     <use x="2226.607422" xlink:href="#DejaVuSans-72"/>
     <use x="2267.720703" xlink:href="#DejaVuSans-29"/>
    </g>
   </g>
   <g id="legend_1">
    <g id="line2d_41">
     <path d="M 771.568125 30.416563 
L 791.568125 30.416563 
" style="fill:none;stroke:#1f77b4;stroke-linecap:square;stroke-width:1.5;"/>
    </g>
    <g id="line2d_42">
     <defs>
      <path d="M 0 3 
C 0.795609 3 1.55874 2.683901 2.12132 2.12132 
C 2.683901 1.55874 3 0.795609 3 0 
C 3 -0.795609 2.683901 -1.55874 2.12132 -2.12132 
C 1.55874 -2.683901 0.795609 -3 0 -3 
C -0.795609 -3 -1.55874 -2.683901 -2.12132 -2.12132 
C -2.683901 -1.55874 -3 -0.795609 -3 0 
C -3 0.795609 -2.683901 1.55874 -2.12132 2.12132 
C -1.55874 2.683901 -0.795609 3 0 3 
z
" id="m05e1f41489" style="stroke:#1f77b4;"/>
     </defs>
     <g>
      <use style="fill:#1f77b4;stroke:#1f77b4;" x="781.568125" xlink:href="#m05e1f41489" y="30.416563"/>
     </g>
    </g>
    <g id="text_22">
     <!-- sydr_aflplusplus -->
     <g transform="translate(799.568125 33.916563)scale(0.1 -0.1)">
      <defs>
       <path d="M 2059 -325 
Q 1816 -950 1584 -1140 
Q 1353 -1331 966 -1331 
L 506 -1331 
L 506 -850 
L 844 -850 
Q 1081 -850 1212 -737 
Q 1344 -625 1503 -206 
L 1606 56 
L 191 3500 
L 800 3500 
L 1894 763 
L 2988 3500 
L 3597 3500 
L 2059 -325 
z
" id="DejaVuSans-79" transform="scale(0.015625)"/>
       <path d="M 3263 -1063 
L 3263 -1509 
L -63 -1509 
L -63 -1063 
L 3263 -1063 
z
" id="DejaVuSans-5f" transform="scale(0.015625)"/>
      </defs>
      <use xlink:href="#DejaVuSans-73"/>
      <use x="52.099609" xlink:href="#DejaVuSans-79"/>
      <use x="111.279297" xlink:href="#DejaVuSans-64"/>
      <use x="174.755859" xlink:href="#DejaVuSans-72"/>
      <use x="215.869141" xlink:href="#DejaVuSans-5f"/>
      <use x="265.869141" xlink:href="#DejaVuSans-61"/>
      <use x="327.148438" xlink:href="#DejaVuSans-66"/>
      <use x="362.353516" xlink:href="#DejaVuSans-6c"/>
      <use x="390.136719" xlink:href="#DejaVuSans-70"/>
      <use x="453.613281" xlink:href="#DejaVuSans-6c"/>
      <use x="481.396484" xlink:href="#DejaVuSans-75"/>
      <use x="544.775391" xlink:href="#DejaVuSans-73"/>
      <use x="596.875" xlink:href="#DejaVuSans-70"/>
      <use x="660.351562" xlink:href="#DejaVuSans-6c"/>
      <use x="688.134766" xlink:href="#DejaVuSans-75"/>
      <use x="751.513672" xlink:href="#DejaVuSans-73"/>
     </g>
    </g>
    <g id="line2d_43">
     <path d="M 771.568125 45.372813 
L 791.568125 45.372813 
" style="fill:none;stroke:#98df8a;stroke-linecap:square;stroke-width:1.5;"/>
    </g>
    <g id="line2d_44">
     <defs>
      <path d="M -0 3 
L 3 -3 
L -3 -3 
z
" id="m8bef40aefe" style="stroke:#98df8a;stroke-linejoin:miter;"/>
     </defs>
     <g>
      <use style="fill:#98df8a;stroke:#98df8a;stroke-linejoin:miter;" x="781.568125" xlink:href="#m8bef40aefe" y="45.372813"/>
     </g>
    </g>
    <g id="text_23">
     <!-- sydr_symptr -->
     <g transform="translate(799.568125 48.872813)scale(0.1 -0.1)">
      <use xlink:href="#DejaVuSans-73"/>
      <use x="52.099609" xlink:href="#DejaVuSans-79"/>
      <use x="111.279297" xlink:href="#DejaVuSans-64"/>
      <use x="174.755859" xlink:href="#DejaVuSans-72"/>
      <use x="215.869141" xlink:href="#DejaVuSans-5f"/>
      <use x="265.869141" xlink:href="#DejaVuSans-73"/>
      <use x="317.96875" xlink:href="#DejaVuSans-79"/>
      <use x="377.148438" xlink:href="#DejaVuSans-6d"/>
      <use x="474.560547" xlink:href="#DejaVuSans-70"/>
      <use x="538.037109" xlink:href="#DejaVuSans-74"/>
      <use x="577.246094" xlink:href="#DejaVuSans-72"/>
     </g>
    </g>
   </g>
  </g>
 </g>
 <defs>
  <clipPath id="p32295228ad">
   <rect height="266.112" width="714.24" x="53.328125" y="22.318125"/>
  </clipPath>
 </defs>
</svg>
