<?xml version="1.0" encoding="utf-8" standalone="no"?>
<!DOCTYPE svg PUBLIC "-//W3C//DTD SVG 1.1//EN"
  "http://www.w3.org/Graphics/SVG/1.1/DTD/svg11.dtd">
<svg height="325.986375pt" version="1.1" viewBox="0 0 907.057187 325.986375" width="907.057187pt" xmlns="http://www.w3.org/2000/svg" xmlns:xlink="http://www.w3.org/1999/xlink">
 <metadata>
  <rdf:RDF xmlns:cc="http://creativecommons.org/ns#" xmlns:dc="http://purl.org/dc/elements/1.1/" xmlns:rdf="http://www.w3.org/1999/02/22-rdf-syntax-ns#">
   <cc:Work>
    <dc:type rdf:resource="http://purl.org/dc/dcmitype/StillImage"/>
    <dc:date>2022-08-09T14:18:51.588528</dc:date>
    <dc:format>image/svg+xml</dc:format>
    <dc:creator>
     <cc:Agent>
      <dc:title>Matplotlib v3.4.1, https://matplotlib.org/</dc:title>
     </cc:Agent>
    </dc:creator>
   </cc:Work>
  </rdf:RDF>
 </metadata>
 <defs>
  <style type="text/css">*{stroke-linecap:butt;stroke-linejoin:round;}</style>
 </defs>
 <g id="figure_1">
  <g id="patch_1">
   <path d="M 0 325.986375 
L 907.057187 325.986375 
L 907.057187 0 
L 0 0 
z
" style="fill:#ffffff;"/>
  </g>
  <g id="axes_1">
   <g id="patch_2">
    <path d="M 59.690625 288.430125 
L 773.930625 288.430125 
L 773.930625 22.318125 
L 59.690625 22.318125 
z
" style="fill:#ffffff;"/>
   </g>
   <g id="PolyCollection_1">
    <defs>
     <path d="M 92.15608 -59.023125 
L 92.15608 -49.65225 
L 191.688987 -65.281952 
L 249.912006 -73.992906 
L 291.221895 -81.092264 
L 323.264335 -87.885974 
L 349.444914 -94.360144 
L 371.580278 -99.000429 
L 390.754803 -102.001332 
L 407.667933 -107.197339 
L 422.797242 -112.754567 
L 436.483368 -118.172863 
L 448.977822 -123.535588 
L 460.471605 -128.291185 
L 471.113186 -129.495714 
L 481.020261 -130.815556 
L 490.287711 -134.261037 
L 498.993142 -139.332007 
L 507.20084 -142.527412 
L 514.964657 -145.375491 
L 522.33015 -150.293637 
L 529.336205 -151.071649 
L 536.016276 -151.735043 
L 542.399355 -153.669653 
L 548.51073 -156.740021 
L 554.37259 -158.879554 
L 560.004513 -160.685653 
L 565.423859 -164.186706 
L 570.646094 -164.756322 
L 575.685054 -166.659672 
L 580.553169 -167.576615 
L 585.261644 -168.479664 
L 589.820619 -170.938737 
L 594.239294 -173.467276 
L 598.52605 -173.967426 
L 602.688533 -174.412004 
L 606.733748 -176.92665 
L 610.668121 -178.955038 
L 614.497565 -180.191521 
L 618.227531 -181.969833 
L 621.863058 -183.303568 
L 625.408809 -184.026008 
L 628.869113 -184.192724 
L 632.247989 -185.248598 
L 635.549184 -185.943251 
L 638.776188 -186.026609 
L 641.932263 -187.110269 
L 645.02046 -193.834514 
L 648.043637 -198.780446 
L 651.004477 -200.614331 
L 653.905497 -203.740272 
L 656.749068 -210.073774 
L 659.537421 -211.33978 
L 662.272658 -212.423439 
L 664.956767 -212.868018 
L 667.591623 -214.840833 
L 670.179002 -213.229237 
L 672.720584 -219.439439 
L 675.217962 -220.509205 
L 677.672648 -221.009356 
L 680.086077 -223.158266 
L 682.459612 -223.537894 
L 684.794552 -224.079724 
L 687.092131 -222.384769 
L 689.353527 -227.650242 
L 691.57986 -229.011763 
L 693.772202 -229.49802 
L 695.931576 -230.693172 
L 698.058957 -231.067937 
L 700.155281 -231.373585 
L 702.221441 -231.901521 
L 704.258293 -232.623961 
L 706.266656 -233.124111 
L 708.247317 -233.151897 
L 710.201029 -233.235256 
L 712.128516 -233.318614 
L 714.030473 -233.457545 
L 715.907567 -234.680135 
L 717.760439 -234.680135 
L 719.589708 -237.931113 
L 721.395966 -238.570194 
L 723.179786 -240.126218 
L 724.941717 -240.487438 
L 726.682292 -240.626368 
L 728.40202 -241.90453 
L 730.101397 -244.488641 
L 731.780897 -246.016879 
L 733.440981 -245.93352 
L 735.082091 -251.740823 
L 736.704658 -258.38171 
L 738.309095 -256.311642 
L 739.895804 -261.410399 
L 741.46517 -262.979273 
L 741.46517 -291.57225 
L 741.46517 -291.57225 
L 739.895804 -289.863403 
L 738.309095 -290.335767 
L 736.704658 -288.529668 
L 735.082091 -287.727343 
L 733.440981 -288.988139 
L 731.780897 -286.028916 
L 730.101397 -286.153953 
L 728.40202 -284.472892 
L 726.682292 -283.222516 
L 724.941717 -280.916267 
L 723.179786 -280.360544 
L 721.395966 -279.832607 
L 719.589708 -279.249098 
L 717.760439 -276.894571 
L 715.907567 -274.6366 
L 714.030473 -275.289574 
L 712.128516 -271.580125 
L 710.201029 -272.608212 
L 708.247317 -272.219206 
L 706.266656 -270.954936 
L 704.258293 -268.745939 
L 702.221441 -269.20441 
L 700.155281 -268.607008 
L 698.058957 -268.468077 
L 695.931576 -268.245788 
L 693.772202 -266.356331 
L 691.57986 -264.022295 
L 689.353527 -261.854977 
L 687.092131 -261.465971 
L 684.794552 -257.034082 
L 682.459612 -253.213488 
L 680.086077 -252.963413 
L 677.672648 -247.836871 
L 675.217962 -245.848078 
L 672.720584 -245.002685 
L 670.179002 -241.886122 
L 667.591623 -243.599485 
L 664.956767 -241.459952 
L 662.272658 -239.201287 
L 659.537421 -240.529117 
L 656.749068 -239.987287 
L 653.905497 -239.403778 
L 651.004477 -234.124412 
L 648.043637 -237.972792 
L 645.02046 -237.125315 
L 641.932263 -235.847153 
L 638.776188 -235.305323 
L 635.549184 -228.931531 
L 632.247989 -230.206567 
L 628.869113 -228.622757 
L 625.408809 -226.997268 
L 621.863058 -225.705213 
L 618.227531 -224.176975 
L 614.497565 -220.509205 
L 610.668121 -218.67532 
L 606.733748 -214.000303 
L 602.688533 -214.618544 
L 598.52605 -208.061016 
L 594.239294 -206.657816 
L 589.820619 -201.364557 
L 585.261644 -195.029318 
L 580.553169 -193.640011 
L 575.685054 -190.041706 
L 570.646094 -188.430458 
L 565.423859 -184.4428 
L 560.004513 -178.718855 
L 554.37259 -174.170265 
L 548.51073 -170.146832 
L 542.399355 -165.992805 
L 536.016276 -164.492353 
L 529.336205 -161.797098 
L 522.33015 -159.601993 
L 514.964657 -155.698041 
L 507.20084 -154.864457 
L 498.993142 -153.516829 
L 490.287711 -144.597479 
L 481.020261 -146.389685 
L 471.113186 -142.235658 
L 460.471605 -140.3462 
L 448.977822 -137.248046 
L 436.483368 -136.011563 
L 422.797242 -132.260435 
L 407.667933 -129.398463 
L 390.754803 -126.258629 
L 371.580278 -121.632237 
L 349.444914 -113.643723 
L 323.264335 -108.906187 
L 291.221895 -99.853811 
L 249.912006 -91.359241 
L 191.688987 -79.827995 
L 92.15608 -59.023125 
z
" id="m3f009c7371" style="stroke:#98df8a;stroke-opacity:0.2;"/>
    </defs>
    <g clip-path="url(#p1bb0df59ed)">
     <use style="fill:#98df8a;fill-opacity:0.2;stroke:#98df8a;stroke-opacity:0.2;" x="0" xlink:href="#m3f009c7371" y="325.986375"/>
    </g>
   </g>
   <g id="PolyCollection_2">
    <defs>
     <path d="M 92.15608 -60.183196 
L 92.15608 -53.180395 
L 191.688987 -66.490649 
L 249.912006 -75.32664 
L 291.221895 -84.523852 
L 323.264335 -89.108564 
L 349.444914 -95.541055 
L 371.580278 -100.820421 
L 390.754803 -113.115786 
L 407.667933 -115.908293 
L 422.797242 -125.577869 
L 436.483368 -128.926098 
L 448.977822 -132.663334 
L 460.471605 -136.162998 
L 471.113186 -139.804371 
L 481.020261 -142.513519 
L 490.287711 -145.208774 
L 498.993142 -147.54281 
L 507.20084 -150.918826 
L 514.964657 -152.127522 
L 522.33015 -155.906437 
L 529.336205 -154.808885 
L 536.016276 -157.129027 
L 542.399355 -157.406888 
L 548.51073 -159.601993 
L 554.37259 -160.074358 
L 560.004513 -165.714943 
L 565.423859 -168.271268 
L 570.646094 -170.244084 
L 575.685054 -171.327743 
L 580.553169 -173.661779 
L 585.261644 -174.30086 
L 589.820619 -175.551236 
L 594.239294 -176.301462 
L 598.52605 -177.301762 
L 602.688533 -176.537644 
L 606.733748 -184.026008 
L 610.668121 -182.567235 
L 614.497565 -183.498071 
L 618.227531 -185.165239 
L 621.863058 -185.130506 
L 625.408809 -186.999124 
L 628.869113 -188.944154 
L 632.247989 -189.583235 
L 635.549184 -192.080861 
L 638.776188 -193.459401 
L 641.932263 -195.348858 
L 645.02046 -197.363353 
L 648.043637 -197.669001 
L 651.004477 -198.961056 
L 653.905497 -201.364557 
L 656.749068 -203.017832 
L 659.537421 -202.23982 
L 662.272658 -206.477206 
L 664.956767 -206.338275 
L 667.591623 -206.782854 
L 670.179002 -207.199646 
L 672.720584 -208.436129 
L 675.217962 -211.145277 
L 677.672648 -215.118695 
L 680.086077 -216.59136 
L 682.459612 -216.355178 
L 684.794552 -218.230742 
L 687.092131 -219.342187 
L 689.353527 -222.259732 
L 691.57986 -223.42675 
L 693.772202 -224.941094 
L 695.931576 -226.536018 
L 698.058957 -226.080326 
L 700.155281 -227.858638 
L 702.221441 -229.400769 
L 704.258293 -229.998171 
L 706.266656 -230.567787 
L 708.247317 -231.026258 
L 710.201029 -232.874036 
L 712.128516 -234.096626 
L 714.030473 -235.763794 
L 715.907567 -239.112024 
L 717.760439 -239.570495 
L 719.589708 -240.640261 
L 721.395966 -241.571097 
L 723.179786 -241.571097 
L 724.941717 -244.738716 
L 726.682292 -246.364205 
L 728.40202 -247.295041 
L 730.101397 -247.545116 
L 731.780897 -248.184197 
L 733.440981 -248.512768 
L 735.082091 -248.934423 
L 736.704658 -249.156712 
L 738.309095 -249.60129 
L 739.895804 -252.685552 
L 741.46517 -252.685552 
L 741.46517 -278.526659 
L 741.46517 -278.526659 
L 739.895804 -278.387728 
L 738.309095 -277.08178 
L 736.704658 -275.942548 
L 735.082091 -274.414311 
L 733.440981 -273.928053 
L 731.780897 -273.650192 
L 730.101397 -269.579523 
L 728.40202 -271.983024 
L 726.682292 -270.941043 
L 724.941717 -263.800006 
L 723.179786 -264.050082 
L 721.395966 -262.521844 
L 719.589708 -261.938335 
L 717.760439 -259.298652 
L 715.907567 -259.020791 
L 714.030473 -258.937432 
L 712.128516 -258.631785 
L 710.201029 -260.604601 
L 708.247317 -256.631183 
L 706.266656 -255.71424 
L 704.258293 -253.324633 
L 702.221441 -252.435476 
L 700.155281 -252.421583 
L 698.058957 -249.240071 
L 695.931576 -250.476554 
L 693.772202 -248.128625 
L 691.57986 -246.767104 
L 689.353527 -244.099635 
L 687.092131 -244.89154 
L 684.794552 -242.460253 
L 682.459612 -238.014471 
L 680.086077 -234.944103 
L 677.672648 -233.513117 
L 675.217962 -232.096024 
L 672.720584 -237.931113 
L 670.179002 -236.083335 
L 667.591623 -230.40107 
L 664.956767 -233.110218 
L 662.272658 -231.151296 
L 659.537421 -230.781045 
L 656.749068 -229.636951 
L 653.905497 -220.93468 
L 651.004477 -222.19235 
L 648.043637 -219.078219 
L 645.02046 -222.495914 
L 641.932263 -217.529837 
L 638.776188 -220.300809 
L 635.549184 -218.716999 
L 632.247989 -214.178134 
L 628.869113 -210.950774 
L 625.408809 -210.47841 
L 621.863058 -210.533982 
L 618.227531 -209.061317 
L 614.497565 -208.283305 
L 610.668121 -205.212937 
L 606.733748 -203.490196 
L 602.688533 -199.391741 
L 598.52605 -195.031749 
L 594.239294 -198.474799 
L 589.820619 -195.501682 
L 585.261644 -193.584439 
L 580.553169 -192.611924 
L 575.685054 -192.028415 
L 570.646094 -191.722767 
L 565.423859 -190.21016 
L 560.004513 -186.318364 
L 554.37259 -184.776233 
L 548.51073 -180.084544 
L 542.399355 -179.344043 
L 536.016276 -177.510158 
L 529.336205 -174.745438 
L 522.33015 -173.550634 
L 514.964657 -171.13324 
L 507.20084 -169.521644 
L 498.993142 -168.160123 
L 490.287711 -164.33953 
L 481.020261 -161.088552 
L 471.113186 -159.574207 
L 460.471605 -157.212386 
L 448.977822 -148.04296 
L 436.483368 -142.763594 
L 422.797242 -137.248046 
L 407.667933 -132.468831 
L 390.754803 -126.453132 
L 371.580278 -122.118495 
L 349.444914 -114.560666 
L 323.264335 -111.212436 
L 291.221895 -103.640714 
L 249.912006 -92.331756 
L 191.688987 -79.994711 
L 92.15608 -60.183196 
z
" id="mf5070b1bd6" style="stroke:#1f77b4;stroke-opacity:0.2;"/>
    </defs>
    <g clip-path="url(#p1bb0df59ed)">
     <use style="fill:#1f77b4;fill-opacity:0.2;stroke:#1f77b4;stroke-opacity:0.2;" x="0" xlink:href="#mf5070b1bd6" y="325.986375"/>
    </g>
   </g>
   <g id="matplotlib.axis_1">
    <g id="xtick_1">
     <g id="line2d_1">
      <defs>
       <path d="M 0 0 
L 0 3.5 
" id="m35bdf1d8c3" style="stroke:#000000;stroke-width:0.8;"/>
      </defs>
      <g>
       <use style="stroke:#000000;stroke-width:0.8;" x="92.15608" xlink:href="#m35bdf1d8c3" y="288.430125"/>
      </g>
     </g>
     <g id="text_1">
      <!-- 14m -->
      <g transform="translate(80.923267 303.028562)scale(0.1 -0.1)">
       <defs>
        <path d="M 794 531 
L 1825 531 
L 1825 4091 
L 703 3866 
L 703 4441 
L 1819 4666 
L 2450 4666 
L 2450 531 
L 3481 531 
L 3481 0 
L 794 0 
L 794 531 
z
" id="DejaVuSans-31" transform="scale(0.015625)"/>
        <path d="M 2419 4116 
L 825 1625 
L 2419 1625 
L 2419 4116 
z
M 2253 4666 
L 3047 4666 
L 3047 1625 
L 3713 1625 
L 3713 1100 
L 3047 1100 
L 3047 0 
L 2419 0 
L 2419 1100 
L 313 1100 
L 313 1709 
L 2253 4666 
z
" id="DejaVuSans-34" transform="scale(0.015625)"/>
        <path d="M 3328 2828 
Q 3544 3216 3844 3400 
Q 4144 3584 4550 3584 
Q 5097 3584 5394 3201 
Q 5691 2819 5691 2113 
L 5691 0 
L 5113 0 
L 5113 2094 
Q 5113 2597 4934 2840 
Q 4756 3084 4391 3084 
Q 3944 3084 3684 2787 
Q 3425 2491 3425 1978 
L 3425 0 
L 2847 0 
L 2847 2094 
Q 2847 2600 2669 2842 
Q 2491 3084 2119 3084 
Q 1678 3084 1418 2786 
Q 1159 2488 1159 1978 
L 1159 0 
L 581 0 
L 581 3500 
L 1159 3500 
L 1159 2956 
Q 1356 3278 1631 3431 
Q 1906 3584 2284 3584 
Q 2666 3584 2933 3390 
Q 3200 3197 3328 2828 
z
" id="DejaVuSans-6d" transform="scale(0.015625)"/>
       </defs>
       <use xlink:href="#DejaVuSans-31"/>
       <use x="63.623047" xlink:href="#DejaVuSans-34"/>
       <use x="127.246094" xlink:href="#DejaVuSans-6d"/>
      </g>
     </g>
    </g>
    <g id="xtick_2">
     <g id="line2d_2">
      <g>
       <use style="stroke:#000000;stroke-width:0.8;" x="151.184336" xlink:href="#m35bdf1d8c3" y="288.430125"/>
      </g>
     </g>
     <g id="text_2">
      <!-- 22m -->
      <g transform="translate(139.951524 303.028562)scale(0.1 -0.1)">
       <defs>
        <path d="M 1228 531 
L 3431 531 
L 3431 0 
L 469 0 
L 469 531 
Q 828 903 1448 1529 
Q 2069 2156 2228 2338 
Q 2531 2678 2651 2914 
Q 2772 3150 2772 3378 
Q 2772 3750 2511 3984 
Q 2250 4219 1831 4219 
Q 1534 4219 1204 4116 
Q 875 4013 500 3803 
L 500 4441 
Q 881 4594 1212 4672 
Q 1544 4750 1819 4750 
Q 2544 4750 2975 4387 
Q 3406 4025 3406 3419 
Q 3406 3131 3298 2873 
Q 3191 2616 2906 2266 
Q 2828 2175 2409 1742 
Q 1991 1309 1228 531 
z
" id="DejaVuSans-32" transform="scale(0.015625)"/>
       </defs>
       <use xlink:href="#DejaVuSans-32"/>
       <use x="63.623047" xlink:href="#DejaVuSans-32"/>
       <use x="127.246094" xlink:href="#DejaVuSans-6d"/>
      </g>
     </g>
    </g>
    <g id="xtick_3">
     <g id="line2d_3">
      <g>
       <use style="stroke:#000000;stroke-width:0.8;" x="210.212593" xlink:href="#m35bdf1d8c3" y="288.430125"/>
      </g>
     </g>
     <g id="text_3">
      <!-- 34m -->
      <g transform="translate(198.979781 303.028562)scale(0.1 -0.1)">
       <defs>
        <path d="M 2597 2516 
Q 3050 2419 3304 2112 
Q 3559 1806 3559 1356 
Q 3559 666 3084 287 
Q 2609 -91 1734 -91 
Q 1441 -91 1130 -33 
Q 819 25 488 141 
L 488 750 
Q 750 597 1062 519 
Q 1375 441 1716 441 
Q 2309 441 2620 675 
Q 2931 909 2931 1356 
Q 2931 1769 2642 2001 
Q 2353 2234 1838 2234 
L 1294 2234 
L 1294 2753 
L 1863 2753 
Q 2328 2753 2575 2939 
Q 2822 3125 2822 3475 
Q 2822 3834 2567 4026 
Q 2313 4219 1838 4219 
Q 1578 4219 1281 4162 
Q 984 4106 628 3988 
L 628 4550 
Q 988 4650 1302 4700 
Q 1616 4750 1894 4750 
Q 2613 4750 3031 4423 
Q 3450 4097 3450 3541 
Q 3450 3153 3228 2886 
Q 3006 2619 2597 2516 
z
" id="DejaVuSans-33" transform="scale(0.015625)"/>
       </defs>
       <use xlink:href="#DejaVuSans-33"/>
       <use x="63.623047" xlink:href="#DejaVuSans-34"/>
       <use x="127.246094" xlink:href="#DejaVuSans-6d"/>
      </g>
     </g>
    </g>
    <g id="xtick_4">
     <g id="line2d_4">
      <g>
       <use style="stroke:#000000;stroke-width:0.8;" x="269.24085" xlink:href="#m35bdf1d8c3" y="288.430125"/>
      </g>
     </g>
     <g id="text_4">
      <!-- 51m -->
      <g transform="translate(258.008038 303.028562)scale(0.1 -0.1)">
       <defs>
        <path d="M 691 4666 
L 3169 4666 
L 3169 4134 
L 1269 4134 
L 1269 2991 
Q 1406 3038 1543 3061 
Q 1681 3084 1819 3084 
Q 2600 3084 3056 2656 
Q 3513 2228 3513 1497 
Q 3513 744 3044 326 
Q 2575 -91 1722 -91 
Q 1428 -91 1123 -41 
Q 819 9 494 109 
L 494 744 
Q 775 591 1075 516 
Q 1375 441 1709 441 
Q 2250 441 2565 725 
Q 2881 1009 2881 1497 
Q 2881 1984 2565 2268 
Q 2250 2553 1709 2553 
Q 1456 2553 1204 2497 
Q 953 2441 691 2322 
L 691 4666 
z
" id="DejaVuSans-35" transform="scale(0.015625)"/>
       </defs>
       <use xlink:href="#DejaVuSans-35"/>
       <use x="63.623047" xlink:href="#DejaVuSans-31"/>
       <use x="127.246094" xlink:href="#DejaVuSans-6d"/>
      </g>
     </g>
    </g>
    <g id="xtick_5">
     <g id="line2d_5">
      <g>
       <use style="stroke:#000000;stroke-width:0.8;" x="328.269107" xlink:href="#m35bdf1d8c3" y="288.430125"/>
      </g>
     </g>
     <g id="text_5">
      <!-- 1h:17m -->
      <g transform="translate(309.001919 303.028562)scale(0.1 -0.1)">
       <defs>
        <path d="M 3513 2113 
L 3513 0 
L 2938 0 
L 2938 2094 
Q 2938 2591 2744 2837 
Q 2550 3084 2163 3084 
Q 1697 3084 1428 2787 
Q 1159 2491 1159 1978 
L 1159 0 
L 581 0 
L 581 4863 
L 1159 4863 
L 1159 2956 
Q 1366 3272 1645 3428 
Q 1925 3584 2291 3584 
Q 2894 3584 3203 3211 
Q 3513 2838 3513 2113 
z
" id="DejaVuSans-68" transform="scale(0.015625)"/>
        <path d="M 750 794 
L 1409 794 
L 1409 0 
L 750 0 
L 750 794 
z
M 750 3309 
L 1409 3309 
L 1409 2516 
L 750 2516 
L 750 3309 
z
" id="DejaVuSans-3a" transform="scale(0.015625)"/>
        <path d="M 525 4666 
L 3525 4666 
L 3525 4397 
L 1831 0 
L 1172 0 
L 2766 4134 
L 525 4134 
L 525 4666 
z
" id="DejaVuSans-37" transform="scale(0.015625)"/>
       </defs>
       <use xlink:href="#DejaVuSans-31"/>
       <use x="63.623047" xlink:href="#DejaVuSans-68"/>
       <use x="127.001953" xlink:href="#DejaVuSans-3a"/>
       <use x="160.693359" xlink:href="#DejaVuSans-31"/>
       <use x="224.316406" xlink:href="#DejaVuSans-37"/>
       <use x="287.939453" xlink:href="#DejaVuSans-6d"/>
      </g>
     </g>
    </g>
    <g id="xtick_6">
     <g id="line2d_6">
      <g>
       <use style="stroke:#000000;stroke-width:0.8;" x="387.297364" xlink:href="#m35bdf1d8c3" y="288.430125"/>
      </g>
     </g>
     <g id="text_6">
      <!-- 1h:57m -->
      <g transform="translate(368.030176 303.028562)scale(0.1 -0.1)">
       <use xlink:href="#DejaVuSans-31"/>
       <use x="63.623047" xlink:href="#DejaVuSans-68"/>
       <use x="127.001953" xlink:href="#DejaVuSans-3a"/>
       <use x="160.693359" xlink:href="#DejaVuSans-35"/>
       <use x="224.316406" xlink:href="#DejaVuSans-37"/>
       <use x="287.939453" xlink:href="#DejaVuSans-6d"/>
      </g>
     </g>
    </g>
    <g id="xtick_7">
     <g id="line2d_7">
      <g>
       <use style="stroke:#000000;stroke-width:0.8;" x="446.325621" xlink:href="#m35bdf1d8c3" y="288.430125"/>
      </g>
     </g>
     <g id="text_7">
      <!-- 2h:56m -->
      <g transform="translate(427.058433 303.028562)scale(0.1 -0.1)">
       <defs>
        <path d="M 2113 2584 
Q 1688 2584 1439 2293 
Q 1191 2003 1191 1497 
Q 1191 994 1439 701 
Q 1688 409 2113 409 
Q 2538 409 2786 701 
Q 3034 994 3034 1497 
Q 3034 2003 2786 2293 
Q 2538 2584 2113 2584 
z
M 3366 4563 
L 3366 3988 
Q 3128 4100 2886 4159 
Q 2644 4219 2406 4219 
Q 1781 4219 1451 3797 
Q 1122 3375 1075 2522 
Q 1259 2794 1537 2939 
Q 1816 3084 2150 3084 
Q 2853 3084 3261 2657 
Q 3669 2231 3669 1497 
Q 3669 778 3244 343 
Q 2819 -91 2113 -91 
Q 1303 -91 875 529 
Q 447 1150 447 2328 
Q 447 3434 972 4092 
Q 1497 4750 2381 4750 
Q 2619 4750 2861 4703 
Q 3103 4656 3366 4563 
z
" id="DejaVuSans-36" transform="scale(0.015625)"/>
       </defs>
       <use xlink:href="#DejaVuSans-32"/>
       <use x="63.623047" xlink:href="#DejaVuSans-68"/>
       <use x="127.001953" xlink:href="#DejaVuSans-3a"/>
       <use x="160.693359" xlink:href="#DejaVuSans-35"/>
       <use x="224.316406" xlink:href="#DejaVuSans-36"/>
       <use x="287.939453" xlink:href="#DejaVuSans-6d"/>
      </g>
     </g>
    </g>
    <g id="xtick_8">
     <g id="line2d_8">
      <g>
       <use style="stroke:#000000;stroke-width:0.8;" x="505.353877" xlink:href="#m35bdf1d8c3" y="288.430125"/>
      </g>
     </g>
     <g id="text_8">
      <!-- 4h:26m -->
      <g transform="translate(486.08669 303.028562)scale(0.1 -0.1)">
       <use xlink:href="#DejaVuSans-34"/>
       <use x="63.623047" xlink:href="#DejaVuSans-68"/>
       <use x="127.001953" xlink:href="#DejaVuSans-3a"/>
       <use x="160.693359" xlink:href="#DejaVuSans-32"/>
       <use x="224.316406" xlink:href="#DejaVuSans-36"/>
       <use x="287.939453" xlink:href="#DejaVuSans-6d"/>
      </g>
     </g>
    </g>
    <g id="xtick_9">
     <g id="line2d_9">
      <g>
       <use style="stroke:#000000;stroke-width:0.8;" x="564.382134" xlink:href="#m35bdf1d8c3" y="288.430125"/>
      </g>
     </g>
     <g id="text_9">
      <!-- 6h:42m -->
      <g transform="translate(545.114947 303.028562)scale(0.1 -0.1)">
       <use xlink:href="#DejaVuSans-36"/>
       <use x="63.623047" xlink:href="#DejaVuSans-68"/>
       <use x="127.001953" xlink:href="#DejaVuSans-3a"/>
       <use x="160.693359" xlink:href="#DejaVuSans-34"/>
       <use x="224.316406" xlink:href="#DejaVuSans-32"/>
       <use x="287.939453" xlink:href="#DejaVuSans-6d"/>
      </g>
     </g>
    </g>
    <g id="xtick_10">
     <g id="line2d_10">
      <g>
       <use style="stroke:#000000;stroke-width:0.8;" x="623.410391" xlink:href="#m35bdf1d8c3" y="288.430125"/>
      </g>
     </g>
     <g id="text_10">
      <!-- 10h:6m -->
      <g transform="translate(604.143204 303.028562)scale(0.1 -0.1)">
       <defs>
        <path d="M 2034 4250 
Q 1547 4250 1301 3770 
Q 1056 3291 1056 2328 
Q 1056 1369 1301 889 
Q 1547 409 2034 409 
Q 2525 409 2770 889 
Q 3016 1369 3016 2328 
Q 3016 3291 2770 3770 
Q 2525 4250 2034 4250 
z
M 2034 4750 
Q 2819 4750 3233 4129 
Q 3647 3509 3647 2328 
Q 3647 1150 3233 529 
Q 2819 -91 2034 -91 
Q 1250 -91 836 529 
Q 422 1150 422 2328 
Q 422 3509 836 4129 
Q 1250 4750 2034 4750 
z
" id="DejaVuSans-30" transform="scale(0.015625)"/>
       </defs>
       <use xlink:href="#DejaVuSans-31"/>
       <use x="63.623047" xlink:href="#DejaVuSans-30"/>
       <use x="127.246094" xlink:href="#DejaVuSans-68"/>
       <use x="190.625" xlink:href="#DejaVuSans-3a"/>
       <use x="224.316406" xlink:href="#DejaVuSans-36"/>
       <use x="287.939453" xlink:href="#DejaVuSans-6d"/>
      </g>
     </g>
    </g>
    <g id="xtick_11">
     <g id="line2d_11">
      <g>
       <use style="stroke:#000000;stroke-width:0.8;" x="682.438648" xlink:href="#m35bdf1d8c3" y="288.430125"/>
      </g>
     </g>
     <g id="text_11">
      <!-- 15h:14m -->
      <g transform="translate(659.99021 303.028562)scale(0.1 -0.1)">
       <use xlink:href="#DejaVuSans-31"/>
       <use x="63.623047" xlink:href="#DejaVuSans-35"/>
       <use x="127.246094" xlink:href="#DejaVuSans-68"/>
       <use x="190.625" xlink:href="#DejaVuSans-3a"/>
       <use x="224.316406" xlink:href="#DejaVuSans-31"/>
       <use x="287.939453" xlink:href="#DejaVuSans-34"/>
       <use x="351.5625" xlink:href="#DejaVuSans-6d"/>
      </g>
     </g>
    </g>
    <g id="xtick_12">
     <g id="line2d_12">
      <g>
       <use style="stroke:#000000;stroke-width:0.8;" x="741.466905" xlink:href="#m35bdf1d8c3" y="288.430125"/>
      </g>
     </g>
     <g id="text_12">
      <!-- 23h -->
      <g transform="translate(731.935655 303.028562)scale(0.1 -0.1)">
       <use xlink:href="#DejaVuSans-32"/>
       <use x="63.623047" xlink:href="#DejaVuSans-33"/>
       <use x="127.246094" xlink:href="#DejaVuSans-68"/>
      </g>
     </g>
    </g>
    <g id="xtick_13">
     <g id="line2d_13">
      <defs>
       <path d="M 0 0 
L 0 2 
" id="ma7980e709a" style="stroke:#000000;stroke-width:0.6;"/>
      </defs>
      <g>
       <use style="stroke:#000000;stroke-width:0.6;" x="75.24295" xlink:href="#ma7980e709a" y="288.430125"/>
      </g>
     </g>
    </g>
    <g id="xtick_14">
     <g id="line2d_14">
      <g>
       <use style="stroke:#000000;stroke-width:0.6;" x="206.818297" xlink:href="#ma7980e709a" y="288.430125"/>
      </g>
     </g>
    </g>
    <g id="xtick_15">
     <g id="line2d_15">
      <g>
       <use style="stroke:#000000;stroke-width:0.6;" x="265.041316" xlink:href="#ma7980e709a" y="288.430125"/>
      </g>
     </g>
    </g>
    <g id="xtick_16">
     <g id="line2d_16">
      <g>
       <use style="stroke:#000000;stroke-width:0.6;" x="306.351205" xlink:href="#ma7980e709a" y="288.430125"/>
      </g>
     </g>
    </g>
    <g id="xtick_17">
     <g id="line2d_17">
      <g>
       <use style="stroke:#000000;stroke-width:0.6;" x="338.393644" xlink:href="#ma7980e709a" y="288.430125"/>
      </g>
     </g>
    </g>
    <g id="xtick_18">
     <g id="line2d_18">
      <g>
       <use style="stroke:#000000;stroke-width:0.6;" x="364.574224" xlink:href="#ma7980e709a" y="288.430125"/>
      </g>
     </g>
    </g>
    <g id="xtick_19">
     <g id="line2d_19">
      <g>
       <use style="stroke:#000000;stroke-width:0.6;" x="386.709588" xlink:href="#ma7980e709a" y="288.430125"/>
      </g>
     </g>
    </g>
    <g id="xtick_20">
     <g id="line2d_20">
      <g>
       <use style="stroke:#000000;stroke-width:0.6;" x="405.884113" xlink:href="#ma7980e709a" y="288.430125"/>
      </g>
     </g>
    </g>
    <g id="xtick_21">
     <g id="line2d_21">
      <g>
       <use style="stroke:#000000;stroke-width:0.6;" x="422.797242" xlink:href="#ma7980e709a" y="288.430125"/>
      </g>
     </g>
    </g>
    <g id="xtick_22">
     <g id="line2d_22">
      <g>
       <use style="stroke:#000000;stroke-width:0.6;" x="537.45946" xlink:href="#ma7980e709a" y="288.430125"/>
      </g>
     </g>
    </g>
    <g id="xtick_23">
     <g id="line2d_23">
      <g>
       <use style="stroke:#000000;stroke-width:0.6;" x="595.682479" xlink:href="#ma7980e709a" y="288.430125"/>
      </g>
     </g>
    </g>
    <g id="xtick_24">
     <g id="line2d_24">
      <g>
       <use style="stroke:#000000;stroke-width:0.6;" x="636.992368" xlink:href="#ma7980e709a" y="288.430125"/>
      </g>
     </g>
    </g>
    <g id="xtick_25">
     <g id="line2d_25">
      <g>
       <use style="stroke:#000000;stroke-width:0.6;" x="669.034807" xlink:href="#ma7980e709a" y="288.430125"/>
      </g>
     </g>
    </g>
    <g id="xtick_26">
     <g id="line2d_26">
      <g>
       <use style="stroke:#000000;stroke-width:0.6;" x="695.215387" xlink:href="#ma7980e709a" y="288.430125"/>
      </g>
     </g>
    </g>
    <g id="xtick_27">
     <g id="line2d_27">
      <g>
       <use style="stroke:#000000;stroke-width:0.6;" x="717.350751" xlink:href="#ma7980e709a" y="288.430125"/>
      </g>
     </g>
    </g>
    <g id="xtick_28">
     <g id="line2d_28">
      <g>
       <use style="stroke:#000000;stroke-width:0.6;" x="736.525276" xlink:href="#ma7980e709a" y="288.430125"/>
      </g>
     </g>
    </g>
    <g id="xtick_29">
     <g id="line2d_29">
      <g>
       <use style="stroke:#000000;stroke-width:0.6;" x="753.438405" xlink:href="#ma7980e709a" y="288.430125"/>
      </g>
     </g>
    </g>
    <g id="text_13">
     <!-- Time (hour:minute) -->
     <g transform="translate(368.403594 316.706687)scale(0.1 -0.1)">
      <defs>
       <path d="M -19 4666 
L 3928 4666 
L 3928 4134 
L 2272 4134 
L 2272 0 
L 1638 0 
L 1638 4134 
L -19 4134 
L -19 4666 
z
" id="DejaVuSans-54" transform="scale(0.015625)"/>
       <path d="M 603 3500 
L 1178 3500 
L 1178 0 
L 603 0 
L 603 3500 
z
M 603 4863 
L 1178 4863 
L 1178 4134 
L 603 4134 
L 603 4863 
z
" id="DejaVuSans-69" transform="scale(0.015625)"/>
       <path d="M 3597 1894 
L 3597 1613 
L 953 1613 
Q 991 1019 1311 708 
Q 1631 397 2203 397 
Q 2534 397 2845 478 
Q 3156 559 3463 722 
L 3463 178 
Q 3153 47 2828 -22 
Q 2503 -91 2169 -91 
Q 1331 -91 842 396 
Q 353 884 353 1716 
Q 353 2575 817 3079 
Q 1281 3584 2069 3584 
Q 2775 3584 3186 3129 
Q 3597 2675 3597 1894 
z
M 3022 2063 
Q 3016 2534 2758 2815 
Q 2500 3097 2075 3097 
Q 1594 3097 1305 2825 
Q 1016 2553 972 2059 
L 3022 2063 
z
" id="DejaVuSans-65" transform="scale(0.015625)"/>
       <path id="DejaVuSans-20" transform="scale(0.015625)"/>
       <path d="M 1984 4856 
Q 1566 4138 1362 3434 
Q 1159 2731 1159 2009 
Q 1159 1288 1364 580 
Q 1569 -128 1984 -844 
L 1484 -844 
Q 1016 -109 783 600 
Q 550 1309 550 2009 
Q 550 2706 781 3412 
Q 1013 4119 1484 4856 
L 1984 4856 
z
" id="DejaVuSans-28" transform="scale(0.015625)"/>
       <path d="M 1959 3097 
Q 1497 3097 1228 2736 
Q 959 2375 959 1747 
Q 959 1119 1226 758 
Q 1494 397 1959 397 
Q 2419 397 2687 759 
Q 2956 1122 2956 1747 
Q 2956 2369 2687 2733 
Q 2419 3097 1959 3097 
z
M 1959 3584 
Q 2709 3584 3137 3096 
Q 3566 2609 3566 1747 
Q 3566 888 3137 398 
Q 2709 -91 1959 -91 
Q 1206 -91 779 398 
Q 353 888 353 1747 
Q 353 2609 779 3096 
Q 1206 3584 1959 3584 
z
" id="DejaVuSans-6f" transform="scale(0.015625)"/>
       <path d="M 544 1381 
L 544 3500 
L 1119 3500 
L 1119 1403 
Q 1119 906 1312 657 
Q 1506 409 1894 409 
Q 2359 409 2629 706 
Q 2900 1003 2900 1516 
L 2900 3500 
L 3475 3500 
L 3475 0 
L 2900 0 
L 2900 538 
Q 2691 219 2414 64 
Q 2138 -91 1772 -91 
Q 1169 -91 856 284 
Q 544 659 544 1381 
z
M 1991 3584 
L 1991 3584 
z
" id="DejaVuSans-75" transform="scale(0.015625)"/>
       <path d="M 2631 2963 
Q 2534 3019 2420 3045 
Q 2306 3072 2169 3072 
Q 1681 3072 1420 2755 
Q 1159 2438 1159 1844 
L 1159 0 
L 581 0 
L 581 3500 
L 1159 3500 
L 1159 2956 
Q 1341 3275 1631 3429 
Q 1922 3584 2338 3584 
Q 2397 3584 2469 3576 
Q 2541 3569 2628 3553 
L 2631 2963 
z
" id="DejaVuSans-72" transform="scale(0.015625)"/>
       <path d="M 3513 2113 
L 3513 0 
L 2938 0 
L 2938 2094 
Q 2938 2591 2744 2837 
Q 2550 3084 2163 3084 
Q 1697 3084 1428 2787 
Q 1159 2491 1159 1978 
L 1159 0 
L 581 0 
L 581 3500 
L 1159 3500 
L 1159 2956 
Q 1366 3272 1645 3428 
Q 1925 3584 2291 3584 
Q 2894 3584 3203 3211 
Q 3513 2838 3513 2113 
z
" id="DejaVuSans-6e" transform="scale(0.015625)"/>
       <path d="M 1172 4494 
L 1172 3500 
L 2356 3500 
L 2356 3053 
L 1172 3053 
L 1172 1153 
Q 1172 725 1289 603 
Q 1406 481 1766 481 
L 2356 481 
L 2356 0 
L 1766 0 
Q 1100 0 847 248 
Q 594 497 594 1153 
L 594 3053 
L 172 3053 
L 172 3500 
L 594 3500 
L 594 4494 
L 1172 4494 
z
" id="DejaVuSans-74" transform="scale(0.015625)"/>
       <path d="M 513 4856 
L 1013 4856 
Q 1481 4119 1714 3412 
Q 1947 2706 1947 2009 
Q 1947 1309 1714 600 
Q 1481 -109 1013 -844 
L 513 -844 
Q 928 -128 1133 580 
Q 1338 1288 1338 2009 
Q 1338 2731 1133 3434 
Q 928 4138 513 4856 
z
" id="DejaVuSans-29" transform="scale(0.015625)"/>
      </defs>
      <use xlink:href="#DejaVuSans-54"/>
      <use x="57.958984" xlink:href="#DejaVuSans-69"/>
      <use x="85.742188" xlink:href="#DejaVuSans-6d"/>
      <use x="183.154297" xlink:href="#DejaVuSans-65"/>
      <use x="244.677734" xlink:href="#DejaVuSans-20"/>
      <use x="276.464844" xlink:href="#DejaVuSans-28"/>
      <use x="315.478516" xlink:href="#DejaVuSans-68"/>
      <use x="378.857422" xlink:href="#DejaVuSans-6f"/>
      <use x="440.039062" xlink:href="#DejaVuSans-75"/>
      <use x="503.417969" xlink:href="#DejaVuSans-72"/>
      <use x="542.78125" xlink:href="#DejaVuSans-3a"/>
      <use x="576.472656" xlink:href="#DejaVuSans-6d"/>
      <use x="673.884766" xlink:href="#DejaVuSans-69"/>
      <use x="701.667969" xlink:href="#DejaVuSans-6e"/>
      <use x="765.046875" xlink:href="#DejaVuSans-75"/>
      <use x="828.425781" xlink:href="#DejaVuSans-74"/>
      <use x="867.634766" xlink:href="#DejaVuSans-65"/>
      <use x="929.158203" xlink:href="#DejaVuSans-29"/>
     </g>
    </g>
   </g>
   <g id="matplotlib.axis_2">
    <g id="ytick_1">
     <g id="line2d_30">
      <defs>
       <path d="M 0 0 
L -3.5 0 
" id="m2b4285cfcb" style="stroke:#000000;stroke-width:0.8;"/>
      </defs>
      <g>
       <use style="stroke:#000000;stroke-width:0.8;" x="59.690625" xlink:href="#m2b4285cfcb" y="286.22599"/>
      </g>
     </g>
     <g id="text_14">
      <!-- 10000 -->
      <g transform="translate(20.878125 290.025208)scale(0.1 -0.1)">
       <use xlink:href="#DejaVuSans-31"/>
       <use x="63.623047" xlink:href="#DejaVuSans-30"/>
       <use x="127.246094" xlink:href="#DejaVuSans-30"/>
       <use x="190.869141" xlink:href="#DejaVuSans-30"/>
       <use x="254.492188" xlink:href="#DejaVuSans-30"/>
      </g>
     </g>
    </g>
    <g id="ytick_2">
     <g id="line2d_31">
      <g>
       <use style="stroke:#000000;stroke-width:0.8;" x="59.690625" xlink:href="#m2b4285cfcb" y="230.653716"/>
      </g>
     </g>
     <g id="text_15">
      <!-- 12000 -->
      <g transform="translate(20.878125 234.452935)scale(0.1 -0.1)">
       <use xlink:href="#DejaVuSans-31"/>
       <use x="63.623047" xlink:href="#DejaVuSans-32"/>
       <use x="127.246094" xlink:href="#DejaVuSans-30"/>
       <use x="190.869141" xlink:href="#DejaVuSans-30"/>
       <use x="254.492188" xlink:href="#DejaVuSans-30"/>
      </g>
     </g>
    </g>
    <g id="ytick_3">
     <g id="line2d_32">
      <g>
       <use style="stroke:#000000;stroke-width:0.8;" x="59.690625" xlink:href="#m2b4285cfcb" y="175.081443"/>
      </g>
     </g>
     <g id="text_16">
      <!-- 14000 -->
      <g transform="translate(20.878125 178.880661)scale(0.1 -0.1)">
       <use xlink:href="#DejaVuSans-31"/>
       <use x="63.623047" xlink:href="#DejaVuSans-34"/>
       <use x="127.246094" xlink:href="#DejaVuSans-30"/>
       <use x="190.869141" xlink:href="#DejaVuSans-30"/>
       <use x="254.492188" xlink:href="#DejaVuSans-30"/>
      </g>
     </g>
    </g>
    <g id="ytick_4">
     <g id="line2d_33">
      <g>
       <use style="stroke:#000000;stroke-width:0.8;" x="59.690625" xlink:href="#m2b4285cfcb" y="119.509169"/>
      </g>
     </g>
     <g id="text_17">
      <!-- 16000 -->
      <g transform="translate(20.878125 123.308388)scale(0.1 -0.1)">
       <use xlink:href="#DejaVuSans-31"/>
       <use x="63.623047" xlink:href="#DejaVuSans-36"/>
       <use x="127.246094" xlink:href="#DejaVuSans-30"/>
       <use x="190.869141" xlink:href="#DejaVuSans-30"/>
       <use x="254.492188" xlink:href="#DejaVuSans-30"/>
      </g>
     </g>
    </g>
    <g id="ytick_5">
     <g id="line2d_34">
      <g>
       <use style="stroke:#000000;stroke-width:0.8;" x="59.690625" xlink:href="#m2b4285cfcb" y="63.936895"/>
      </g>
     </g>
     <g id="text_18">
      <!-- 18000 -->
      <g transform="translate(20.878125 67.736114)scale(0.1 -0.1)">
       <defs>
        <path d="M 2034 2216 
Q 1584 2216 1326 1975 
Q 1069 1734 1069 1313 
Q 1069 891 1326 650 
Q 1584 409 2034 409 
Q 2484 409 2743 651 
Q 3003 894 3003 1313 
Q 3003 1734 2745 1975 
Q 2488 2216 2034 2216 
z
M 1403 2484 
Q 997 2584 770 2862 
Q 544 3141 544 3541 
Q 544 4100 942 4425 
Q 1341 4750 2034 4750 
Q 2731 4750 3128 4425 
Q 3525 4100 3525 3541 
Q 3525 3141 3298 2862 
Q 3072 2584 2669 2484 
Q 3125 2378 3379 2068 
Q 3634 1759 3634 1313 
Q 3634 634 3220 271 
Q 2806 -91 2034 -91 
Q 1263 -91 848 271 
Q 434 634 434 1313 
Q 434 1759 690 2068 
Q 947 2378 1403 2484 
z
M 1172 3481 
Q 1172 3119 1398 2916 
Q 1625 2713 2034 2713 
Q 2441 2713 2670 2916 
Q 2900 3119 2900 3481 
Q 2900 3844 2670 4047 
Q 2441 4250 2034 4250 
Q 1625 4250 1398 4047 
Q 1172 3844 1172 3481 
z
" id="DejaVuSans-38" transform="scale(0.015625)"/>
       </defs>
       <use xlink:href="#DejaVuSans-31"/>
       <use x="63.623047" xlink:href="#DejaVuSans-38"/>
       <use x="127.246094" xlink:href="#DejaVuSans-30"/>
       <use x="190.869141" xlink:href="#DejaVuSans-30"/>
       <use x="254.492188" xlink:href="#DejaVuSans-30"/>
      </g>
     </g>
    </g>
    <g id="text_19">
     <!-- Code branch coverage -->
     <g transform="translate(14.798438 211.949125)rotate(-90)scale(0.1 -0.1)">
      <defs>
       <path d="M 4122 4306 
L 4122 3641 
Q 3803 3938 3442 4084 
Q 3081 4231 2675 4231 
Q 1875 4231 1450 3742 
Q 1025 3253 1025 2328 
Q 1025 1406 1450 917 
Q 1875 428 2675 428 
Q 3081 428 3442 575 
Q 3803 722 4122 1019 
L 4122 359 
Q 3791 134 3420 21 
Q 3050 -91 2638 -91 
Q 1578 -91 968 557 
Q 359 1206 359 2328 
Q 359 3453 968 4101 
Q 1578 4750 2638 4750 
Q 3056 4750 3426 4639 
Q 3797 4528 4122 4306 
z
" id="DejaVuSans-43" transform="scale(0.015625)"/>
       <path d="M 2906 2969 
L 2906 4863 
L 3481 4863 
L 3481 0 
L 2906 0 
L 2906 525 
Q 2725 213 2448 61 
Q 2172 -91 1784 -91 
Q 1150 -91 751 415 
Q 353 922 353 1747 
Q 353 2572 751 3078 
Q 1150 3584 1784 3584 
Q 2172 3584 2448 3432 
Q 2725 3281 2906 2969 
z
M 947 1747 
Q 947 1113 1208 752 
Q 1469 391 1925 391 
Q 2381 391 2643 752 
Q 2906 1113 2906 1747 
Q 2906 2381 2643 2742 
Q 2381 3103 1925 3103 
Q 1469 3103 1208 2742 
Q 947 2381 947 1747 
z
" id="DejaVuSans-64" transform="scale(0.015625)"/>
       <path d="M 3116 1747 
Q 3116 2381 2855 2742 
Q 2594 3103 2138 3103 
Q 1681 3103 1420 2742 
Q 1159 2381 1159 1747 
Q 1159 1113 1420 752 
Q 1681 391 2138 391 
Q 2594 391 2855 752 
Q 3116 1113 3116 1747 
z
M 1159 2969 
Q 1341 3281 1617 3432 
Q 1894 3584 2278 3584 
Q 2916 3584 3314 3078 
Q 3713 2572 3713 1747 
Q 3713 922 3314 415 
Q 2916 -91 2278 -91 
Q 1894 -91 1617 61 
Q 1341 213 1159 525 
L 1159 0 
L 581 0 
L 581 4863 
L 1159 4863 
L 1159 2969 
z
" id="DejaVuSans-62" transform="scale(0.015625)"/>
       <path d="M 2194 1759 
Q 1497 1759 1228 1600 
Q 959 1441 959 1056 
Q 959 750 1161 570 
Q 1363 391 1709 391 
Q 2188 391 2477 730 
Q 2766 1069 2766 1631 
L 2766 1759 
L 2194 1759 
z
M 3341 1997 
L 3341 0 
L 2766 0 
L 2766 531 
Q 2569 213 2275 61 
Q 1981 -91 1556 -91 
Q 1019 -91 701 211 
Q 384 513 384 1019 
Q 384 1609 779 1909 
Q 1175 2209 1959 2209 
L 2766 2209 
L 2766 2266 
Q 2766 2663 2505 2880 
Q 2244 3097 1772 3097 
Q 1472 3097 1187 3025 
Q 903 2953 641 2809 
L 641 3341 
Q 956 3463 1253 3523 
Q 1550 3584 1831 3584 
Q 2591 3584 2966 3190 
Q 3341 2797 3341 1997 
z
" id="DejaVuSans-61" transform="scale(0.015625)"/>
       <path d="M 3122 3366 
L 3122 2828 
Q 2878 2963 2633 3030 
Q 2388 3097 2138 3097 
Q 1578 3097 1268 2742 
Q 959 2388 959 1747 
Q 959 1106 1268 751 
Q 1578 397 2138 397 
Q 2388 397 2633 464 
Q 2878 531 3122 666 
L 3122 134 
Q 2881 22 2623 -34 
Q 2366 -91 2075 -91 
Q 1284 -91 818 406 
Q 353 903 353 1747 
Q 353 2603 823 3093 
Q 1294 3584 2113 3584 
Q 2378 3584 2631 3529 
Q 2884 3475 3122 3366 
z
" id="DejaVuSans-63" transform="scale(0.015625)"/>
       <path d="M 191 3500 
L 800 3500 
L 1894 563 
L 2988 3500 
L 3597 3500 
L 2284 0 
L 1503 0 
L 191 3500 
z
" id="DejaVuSans-76" transform="scale(0.015625)"/>
       <path d="M 2906 1791 
Q 2906 2416 2648 2759 
Q 2391 3103 1925 3103 
Q 1463 3103 1205 2759 
Q 947 2416 947 1791 
Q 947 1169 1205 825 
Q 1463 481 1925 481 
Q 2391 481 2648 825 
Q 2906 1169 2906 1791 
z
M 3481 434 
Q 3481 -459 3084 -895 
Q 2688 -1331 1869 -1331 
Q 1566 -1331 1297 -1286 
Q 1028 -1241 775 -1147 
L 775 -588 
Q 1028 -725 1275 -790 
Q 1522 -856 1778 -856 
Q 2344 -856 2625 -561 
Q 2906 -266 2906 331 
L 2906 616 
Q 2728 306 2450 153 
Q 2172 0 1784 0 
Q 1141 0 747 490 
Q 353 981 353 1791 
Q 353 2603 747 3093 
Q 1141 3584 1784 3584 
Q 2172 3584 2450 3431 
Q 2728 3278 2906 2969 
L 2906 3500 
L 3481 3500 
L 3481 434 
z
" id="DejaVuSans-67" transform="scale(0.015625)"/>
      </defs>
      <use xlink:href="#DejaVuSans-43"/>
      <use x="69.824219" xlink:href="#DejaVuSans-6f"/>
      <use x="131.005859" xlink:href="#DejaVuSans-64"/>
      <use x="194.482422" xlink:href="#DejaVuSans-65"/>
      <use x="256.005859" xlink:href="#DejaVuSans-20"/>
      <use x="287.792969" xlink:href="#DejaVuSans-62"/>
      <use x="351.269531" xlink:href="#DejaVuSans-72"/>
      <use x="392.382812" xlink:href="#DejaVuSans-61"/>
      <use x="453.662109" xlink:href="#DejaVuSans-6e"/>
      <use x="517.041016" xlink:href="#DejaVuSans-63"/>
      <use x="572.021484" xlink:href="#DejaVuSans-68"/>
      <use x="635.400391" xlink:href="#DejaVuSans-20"/>
      <use x="667.1875" xlink:href="#DejaVuSans-63"/>
      <use x="722.167969" xlink:href="#DejaVuSans-6f"/>
      <use x="783.349609" xlink:href="#DejaVuSans-76"/>
      <use x="842.529297" xlink:href="#DejaVuSans-65"/>
      <use x="904.052734" xlink:href="#DejaVuSans-72"/>
      <use x="945.166016" xlink:href="#DejaVuSans-61"/>
      <use x="1006.445312" xlink:href="#DejaVuSans-67"/>
      <use x="1069.921875" xlink:href="#DejaVuSans-65"/>
     </g>
    </g>
   </g>
   <g id="line2d_35">
    <path clip-path="url(#p1bb0df59ed)" d="M 92.15608 270.860256 
L 191.688987 252.035148 
L 249.912006 239.086809 
L 291.221895 230.973257 
L 323.264335 224.33237 
L 349.444914 218.816822 
L 371.580278 212.759444 
L 390.754803 209.786327 
L 407.667933 205.257187 
L 422.797242 200.769726 
L 436.483368 196.851881 
L 448.977822 191.780911 
L 460.471605 190.183208 
L 471.113186 187.362915 
L 481.020261 184.084151 
L 490.287711 183.208888 
L 498.993142 181.652864 
L 507.20084 179.263256 
L 514.964657 177.207082 
L 522.33015 173.553205 
L 529.336205 172.08054 
L 536.016276 170.427265 
L 542.399355 166.926211 
L 548.51073 165.050647 
L 554.37259 160.827154 
L 560.004513 160.188073 
L 565.423859 157.18717 
L 570.646094 150.838038 
L 575.685054 148.865222 
L 580.553169 146.36447 
L 585.261644 144.586157 
L 589.820619 141.210142 
L 594.239294 138.653817 
L 598.52605 135.916883 
L 602.688533 134.096891 
L 606.733748 132.040717 
L 610.668121 130.10958 
L 614.497565 127.692186 
L 618.227531 125.538761 
L 621.863058 122.162745 
L 625.408809 119.703672 
L 628.869113 117.980931 
L 632.247989 115.105066 
L 635.549184 113.257288 
L 638.776188 110.18692 
L 641.932263 107.394413 
L 645.02046 106.449685 
L 648.043637 103.837788 
L 651.004477 103.004204 
L 653.905497 101.712148 
L 656.749068 100.781313 
L 659.537421 100.364521 
L 662.272658 99.892156 
L 664.956767 98.308347 
L 667.591623 95.307444 
L 670.179002 94.348822 
L 672.720584 91.472957 
L 675.217962 89.597393 
L 677.672648 88.569306 
L 680.086077 87.749615 
L 682.459612 83.956807 
L 684.794552 81.205979 
L 687.092131 79.997282 
L 689.353527 77.13531 
L 691.57986 75.190281 
L 693.772202 74.537307 
L 695.931576 73.787081 
L 698.058957 72.78678 
L 700.155281 72.161592 
L 702.221441 71.230756 
L 704.258293 70.605568 
L 706.266656 70.049845 
L 708.247317 68.535501 
L 710.201029 68.021457 
L 712.128516 67.243446 
L 714.030473 66.812761 
L 715.907567 66.298717 
L 717.760439 64.812159 
L 719.589708 63.172777 
L 721.395966 61.519501 
L 723.179786 60.477521 
L 724.941717 58.629743 
L 726.682292 56.879217 
L 728.40202 54.989759 
L 730.101397 53.975565 
L 731.780897 52.600152 
L 733.440981 50.669015 
L 735.082091 49.974362 
L 736.704658 48.974061 
L 738.309095 47.959867 
L 739.895804 46.792849 
L 741.46517 46.348271 
" style="fill:none;stroke:#98df8a;stroke-linecap:square;stroke-width:1.5;"/>
    <defs>
     <path d="M -0 3 
L 3 -3 
L -3 -3 
z
" id="mfa06c68467" style="stroke:#ffffff;stroke-linejoin:miter;stroke-width:0.75;"/>
    </defs>
    <g clip-path="url(#p1bb0df59ed)">
     <use style="fill:#98df8a;stroke:#ffffff;stroke-linejoin:miter;stroke-width:0.75;" x="92.15608" xlink:href="#mfa06c68467" y="270.860256"/>
     <use style="fill:#98df8a;stroke:#ffffff;stroke-linejoin:miter;stroke-width:0.75;" x="191.688987" xlink:href="#mfa06c68467" y="252.035148"/>
     <use style="fill:#98df8a;stroke:#ffffff;stroke-linejoin:miter;stroke-width:0.75;" x="249.912006" xlink:href="#mfa06c68467" y="239.086809"/>
     <use style="fill:#98df8a;stroke:#ffffff;stroke-linejoin:miter;stroke-width:0.75;" x="291.221895" xlink:href="#mfa06c68467" y="230.973257"/>
     <use style="fill:#98df8a;stroke:#ffffff;stroke-linejoin:miter;stroke-width:0.75;" x="323.264335" xlink:href="#mfa06c68467" y="224.33237"/>
     <use style="fill:#98df8a;stroke:#ffffff;stroke-linejoin:miter;stroke-width:0.75;" x="349.444914" xlink:href="#mfa06c68467" y="218.816822"/>
     <use style="fill:#98df8a;stroke:#ffffff;stroke-linejoin:miter;stroke-width:0.75;" x="371.580278" xlink:href="#mfa06c68467" y="212.759444"/>
     <use style="fill:#98df8a;stroke:#ffffff;stroke-linejoin:miter;stroke-width:0.75;" x="390.754803" xlink:href="#mfa06c68467" y="209.786327"/>
     <use style="fill:#98df8a;stroke:#ffffff;stroke-linejoin:miter;stroke-width:0.75;" x="407.667933" xlink:href="#mfa06c68467" y="205.257187"/>
     <use style="fill:#98df8a;stroke:#ffffff;stroke-linejoin:miter;stroke-width:0.75;" x="422.797242" xlink:href="#mfa06c68467" y="200.769726"/>
     <use style="fill:#98df8a;stroke:#ffffff;stroke-linejoin:miter;stroke-width:0.75;" x="436.483368" xlink:href="#mfa06c68467" y="196.851881"/>
     <use style="fill:#98df8a;stroke:#ffffff;stroke-linejoin:miter;stroke-width:0.75;" x="448.977822" xlink:href="#mfa06c68467" y="191.780911"/>
     <use style="fill:#98df8a;stroke:#ffffff;stroke-linejoin:miter;stroke-width:0.75;" x="460.471605" xlink:href="#mfa06c68467" y="190.183208"/>
     <use style="fill:#98df8a;stroke:#ffffff;stroke-linejoin:miter;stroke-width:0.75;" x="471.113186" xlink:href="#mfa06c68467" y="187.362915"/>
     <use style="fill:#98df8a;stroke:#ffffff;stroke-linejoin:miter;stroke-width:0.75;" x="481.020261" xlink:href="#mfa06c68467" y="184.084151"/>
     <use style="fill:#98df8a;stroke:#ffffff;stroke-linejoin:miter;stroke-width:0.75;" x="490.287711" xlink:href="#mfa06c68467" y="183.208888"/>
     <use style="fill:#98df8a;stroke:#ffffff;stroke-linejoin:miter;stroke-width:0.75;" x="498.993142" xlink:href="#mfa06c68467" y="181.652864"/>
     <use style="fill:#98df8a;stroke:#ffffff;stroke-linejoin:miter;stroke-width:0.75;" x="507.20084" xlink:href="#mfa06c68467" y="179.263256"/>
     <use style="fill:#98df8a;stroke:#ffffff;stroke-linejoin:miter;stroke-width:0.75;" x="514.964657" xlink:href="#mfa06c68467" y="177.207082"/>
     <use style="fill:#98df8a;stroke:#ffffff;stroke-linejoin:miter;stroke-width:0.75;" x="522.33015" xlink:href="#mfa06c68467" y="173.553205"/>
     <use style="fill:#98df8a;stroke:#ffffff;stroke-linejoin:miter;stroke-width:0.75;" x="529.336205" xlink:href="#mfa06c68467" y="172.08054"/>
     <use style="fill:#98df8a;stroke:#ffffff;stroke-linejoin:miter;stroke-width:0.75;" x="536.016276" xlink:href="#mfa06c68467" y="170.427265"/>
     <use style="fill:#98df8a;stroke:#ffffff;stroke-linejoin:miter;stroke-width:0.75;" x="542.399355" xlink:href="#mfa06c68467" y="166.926211"/>
     <use style="fill:#98df8a;stroke:#ffffff;stroke-linejoin:miter;stroke-width:0.75;" x="548.51073" xlink:href="#mfa06c68467" y="165.050647"/>
     <use style="fill:#98df8a;stroke:#ffffff;stroke-linejoin:miter;stroke-width:0.75;" x="554.37259" xlink:href="#mfa06c68467" y="160.827154"/>
     <use style="fill:#98df8a;stroke:#ffffff;stroke-linejoin:miter;stroke-width:0.75;" x="560.004513" xlink:href="#mfa06c68467" y="160.188073"/>
     <use style="fill:#98df8a;stroke:#ffffff;stroke-linejoin:miter;stroke-width:0.75;" x="565.423859" xlink:href="#mfa06c68467" y="157.18717"/>
     <use style="fill:#98df8a;stroke:#ffffff;stroke-linejoin:miter;stroke-width:0.75;" x="570.646094" xlink:href="#mfa06c68467" y="150.838038"/>
     <use style="fill:#98df8a;stroke:#ffffff;stroke-linejoin:miter;stroke-width:0.75;" x="575.685054" xlink:href="#mfa06c68467" y="148.865222"/>
     <use style="fill:#98df8a;stroke:#ffffff;stroke-linejoin:miter;stroke-width:0.75;" x="580.553169" xlink:href="#mfa06c68467" y="146.36447"/>
     <use style="fill:#98df8a;stroke:#ffffff;stroke-linejoin:miter;stroke-width:0.75;" x="585.261644" xlink:href="#mfa06c68467" y="144.586157"/>
     <use style="fill:#98df8a;stroke:#ffffff;stroke-linejoin:miter;stroke-width:0.75;" x="589.820619" xlink:href="#mfa06c68467" y="141.210142"/>
     <use style="fill:#98df8a;stroke:#ffffff;stroke-linejoin:miter;stroke-width:0.75;" x="594.239294" xlink:href="#mfa06c68467" y="138.653817"/>
     <use style="fill:#98df8a;stroke:#ffffff;stroke-linejoin:miter;stroke-width:0.75;" x="598.52605" xlink:href="#mfa06c68467" y="135.916883"/>
     <use style="fill:#98df8a;stroke:#ffffff;stroke-linejoin:miter;stroke-width:0.75;" x="602.688533" xlink:href="#mfa06c68467" y="134.096891"/>
     <use style="fill:#98df8a;stroke:#ffffff;stroke-linejoin:miter;stroke-width:0.75;" x="606.733748" xlink:href="#mfa06c68467" y="132.040717"/>
     <use style="fill:#98df8a;stroke:#ffffff;stroke-linejoin:miter;stroke-width:0.75;" x="610.668121" xlink:href="#mfa06c68467" y="130.10958"/>
     <use style="fill:#98df8a;stroke:#ffffff;stroke-linejoin:miter;stroke-width:0.75;" x="614.497565" xlink:href="#mfa06c68467" y="127.692186"/>
     <use style="fill:#98df8a;stroke:#ffffff;stroke-linejoin:miter;stroke-width:0.75;" x="618.227531" xlink:href="#mfa06c68467" y="125.538761"/>
     <use style="fill:#98df8a;stroke:#ffffff;stroke-linejoin:miter;stroke-width:0.75;" x="621.863058" xlink:href="#mfa06c68467" y="122.162745"/>
     <use style="fill:#98df8a;stroke:#ffffff;stroke-linejoin:miter;stroke-width:0.75;" x="625.408809" xlink:href="#mfa06c68467" y="119.703672"/>
     <use style="fill:#98df8a;stroke:#ffffff;stroke-linejoin:miter;stroke-width:0.75;" x="628.869113" xlink:href="#mfa06c68467" y="117.980931"/>
     <use style="fill:#98df8a;stroke:#ffffff;stroke-linejoin:miter;stroke-width:0.75;" x="632.247989" xlink:href="#mfa06c68467" y="115.105066"/>
     <use style="fill:#98df8a;stroke:#ffffff;stroke-linejoin:miter;stroke-width:0.75;" x="635.549184" xlink:href="#mfa06c68467" y="113.257288"/>
     <use style="fill:#98df8a;stroke:#ffffff;stroke-linejoin:miter;stroke-width:0.75;" x="638.776188" xlink:href="#mfa06c68467" y="110.18692"/>
     <use style="fill:#98df8a;stroke:#ffffff;stroke-linejoin:miter;stroke-width:0.75;" x="641.932263" xlink:href="#mfa06c68467" y="107.394413"/>
     <use style="fill:#98df8a;stroke:#ffffff;stroke-linejoin:miter;stroke-width:0.75;" x="645.02046" xlink:href="#mfa06c68467" y="106.449685"/>
     <use style="fill:#98df8a;stroke:#ffffff;stroke-linejoin:miter;stroke-width:0.75;" x="648.043637" xlink:href="#mfa06c68467" y="103.837788"/>
     <use style="fill:#98df8a;stroke:#ffffff;stroke-linejoin:miter;stroke-width:0.75;" x="651.004477" xlink:href="#mfa06c68467" y="103.004204"/>
     <use style="fill:#98df8a;stroke:#ffffff;stroke-linejoin:miter;stroke-width:0.75;" x="653.905497" xlink:href="#mfa06c68467" y="101.712148"/>
     <use style="fill:#98df8a;stroke:#ffffff;stroke-linejoin:miter;stroke-width:0.75;" x="656.749068" xlink:href="#mfa06c68467" y="100.781313"/>
     <use style="fill:#98df8a;stroke:#ffffff;stroke-linejoin:miter;stroke-width:0.75;" x="659.537421" xlink:href="#mfa06c68467" y="100.364521"/>
     <use style="fill:#98df8a;stroke:#ffffff;stroke-linejoin:miter;stroke-width:0.75;" x="662.272658" xlink:href="#mfa06c68467" y="99.892156"/>
     <use style="fill:#98df8a;stroke:#ffffff;stroke-linejoin:miter;stroke-width:0.75;" x="664.956767" xlink:href="#mfa06c68467" y="98.308347"/>
     <use style="fill:#98df8a;stroke:#ffffff;stroke-linejoin:miter;stroke-width:0.75;" x="667.591623" xlink:href="#mfa06c68467" y="95.307444"/>
     <use style="fill:#98df8a;stroke:#ffffff;stroke-linejoin:miter;stroke-width:0.75;" x="670.179002" xlink:href="#mfa06c68467" y="94.348822"/>
     <use style="fill:#98df8a;stroke:#ffffff;stroke-linejoin:miter;stroke-width:0.75;" x="672.720584" xlink:href="#mfa06c68467" y="91.472957"/>
     <use style="fill:#98df8a;stroke:#ffffff;stroke-linejoin:miter;stroke-width:0.75;" x="675.217962" xlink:href="#mfa06c68467" y="89.597393"/>
     <use style="fill:#98df8a;stroke:#ffffff;stroke-linejoin:miter;stroke-width:0.75;" x="677.672648" xlink:href="#mfa06c68467" y="88.569306"/>
     <use style="fill:#98df8a;stroke:#ffffff;stroke-linejoin:miter;stroke-width:0.75;" x="680.086077" xlink:href="#mfa06c68467" y="87.749615"/>
     <use style="fill:#98df8a;stroke:#ffffff;stroke-linejoin:miter;stroke-width:0.75;" x="682.459612" xlink:href="#mfa06c68467" y="83.956807"/>
     <use style="fill:#98df8a;stroke:#ffffff;stroke-linejoin:miter;stroke-width:0.75;" x="684.794552" xlink:href="#mfa06c68467" y="81.205979"/>
     <use style="fill:#98df8a;stroke:#ffffff;stroke-linejoin:miter;stroke-width:0.75;" x="687.092131" xlink:href="#mfa06c68467" y="79.997282"/>
     <use style="fill:#98df8a;stroke:#ffffff;stroke-linejoin:miter;stroke-width:0.75;" x="689.353527" xlink:href="#mfa06c68467" y="77.13531"/>
     <use style="fill:#98df8a;stroke:#ffffff;stroke-linejoin:miter;stroke-width:0.75;" x="691.57986" xlink:href="#mfa06c68467" y="75.190281"/>
     <use style="fill:#98df8a;stroke:#ffffff;stroke-linejoin:miter;stroke-width:0.75;" x="693.772202" xlink:href="#mfa06c68467" y="74.537307"/>
     <use style="fill:#98df8a;stroke:#ffffff;stroke-linejoin:miter;stroke-width:0.75;" x="695.931576" xlink:href="#mfa06c68467" y="73.787081"/>
     <use style="fill:#98df8a;stroke:#ffffff;stroke-linejoin:miter;stroke-width:0.75;" x="698.058957" xlink:href="#mfa06c68467" y="72.78678"/>
     <use style="fill:#98df8a;stroke:#ffffff;stroke-linejoin:miter;stroke-width:0.75;" x="700.155281" xlink:href="#mfa06c68467" y="72.161592"/>
     <use style="fill:#98df8a;stroke:#ffffff;stroke-linejoin:miter;stroke-width:0.75;" x="702.221441" xlink:href="#mfa06c68467" y="71.230756"/>
     <use style="fill:#98df8a;stroke:#ffffff;stroke-linejoin:miter;stroke-width:0.75;" x="704.258293" xlink:href="#mfa06c68467" y="70.605568"/>
     <use style="fill:#98df8a;stroke:#ffffff;stroke-linejoin:miter;stroke-width:0.75;" x="706.266656" xlink:href="#mfa06c68467" y="70.049845"/>
     <use style="fill:#98df8a;stroke:#ffffff;stroke-linejoin:miter;stroke-width:0.75;" x="708.247317" xlink:href="#mfa06c68467" y="68.535501"/>
     <use style="fill:#98df8a;stroke:#ffffff;stroke-linejoin:miter;stroke-width:0.75;" x="710.201029" xlink:href="#mfa06c68467" y="68.021457"/>
     <use style="fill:#98df8a;stroke:#ffffff;stroke-linejoin:miter;stroke-width:0.75;" x="712.128516" xlink:href="#mfa06c68467" y="67.243446"/>
     <use style="fill:#98df8a;stroke:#ffffff;stroke-linejoin:miter;stroke-width:0.75;" x="714.030473" xlink:href="#mfa06c68467" y="66.812761"/>
     <use style="fill:#98df8a;stroke:#ffffff;stroke-linejoin:miter;stroke-width:0.75;" x="715.907567" xlink:href="#mfa06c68467" y="66.298717"/>
     <use style="fill:#98df8a;stroke:#ffffff;stroke-linejoin:miter;stroke-width:0.75;" x="717.760439" xlink:href="#mfa06c68467" y="64.812159"/>
     <use style="fill:#98df8a;stroke:#ffffff;stroke-linejoin:miter;stroke-width:0.75;" x="719.589708" xlink:href="#mfa06c68467" y="63.172777"/>
     <use style="fill:#98df8a;stroke:#ffffff;stroke-linejoin:miter;stroke-width:0.75;" x="721.395966" xlink:href="#mfa06c68467" y="61.519501"/>
     <use style="fill:#98df8a;stroke:#ffffff;stroke-linejoin:miter;stroke-width:0.75;" x="723.179786" xlink:href="#mfa06c68467" y="60.477521"/>
     <use style="fill:#98df8a;stroke:#ffffff;stroke-linejoin:miter;stroke-width:0.75;" x="724.941717" xlink:href="#mfa06c68467" y="58.629743"/>
     <use style="fill:#98df8a;stroke:#ffffff;stroke-linejoin:miter;stroke-width:0.75;" x="726.682292" xlink:href="#mfa06c68467" y="56.879217"/>
     <use style="fill:#98df8a;stroke:#ffffff;stroke-linejoin:miter;stroke-width:0.75;" x="728.40202" xlink:href="#mfa06c68467" y="54.989759"/>
     <use style="fill:#98df8a;stroke:#ffffff;stroke-linejoin:miter;stroke-width:0.75;" x="730.101397" xlink:href="#mfa06c68467" y="53.975565"/>
     <use style="fill:#98df8a;stroke:#ffffff;stroke-linejoin:miter;stroke-width:0.75;" x="731.780897" xlink:href="#mfa06c68467" y="52.600152"/>
     <use style="fill:#98df8a;stroke:#ffffff;stroke-linejoin:miter;stroke-width:0.75;" x="733.440981" xlink:href="#mfa06c68467" y="50.669015"/>
     <use style="fill:#98df8a;stroke:#ffffff;stroke-linejoin:miter;stroke-width:0.75;" x="735.082091" xlink:href="#mfa06c68467" y="49.974362"/>
     <use style="fill:#98df8a;stroke:#ffffff;stroke-linejoin:miter;stroke-width:0.75;" x="736.704658" xlink:href="#mfa06c68467" y="48.974061"/>
     <use style="fill:#98df8a;stroke:#ffffff;stroke-linejoin:miter;stroke-width:0.75;" x="738.309095" xlink:href="#mfa06c68467" y="47.959867"/>
     <use style="fill:#98df8a;stroke:#ffffff;stroke-linejoin:miter;stroke-width:0.75;" x="739.895804" xlink:href="#mfa06c68467" y="46.792849"/>
     <use style="fill:#98df8a;stroke:#ffffff;stroke-linejoin:miter;stroke-width:0.75;" x="741.46517" xlink:href="#mfa06c68467" y="46.348271"/>
    </g>
   </g>
   <g id="line2d_36">
    <path clip-path="url(#p1bb0df59ed)" d="M 92.15608 269.846062 
L 191.688987 256.30032 
L 249.912006 246.408456 
L 291.221895 237.808646 
L 323.264335 227.736172 
L 349.444914 222.554057 
L 371.580278 211.356244 
L 390.754803 207.063286 
L 407.667933 203.048189 
L 422.797242 197.838289 
L 436.483368 192.822891 
L 448.977822 190.280459 
L 460.471605 185.598495 
L 471.113186 180.374702 
L 481.020261 177.83227 
L 490.287711 169.746504 
L 498.993142 165.92591 
L 507.20084 163.077831 
L 514.964657 160.090822 
L 522.33015 157.729 
L 529.336205 154.505808 
L 536.016276 153.241539 
L 542.399355 152.213452 
L 548.51073 151.213151 
L 554.37259 150.476818 
L 560.004513 149.573769 
L 565.423859 148.517896 
L 570.646094 145.155773 
L 575.685054 144.072114 
L 580.553169 143.641429 
L 585.261644 141.098997 
L 589.820619 138.778855 
L 594.239294 137.667409 
L 598.52605 137.153366 
L 602.688533 136.833825 
L 606.733748 135.930776 
L 610.668121 134.277501 
L 614.497565 133.263307 
L 618.227531 131.679497 
L 621.863058 129.623323 
L 625.408809 129.178745 
L 628.869113 127.039212 
L 632.247989 125.76105 
L 635.549184 124.996931 
L 638.776188 124.399529 
L 641.932263 123.427014 
L 645.02046 120.245502 
L 648.043637 119.856496 
L 651.004477 118.828409 
L 653.905497 118.161541 
L 656.749068 116.813914 
L 659.537421 114.702167 
L 662.272658 113.146144 
L 664.956767 112.076377 
L 667.591623 110.978825 
L 670.179002 110.228599 
L 672.720584 109.311657 
L 675.217962 108.353035 
L 677.672648 107.088766 
L 680.086077 104.546334 
L 682.459612 103.462675 
L 684.794552 101.559325 
L 687.092131 99.781012 
L 689.353527 97.516442 
L 691.57986 96.530034 
L 693.772202 95.890953 
L 695.931576 94.098747 
L 698.058957 93.154018 
L 700.155281 92.125931 
L 702.221441 89.416783 
L 704.258293 88.555413 
L 706.266656 88.124727 
L 708.247317 87.707935 
L 710.201029 86.749314 
L 712.128516 86.471452 
L 714.030473 86.374201 
L 715.907567 81.34491 
L 717.760439 80.441861 
L 719.589708 77.649354 
L 721.395966 76.676839 
L 723.179786 75.607073 
L 724.941717 75.245853 
L 726.682292 74.995778 
L 728.40202 74.231659 
L 730.101397 73.370289 
L 731.780897 72.717315 
L 733.440981 71.939303 
L 735.082091 70.88343 
L 736.704658 70.577782 
L 738.309095 69.924808 
L 739.895804 68.9384 
L 741.46517 68.75779 
" style="fill:none;stroke:#1f77b4;stroke-linecap:square;stroke-width:1.5;"/>
    <defs>
     <path d="M 0 3 
C 0.795609 3 1.55874 2.683901 2.12132 2.12132 
C 2.683901 1.55874 3 0.795609 3 0 
C 3 -0.795609 2.683901 -1.55874 2.12132 -2.12132 
C 1.55874 -2.683901 0.795609 -3 0 -3 
C -0.795609 -3 -1.55874 -2.683901 -2.12132 -2.12132 
C -2.683901 -1.55874 -3 -0.795609 -3 0 
C -3 0.795609 -2.683901 1.55874 -2.12132 2.12132 
C -1.55874 2.683901 -0.795609 3 0 3 
z
" id="medda9e9b1c" style="stroke:#ffffff;stroke-width:0.75;"/>
    </defs>
    <g clip-path="url(#p1bb0df59ed)">
     <use style="fill:#1f77b4;stroke:#ffffff;stroke-width:0.75;" x="92.15608" xlink:href="#medda9e9b1c" y="269.846062"/>
     <use style="fill:#1f77b4;stroke:#ffffff;stroke-width:0.75;" x="191.688987" xlink:href="#medda9e9b1c" y="256.30032"/>
     <use style="fill:#1f77b4;stroke:#ffffff;stroke-width:0.75;" x="249.912006" xlink:href="#medda9e9b1c" y="246.408456"/>
     <use style="fill:#1f77b4;stroke:#ffffff;stroke-width:0.75;" x="291.221895" xlink:href="#medda9e9b1c" y="237.808646"/>
     <use style="fill:#1f77b4;stroke:#ffffff;stroke-width:0.75;" x="323.264335" xlink:href="#medda9e9b1c" y="227.736172"/>
     <use style="fill:#1f77b4;stroke:#ffffff;stroke-width:0.75;" x="349.444914" xlink:href="#medda9e9b1c" y="222.554057"/>
     <use style="fill:#1f77b4;stroke:#ffffff;stroke-width:0.75;" x="371.580278" xlink:href="#medda9e9b1c" y="211.356244"/>
     <use style="fill:#1f77b4;stroke:#ffffff;stroke-width:0.75;" x="390.754803" xlink:href="#medda9e9b1c" y="207.063286"/>
     <use style="fill:#1f77b4;stroke:#ffffff;stroke-width:0.75;" x="407.667933" xlink:href="#medda9e9b1c" y="203.048189"/>
     <use style="fill:#1f77b4;stroke:#ffffff;stroke-width:0.75;" x="422.797242" xlink:href="#medda9e9b1c" y="197.838289"/>
     <use style="fill:#1f77b4;stroke:#ffffff;stroke-width:0.75;" x="436.483368" xlink:href="#medda9e9b1c" y="192.822891"/>
     <use style="fill:#1f77b4;stroke:#ffffff;stroke-width:0.75;" x="448.977822" xlink:href="#medda9e9b1c" y="190.280459"/>
     <use style="fill:#1f77b4;stroke:#ffffff;stroke-width:0.75;" x="460.471605" xlink:href="#medda9e9b1c" y="185.598495"/>
     <use style="fill:#1f77b4;stroke:#ffffff;stroke-width:0.75;" x="471.113186" xlink:href="#medda9e9b1c" y="180.374702"/>
     <use style="fill:#1f77b4;stroke:#ffffff;stroke-width:0.75;" x="481.020261" xlink:href="#medda9e9b1c" y="177.83227"/>
     <use style="fill:#1f77b4;stroke:#ffffff;stroke-width:0.75;" x="490.287711" xlink:href="#medda9e9b1c" y="169.746504"/>
     <use style="fill:#1f77b4;stroke:#ffffff;stroke-width:0.75;" x="498.993142" xlink:href="#medda9e9b1c" y="165.92591"/>
     <use style="fill:#1f77b4;stroke:#ffffff;stroke-width:0.75;" x="507.20084" xlink:href="#medda9e9b1c" y="163.077831"/>
     <use style="fill:#1f77b4;stroke:#ffffff;stroke-width:0.75;" x="514.964657" xlink:href="#medda9e9b1c" y="160.090822"/>
     <use style="fill:#1f77b4;stroke:#ffffff;stroke-width:0.75;" x="522.33015" xlink:href="#medda9e9b1c" y="157.729"/>
     <use style="fill:#1f77b4;stroke:#ffffff;stroke-width:0.75;" x="529.336205" xlink:href="#medda9e9b1c" y="154.505808"/>
     <use style="fill:#1f77b4;stroke:#ffffff;stroke-width:0.75;" x="536.016276" xlink:href="#medda9e9b1c" y="153.241539"/>
     <use style="fill:#1f77b4;stroke:#ffffff;stroke-width:0.75;" x="542.399355" xlink:href="#medda9e9b1c" y="152.213452"/>
     <use style="fill:#1f77b4;stroke:#ffffff;stroke-width:0.75;" x="548.51073" xlink:href="#medda9e9b1c" y="151.213151"/>
     <use style="fill:#1f77b4;stroke:#ffffff;stroke-width:0.75;" x="554.37259" xlink:href="#medda9e9b1c" y="150.476818"/>
     <use style="fill:#1f77b4;stroke:#ffffff;stroke-width:0.75;" x="560.004513" xlink:href="#medda9e9b1c" y="149.573769"/>
     <use style="fill:#1f77b4;stroke:#ffffff;stroke-width:0.75;" x="565.423859" xlink:href="#medda9e9b1c" y="148.517896"/>
     <use style="fill:#1f77b4;stroke:#ffffff;stroke-width:0.75;" x="570.646094" xlink:href="#medda9e9b1c" y="145.155773"/>
     <use style="fill:#1f77b4;stroke:#ffffff;stroke-width:0.75;" x="575.685054" xlink:href="#medda9e9b1c" y="144.072114"/>
     <use style="fill:#1f77b4;stroke:#ffffff;stroke-width:0.75;" x="580.553169" xlink:href="#medda9e9b1c" y="143.641429"/>
     <use style="fill:#1f77b4;stroke:#ffffff;stroke-width:0.75;" x="585.261644" xlink:href="#medda9e9b1c" y="141.098997"/>
     <use style="fill:#1f77b4;stroke:#ffffff;stroke-width:0.75;" x="589.820619" xlink:href="#medda9e9b1c" y="138.778855"/>
     <use style="fill:#1f77b4;stroke:#ffffff;stroke-width:0.75;" x="594.239294" xlink:href="#medda9e9b1c" y="137.667409"/>
     <use style="fill:#1f77b4;stroke:#ffffff;stroke-width:0.75;" x="598.52605" xlink:href="#medda9e9b1c" y="137.153366"/>
     <use style="fill:#1f77b4;stroke:#ffffff;stroke-width:0.75;" x="602.688533" xlink:href="#medda9e9b1c" y="136.833825"/>
     <use style="fill:#1f77b4;stroke:#ffffff;stroke-width:0.75;" x="606.733748" xlink:href="#medda9e9b1c" y="135.930776"/>
     <use style="fill:#1f77b4;stroke:#ffffff;stroke-width:0.75;" x="610.668121" xlink:href="#medda9e9b1c" y="134.277501"/>
     <use style="fill:#1f77b4;stroke:#ffffff;stroke-width:0.75;" x="614.497565" xlink:href="#medda9e9b1c" y="133.263307"/>
     <use style="fill:#1f77b4;stroke:#ffffff;stroke-width:0.75;" x="618.227531" xlink:href="#medda9e9b1c" y="131.679497"/>
     <use style="fill:#1f77b4;stroke:#ffffff;stroke-width:0.75;" x="621.863058" xlink:href="#medda9e9b1c" y="129.623323"/>
     <use style="fill:#1f77b4;stroke:#ffffff;stroke-width:0.75;" x="625.408809" xlink:href="#medda9e9b1c" y="129.178745"/>
     <use style="fill:#1f77b4;stroke:#ffffff;stroke-width:0.75;" x="628.869113" xlink:href="#medda9e9b1c" y="127.039212"/>
     <use style="fill:#1f77b4;stroke:#ffffff;stroke-width:0.75;" x="632.247989" xlink:href="#medda9e9b1c" y="125.76105"/>
     <use style="fill:#1f77b4;stroke:#ffffff;stroke-width:0.75;" x="635.549184" xlink:href="#medda9e9b1c" y="124.996931"/>
     <use style="fill:#1f77b4;stroke:#ffffff;stroke-width:0.75;" x="638.776188" xlink:href="#medda9e9b1c" y="124.399529"/>
     <use style="fill:#1f77b4;stroke:#ffffff;stroke-width:0.75;" x="641.932263" xlink:href="#medda9e9b1c" y="123.427014"/>
     <use style="fill:#1f77b4;stroke:#ffffff;stroke-width:0.75;" x="645.02046" xlink:href="#medda9e9b1c" y="120.245502"/>
     <use style="fill:#1f77b4;stroke:#ffffff;stroke-width:0.75;" x="648.043637" xlink:href="#medda9e9b1c" y="119.856496"/>
     <use style="fill:#1f77b4;stroke:#ffffff;stroke-width:0.75;" x="651.004477" xlink:href="#medda9e9b1c" y="118.828409"/>
     <use style="fill:#1f77b4;stroke:#ffffff;stroke-width:0.75;" x="653.905497" xlink:href="#medda9e9b1c" y="118.161541"/>
     <use style="fill:#1f77b4;stroke:#ffffff;stroke-width:0.75;" x="656.749068" xlink:href="#medda9e9b1c" y="116.813914"/>
     <use style="fill:#1f77b4;stroke:#ffffff;stroke-width:0.75;" x="659.537421" xlink:href="#medda9e9b1c" y="114.702167"/>
     <use style="fill:#1f77b4;stroke:#ffffff;stroke-width:0.75;" x="662.272658" xlink:href="#medda9e9b1c" y="113.146144"/>
     <use style="fill:#1f77b4;stroke:#ffffff;stroke-width:0.75;" x="664.956767" xlink:href="#medda9e9b1c" y="112.076377"/>
     <use style="fill:#1f77b4;stroke:#ffffff;stroke-width:0.75;" x="667.591623" xlink:href="#medda9e9b1c" y="110.978825"/>
     <use style="fill:#1f77b4;stroke:#ffffff;stroke-width:0.75;" x="670.179002" xlink:href="#medda9e9b1c" y="110.228599"/>
     <use style="fill:#1f77b4;stroke:#ffffff;stroke-width:0.75;" x="672.720584" xlink:href="#medda9e9b1c" y="109.311657"/>
     <use style="fill:#1f77b4;stroke:#ffffff;stroke-width:0.75;" x="675.217962" xlink:href="#medda9e9b1c" y="108.353035"/>
     <use style="fill:#1f77b4;stroke:#ffffff;stroke-width:0.75;" x="677.672648" xlink:href="#medda9e9b1c" y="107.088766"/>
     <use style="fill:#1f77b4;stroke:#ffffff;stroke-width:0.75;" x="680.086077" xlink:href="#medda9e9b1c" y="104.546334"/>
     <use style="fill:#1f77b4;stroke:#ffffff;stroke-width:0.75;" x="682.459612" xlink:href="#medda9e9b1c" y="103.462675"/>
     <use style="fill:#1f77b4;stroke:#ffffff;stroke-width:0.75;" x="684.794552" xlink:href="#medda9e9b1c" y="101.559325"/>
     <use style="fill:#1f77b4;stroke:#ffffff;stroke-width:0.75;" x="687.092131" xlink:href="#medda9e9b1c" y="99.781012"/>
     <use style="fill:#1f77b4;stroke:#ffffff;stroke-width:0.75;" x="689.353527" xlink:href="#medda9e9b1c" y="97.516442"/>
     <use style="fill:#1f77b4;stroke:#ffffff;stroke-width:0.75;" x="691.57986" xlink:href="#medda9e9b1c" y="96.530034"/>
     <use style="fill:#1f77b4;stroke:#ffffff;stroke-width:0.75;" x="693.772202" xlink:href="#medda9e9b1c" y="95.890953"/>
     <use style="fill:#1f77b4;stroke:#ffffff;stroke-width:0.75;" x="695.931576" xlink:href="#medda9e9b1c" y="94.098747"/>
     <use style="fill:#1f77b4;stroke:#ffffff;stroke-width:0.75;" x="698.058957" xlink:href="#medda9e9b1c" y="93.154018"/>
     <use style="fill:#1f77b4;stroke:#ffffff;stroke-width:0.75;" x="700.155281" xlink:href="#medda9e9b1c" y="92.125931"/>
     <use style="fill:#1f77b4;stroke:#ffffff;stroke-width:0.75;" x="702.221441" xlink:href="#medda9e9b1c" y="89.416783"/>
     <use style="fill:#1f77b4;stroke:#ffffff;stroke-width:0.75;" x="704.258293" xlink:href="#medda9e9b1c" y="88.555413"/>
     <use style="fill:#1f77b4;stroke:#ffffff;stroke-width:0.75;" x="706.266656" xlink:href="#medda9e9b1c" y="88.124727"/>
     <use style="fill:#1f77b4;stroke:#ffffff;stroke-width:0.75;" x="708.247317" xlink:href="#medda9e9b1c" y="87.707935"/>
     <use style="fill:#1f77b4;stroke:#ffffff;stroke-width:0.75;" x="710.201029" xlink:href="#medda9e9b1c" y="86.749314"/>
     <use style="fill:#1f77b4;stroke:#ffffff;stroke-width:0.75;" x="712.128516" xlink:href="#medda9e9b1c" y="86.471452"/>
     <use style="fill:#1f77b4;stroke:#ffffff;stroke-width:0.75;" x="714.030473" xlink:href="#medda9e9b1c" y="86.374201"/>
     <use style="fill:#1f77b4;stroke:#ffffff;stroke-width:0.75;" x="715.907567" xlink:href="#medda9e9b1c" y="81.34491"/>
     <use style="fill:#1f77b4;stroke:#ffffff;stroke-width:0.75;" x="717.760439" xlink:href="#medda9e9b1c" y="80.441861"/>
     <use style="fill:#1f77b4;stroke:#ffffff;stroke-width:0.75;" x="719.589708" xlink:href="#medda9e9b1c" y="77.649354"/>
     <use style="fill:#1f77b4;stroke:#ffffff;stroke-width:0.75;" x="721.395966" xlink:href="#medda9e9b1c" y="76.676839"/>
     <use style="fill:#1f77b4;stroke:#ffffff;stroke-width:0.75;" x="723.179786" xlink:href="#medda9e9b1c" y="75.607073"/>
     <use style="fill:#1f77b4;stroke:#ffffff;stroke-width:0.75;" x="724.941717" xlink:href="#medda9e9b1c" y="75.245853"/>
     <use style="fill:#1f77b4;stroke:#ffffff;stroke-width:0.75;" x="726.682292" xlink:href="#medda9e9b1c" y="74.995778"/>
     <use style="fill:#1f77b4;stroke:#ffffff;stroke-width:0.75;" x="728.40202" xlink:href="#medda9e9b1c" y="74.231659"/>
     <use style="fill:#1f77b4;stroke:#ffffff;stroke-width:0.75;" x="730.101397" xlink:href="#medda9e9b1c" y="73.370289"/>
     <use style="fill:#1f77b4;stroke:#ffffff;stroke-width:0.75;" x="731.780897" xlink:href="#medda9e9b1c" y="72.717315"/>
     <use style="fill:#1f77b4;stroke:#ffffff;stroke-width:0.75;" x="733.440981" xlink:href="#medda9e9b1c" y="71.939303"/>
     <use style="fill:#1f77b4;stroke:#ffffff;stroke-width:0.75;" x="735.082091" xlink:href="#medda9e9b1c" y="70.88343"/>
     <use style="fill:#1f77b4;stroke:#ffffff;stroke-width:0.75;" x="736.704658" xlink:href="#medda9e9b1c" y="70.577782"/>
     <use style="fill:#1f77b4;stroke:#ffffff;stroke-width:0.75;" x="738.309095" xlink:href="#medda9e9b1c" y="69.924808"/>
     <use style="fill:#1f77b4;stroke:#ffffff;stroke-width:0.75;" x="739.895804" xlink:href="#medda9e9b1c" y="68.9384"/>
     <use style="fill:#1f77b4;stroke:#ffffff;stroke-width:0.75;" x="741.46517" xlink:href="#medda9e9b1c" y="68.75779"/>
    </g>
   </g>
   <g id="line2d_37"/>
   <g id="line2d_38"/>
   <g id="line2d_39">
    <path clip-path="url(#p1bb0df59ed)" d="M 741.46517 288.430125 
L 741.46517 22.318125 
" style="fill:none;stroke:#ff0000;stroke-linecap:square;stroke-width:1.5;"/>
   </g>
   <g id="patch_3">
    <path d="M 59.690625 286.22599 
L 59.690625 63.936895 
" style="fill:none;stroke:#000000;stroke-linecap:square;stroke-linejoin:miter;stroke-width:0.8;"/>
   </g>
   <g id="patch_4">
    <path d="M 92.15608 288.430125 
L 741.466905 288.430125 
" style="fill:none;stroke:#000000;stroke-linecap:square;stroke-linejoin:miter;stroke-width:0.8;"/>
   </g>
   <g id="text_20">
    <!-- sqlite3_ossfuzz (23h, 10 trials/fuzzer) -->
    <g transform="translate(304.815938 16.318125)scale(0.12 -0.12)">
     <defs>
      <path d="M 2834 3397 
L 2834 2853 
Q 2591 2978 2328 3040 
Q 2066 3103 1784 3103 
Q 1356 3103 1142 2972 
Q 928 2841 928 2578 
Q 928 2378 1081 2264 
Q 1234 2150 1697 2047 
L 1894 2003 
Q 2506 1872 2764 1633 
Q 3022 1394 3022 966 
Q 3022 478 2636 193 
Q 2250 -91 1575 -91 
Q 1294 -91 989 -36 
Q 684 19 347 128 
L 347 722 
Q 666 556 975 473 
Q 1284 391 1588 391 
Q 1994 391 2212 530 
Q 2431 669 2431 922 
Q 2431 1156 2273 1281 
Q 2116 1406 1581 1522 
L 1381 1569 
Q 847 1681 609 1914 
Q 372 2147 372 2553 
Q 372 3047 722 3315 
Q 1072 3584 1716 3584 
Q 2034 3584 2315 3537 
Q 2597 3491 2834 3397 
z
" id="DejaVuSans-73" transform="scale(0.015625)"/>
      <path d="M 947 1747 
Q 947 1113 1208 752 
Q 1469 391 1925 391 
Q 2381 391 2643 752 
Q 2906 1113 2906 1747 
Q 2906 2381 2643 2742 
Q 2381 3103 1925 3103 
Q 1469 3103 1208 2742 
Q 947 2381 947 1747 
z
M 2906 525 
Q 2725 213 2448 61 
Q 2172 -91 1784 -91 
Q 1150 -91 751 415 
Q 353 922 353 1747 
Q 353 2572 751 3078 
Q 1150 3584 1784 3584 
Q 2172 3584 2448 3432 
Q 2725 3281 2906 2969 
L 2906 3500 
L 3481 3500 
L 3481 -1331 
L 2906 -1331 
L 2906 525 
z
" id="DejaVuSans-71" transform="scale(0.015625)"/>
      <path d="M 603 4863 
L 1178 4863 
L 1178 0 
L 603 0 
L 603 4863 
z
" id="DejaVuSans-6c" transform="scale(0.015625)"/>
      <path d="M 3263 -1063 
L 3263 -1509 
L -63 -1509 
L -63 -1063 
L 3263 -1063 
z
" id="DejaVuSans-5f" transform="scale(0.015625)"/>
      <path d="M 2375 4863 
L 2375 4384 
L 1825 4384 
Q 1516 4384 1395 4259 
Q 1275 4134 1275 3809 
L 1275 3500 
L 2222 3500 
L 2222 3053 
L 1275 3053 
L 1275 0 
L 697 0 
L 697 3053 
L 147 3053 
L 147 3500 
L 697 3500 
L 697 3744 
Q 697 4328 969 4595 
Q 1241 4863 1831 4863 
L 2375 4863 
z
" id="DejaVuSans-66" transform="scale(0.015625)"/>
      <path d="M 353 3500 
L 3084 3500 
L 3084 2975 
L 922 459 
L 3084 459 
L 3084 0 
L 275 0 
L 275 525 
L 2438 3041 
L 353 3041 
L 353 3500 
z
" id="DejaVuSans-7a" transform="scale(0.015625)"/>
      <path d="M 750 794 
L 1409 794 
L 1409 256 
L 897 -744 
L 494 -744 
L 750 256 
L 750 794 
z
" id="DejaVuSans-2c" transform="scale(0.015625)"/>
      <path d="M 1625 4666 
L 2156 4666 
L 531 -594 
L 0 -594 
L 1625 4666 
z
" id="DejaVuSans-2f" transform="scale(0.015625)"/>
     </defs>
     <use xlink:href="#DejaVuSans-73"/>
     <use x="52.099609" xlink:href="#DejaVuSans-71"/>
     <use x="115.576172" xlink:href="#DejaVuSans-6c"/>
     <use x="143.359375" xlink:href="#DejaVuSans-69"/>
     <use x="171.142578" xlink:href="#DejaVuSans-74"/>
     <use x="210.351562" xlink:href="#DejaVuSans-65"/>
     <use x="271.875" xlink:href="#DejaVuSans-33"/>
     <use x="335.498047" xlink:href="#DejaVuSans-5f"/>
     <use x="385.498047" xlink:href="#DejaVuSans-6f"/>
     <use x="446.679688" xlink:href="#DejaVuSans-73"/>
     <use x="498.779297" xlink:href="#DejaVuSans-73"/>
     <use x="550.878906" xlink:href="#DejaVuSans-66"/>
     <use x="586.083984" xlink:href="#DejaVuSans-75"/>
     <use x="649.462891" xlink:href="#DejaVuSans-7a"/>
     <use x="701.953125" xlink:href="#DejaVuSans-7a"/>
     <use x="754.443359" xlink:href="#DejaVuSans-20"/>
     <use x="786.230469" xlink:href="#DejaVuSans-28"/>
     <use x="825.244141" xlink:href="#DejaVuSans-32"/>
     <use x="888.867188" xlink:href="#DejaVuSans-33"/>
     <use x="952.490234" xlink:href="#DejaVuSans-68"/>
     <use x="1015.869141" xlink:href="#DejaVuSans-2c"/>
     <use x="1047.65625" xlink:href="#DejaVuSans-20"/>
     <use x="1079.443359" xlink:href="#DejaVuSans-31"/>
     <use x="1143.066406" xlink:href="#DejaVuSans-30"/>
     <use x="1206.689453" xlink:href="#DejaVuSans-20"/>
     <use x="1238.476562" xlink:href="#DejaVuSans-74"/>
     <use x="1277.685547" xlink:href="#DejaVuSans-72"/>
     <use x="1318.798828" xlink:href="#DejaVuSans-69"/>
     <use x="1346.582031" xlink:href="#DejaVuSans-61"/>
     <use x="1407.861328" xlink:href="#DejaVuSans-6c"/>
     <use x="1435.644531" xlink:href="#DejaVuSans-73"/>
     <use x="1487.744141" xlink:href="#DejaVuSans-2f"/>
     <use x="1521.435547" xlink:href="#DejaVuSans-66"/>
     <use x="1556.640625" xlink:href="#DejaVuSans-75"/>
     <use x="1620.019531" xlink:href="#DejaVuSans-7a"/>
     <use x="1672.509766" xlink:href="#DejaVuSans-7a"/>
     <use x="1725" xlink:href="#DejaVuSans-65"/>
     <use x="1786.523438" xlink:href="#DejaVuSans-72"/>
     <use x="1827.636719" xlink:href="#DejaVuSans-29"/>
    </g>
   </g>
   <g id="legend_1">
    <g id="line2d_40">
     <path d="M 777.930625 30.416563 
L 797.930625 30.416563 
" style="fill:none;stroke:#98df8a;stroke-linecap:square;stroke-width:1.5;"/>
    </g>
    <g id="line2d_41">
     <defs>
      <path d="M -0 3 
L 3 -3 
L -3 -3 
z
" id="m54f81cfbff" style="stroke:#98df8a;stroke-linejoin:miter;"/>
     </defs>
     <g>
      <use style="fill:#98df8a;stroke:#98df8a;stroke-linejoin:miter;" x="787.930625" xlink:href="#m54f81cfbff" y="30.416563"/>
     </g>
    </g>
    <g id="text_21">
     <!-- sydr_symptr -->
     <g transform="translate(805.930625 33.916563)scale(0.1 -0.1)">
      <defs>
       <path d="M 2059 -325 
Q 1816 -950 1584 -1140 
Q 1353 -1331 966 -1331 
L 506 -1331 
L 506 -850 
L 844 -850 
Q 1081 -850 1212 -737 
Q 1344 -625 1503 -206 
L 1606 56 
L 191 3500 
L 800 3500 
L 1894 763 
L 2988 3500 
L 3597 3500 
L 2059 -325 
z
" id="DejaVuSans-79" transform="scale(0.015625)"/>
       <path d="M 1159 525 
L 1159 -1331 
L 581 -1331 
L 581 3500 
L 1159 3500 
L 1159 2969 
Q 1341 3281 1617 3432 
Q 1894 3584 2278 3584 
Q 2916 3584 3314 3078 
Q 3713 2572 3713 1747 
Q 3713 922 3314 415 
Q 2916 -91 2278 -91 
Q 1894 -91 1617 61 
Q 1341 213 1159 525 
z
M 3116 1747 
Q 3116 2381 2855 2742 
Q 2594 3103 2138 3103 
Q 1681 3103 1420 2742 
Q 1159 2381 1159 1747 
Q 1159 1113 1420 752 
Q 1681 391 2138 391 
Q 2594 391 2855 752 
Q 3116 1113 3116 1747 
z
" id="DejaVuSans-70" transform="scale(0.015625)"/>
      </defs>
      <use xlink:href="#DejaVuSans-73"/>
      <use x="52.099609" xlink:href="#DejaVuSans-79"/>
      <use x="111.279297" xlink:href="#DejaVuSans-64"/>
      <use x="174.755859" xlink:href="#DejaVuSans-72"/>
      <use x="215.869141" xlink:href="#DejaVuSans-5f"/>
      <use x="265.869141" xlink:href="#DejaVuSans-73"/>
      <use x="317.96875" xlink:href="#DejaVuSans-79"/>
      <use x="377.148438" xlink:href="#DejaVuSans-6d"/>
      <use x="474.560547" xlink:href="#DejaVuSans-70"/>
      <use x="538.037109" xlink:href="#DejaVuSans-74"/>
      <use x="577.246094" xlink:href="#DejaVuSans-72"/>
     </g>
    </g>
    <g id="line2d_42">
     <path d="M 777.930625 45.372813 
L 797.930625 45.372813 
" style="fill:none;stroke:#1f77b4;stroke-linecap:square;stroke-width:1.5;"/>
    </g>
    <g id="line2d_43">
     <defs>
      <path d="M 0 3 
C 0.795609 3 1.55874 2.683901 2.12132 2.12132 
C 2.683901 1.55874 3 0.795609 3 0 
C 3 -0.795609 2.683901 -1.55874 2.12132 -2.12132 
C 1.55874 -2.683901 0.795609 -3 0 -3 
C -0.795609 -3 -1.55874 -2.683901 -2.12132 -2.12132 
C -2.683901 -1.55874 -3 -0.795609 -3 0 
C -3 0.795609 -2.683901 1.55874 -2.12132 2.12132 
C -1.55874 2.683901 -0.795609 3 0 3 
z
" id="m2c4d773714" style="stroke:#1f77b4;"/>
     </defs>
     <g>
      <use style="fill:#1f77b4;stroke:#1f77b4;" x="787.930625" xlink:href="#m2c4d773714" y="45.372813"/>
     </g>
    </g>
    <g id="text_22">
     <!-- sydr_alter_symptr -->
     <g transform="translate(805.930625 48.872813)scale(0.1 -0.1)">
      <use xlink:href="#DejaVuSans-73"/>
      <use x="52.099609" xlink:href="#DejaVuSans-79"/>
      <use x="111.279297" xlink:href="#DejaVuSans-64"/>
      <use x="174.755859" xlink:href="#DejaVuSans-72"/>
      <use x="215.869141" xlink:href="#DejaVuSans-5f"/>
      <use x="265.869141" xlink:href="#DejaVuSans-61"/>
      <use x="327.148438" xlink:href="#DejaVuSans-6c"/>
      <use x="354.931641" xlink:href="#DejaVuSans-74"/>
      <use x="394.140625" xlink:href="#DejaVuSans-65"/>
      <use x="455.664062" xlink:href="#DejaVuSans-72"/>
      <use x="496.777344" xlink:href="#DejaVuSans-5f"/>
      <use x="546.777344" xlink:href="#DejaVuSans-73"/>
      <use x="598.876953" xlink:href="#DejaVuSans-79"/>
      <use x="658.056641" xlink:href="#DejaVuSans-6d"/>
      <use x="755.46875" xlink:href="#DejaVuSans-70"/>
      <use x="818.945312" xlink:href="#DejaVuSans-74"/>
      <use x="858.154297" xlink:href="#DejaVuSans-72"/>
     </g>
    </g>
   </g>
  </g>
 </g>
 <defs>
  <clipPath id="p1bb0df59ed">
   <rect height="266.112" width="714.24" x="59.690625" y="22.318125"/>
  </clipPath>
 </defs>
</svg>
